STARTFONT 2.3
FONT -FontForge-Henny Penny-Book-R-Normal--36-360-72-72-P-206-ISO10646-1
SIZE 36 72 72  4
FONTBOUNDINGBOX 51 64 -6 -23
COMMENT "Generated by fontforge, http://fontforge.sourceforge.net"
COMMENT "Copyright (c) 2012, Brownfox (gayaneh.b@gmail.com), with Reserved Font Name "Henny Penny""
STARTPROPERTIES 40
FOUNDRY "FontForge"
FAMILY_NAME "Henny Penny"
WEIGHT_NAME "Book"
SLANT "R"
SETWIDTH_NAME "Normal"
ADD_STYLE_NAME ""
PIXEL_SIZE 36
POINT_SIZE 360
RESOLUTION_X 72
RESOLUTION_Y 72
SPACING "P"
AVERAGE_WIDTH 206
CHARSET_REGISTRY "ISO10646"
CHARSET_ENCODING "1"
FONTNAME_REGISTRY ""
CHARSET_COLLECTIONS "ISO10646-1"
BITS_PER_PIXEL 4
FONT_NAME "HennyPenny-Regular"
FACE_NAME "Henny Penny"
COPYRIGHT "Copyright (c) 2012, Brownfox (gayaneh.b@gmail.com), with Reserved Font Name "Henny Penny""
FONT_VERSION "1.001"
FONT_ASCENT 29
FONT_DESCENT 7
UNDERLINE_POSITION -4
UNDERLINE_THICKNESS 2
X_HEIGHT 21
CAP_HEIGHT 27
RAW_ASCENT 799
RAW_DESCENT 200
NORM_SPACE 10
RELATIVE_WEIGHT 40
RELATIVE_SETWIDTH 50
SUPERSCRIPT_X 0
SUPERSCRIPT_Y 12
SUPERSCRIPT_SIZE 21
SUBSCRIPT_X 0
SUBSCRIPT_Y 2
SUBSCRIPT_SIZE 21
AVG_LOWERCASE_WIDTH 184
AVG_UPPERCASE_WIDTH 258
ENDPROPERTIES
CHARS 233
STARTCHAR space
ENCODING 32
SWIDTH 270 0
DWIDTH 10 0
BBX 1 1 0 0
BITMAP
00
ENDCHAR
STARTCHAR exclam
ENCODING 33
SWIDTH 249 0
DWIDTH 9 0
BBX 6 35 1 -1
BITMAP
04DEA1
0DFFF8
1FFFFD
2FFFFF
0FFFFF
0EFFFF
0BFFFF
09FFFF
07FFFE
04FFFD
02FFFC
00FFFA
00DFF9
00BFF8
009FF7
007FF5
006FF3
005FF2
004FF0
003FD0
002FB0
001F90
001F70
001F50
001F20
000E00
000800
000000
000000
000000
03DE80
0CFFF4
0FFFF7
0CFFF5
03CE90
ENDCHAR
STARTCHAR quotedbl
ENCODING 34
SWIDTH 292 0
DWIDTH 11 0
BBX 8 14 1 17
BITMAP
000006E5
0CD10CFA
3FF40DFA
3FF40DFA
1FF40CF9
0FF40CF8
0DF40BF7
0BF40AF6
09F309F4
06F308F3
04F207F1
02F106E0
00D004C0
00700180
ENDCHAR
STARTCHAR numbersign
ENCODING 35
SWIDTH 1030 0
DWIDTH 37 0
BBX 35 40 1 -11
BITMAP
0000000000000000000C1000000000000000
0000000000000000005D0000000000000000
000000000000000000A70000000000000000
000000000000000001F20000000000000000
000000000000000007B00004800000000000
00000000000000000D50000C600000000000
00000000000000004E00003F100000000000
0000000000000000A80000AA000000000000
0000000000000002F20002F3000000000000
0000000000000008B0000AB0000000000000
056544322110014E60004F40000000000000
189ABBCCDEFFFFFFD878EF31000000000000
0000000000013DFD777DFDA9AAABCDDCCA20
0000000000000BE1000ED100000000235500
0000000000001E70005F5000000000000000
0000000000005F1000BD0000000000000000
000000000000BA0002F60000000000000000
000000000003F40009E00000000000000000
00000000000AD0001E700000000100000000
00000000003F80008F1001369BEF80000000
0000000001CF756AFFBCEDB9753100000000
00134679BEFFFFFFFB520000000000000000
0CFFFFEDDFFA413FB0000000000000000000
046531003FE1007F30000000000000000000
000000009F8000DC00000000000000000000
00000002FF2005F600000000000000000000
00000008FA000BE000000000000000000000
0000001EF3003F8000000000000000000000
0000007FC0009F2000000000000000000000
000000EF5001FA0000000000000000000000
000005FD0008F40000000000000000000000
00000BF6000ED00000000000000000000000
00000FD0006F700000000000000000000000
00000A3000CE100000000000000000000000
0000000003F9000000000000000000000000
000000000AF3000000000000000000000000
000000001FC0000000000000000000000000
000000007F50000000000000000000000000
00000000CD00000000000000000000000000
00000000D500000000000000000000000000
ENDCHAR
STARTCHAR dollar
ENCODING 36
SWIDTH 799 0
DWIDTH 29 0
BBX 22 40 3 -8
BITMAP
000000000000001B000000
000000000000005B000001
000000000000008800003A
00000000000000A60002E5
0000000005ADEFFC868ED0
00000002CFF821F9FFFF80
0000001DFF8003D04FFF40
0000009FFF3006A007FF10
000001EFFF20097001FD00
000003FFFF400C5000DA00
000004FFFF900E2000A800
000004FFFFF22E00009500
000001FFFFFB6B00007200
000000BFFFFFE800001000
0000003FFFFFF700000000
00000009FFFFFF40000000
00000001CFFFFFE3000000
000000002EFFFFFD100000
0000000003EFFFFFB00000
00000000003EFFFFF80000
00000000000FFFFFFF3000
00000000003E5FFFFFB000
00053000006B08FFFFF300
00094000009700CFFFF800
000B400000D4002FFFFC00
000D400001F1000BFFFE00
001F600004C00005FFFE00
005F800007900001FFFD00
009FC0000B600000FFFB00
00EFF1000E200000FFF600
04FFF8002E000003FFE100
0BECFF306B000009FF7000
3D204ED39700005FF90000
820001BFE60139FE600000
00000006FDEEDA61000000
00000006B0000000000000
0000000A70000000000000
0000000D30000000000000
0000001D00000000000000
0000001400000000000000
ENDCHAR
STARTCHAR percent
ENCODING 37
SWIDTH 789 0
DWIDTH 28 0
BBX 28 33 0 0
BITMAP
000018CEED92000000000003B000
0003EF812AFE50000000001D6000
001EFC0000CFE200000000BC0000
007FF700005FFA00000007F30000
00CFF500001FFE0000003F800000
00FFF600000DFF200001DC000000
00FFF700000CFF20000AF2000000
00EFF800000CFF10006F60000000
00CFFB00000DFE0003EB00000000
007FFF10001FF9001DD100000000
001DFF80005FE100AF4000000000
0002DFF713DD3006F80000000000
000017CEEC71003EB00000000000
00000000000001DE200000000000
00000000000009F4000000000000
0000000000006F80000000000000
000000000002EC00000000000000
00000000000CE200000000000000
00000000009F5000039DFEC71000
0000000005F900008FE5129FD300
000000002EC00008FF30000CFE20
00000000BE20003FFA000005FFA0
00000007F50000AFF5000002FFF2
0000003F900000EFF2000000FFF5
000001DC000002FFF1000000FFF7
000009E2000002FFF0000000FFF6
00005F50000002FFF1000001FFF4
0002E900000000EFF3000003FFE0
000CC100000000AFF7000008FF80
008F30000000002EFE10001EFC10
03F6000000000004EFC303CFB100
0CA000000000000028CEFDA40000
3C10000000000000000000000000
ENDCHAR
STARTCHAR ampersand
ENCODING 38
SWIDTH 773 0
DWIDTH 28 0
BBX 27 35 1 -4
BITMAP
00000003ADFEB300000000000000
0000009E6214EF40000000000000
000008F300007FC0000000000000
00003FA000004FF0000000000000
00009F5000006FF0000000000000
0000DF300000BFC0000000000000
0000FF200004FF80000000000000
0001FF30001DFE10000000000000
0000FF5000BFF700000000000000
0000EF900AFFB000000000000000
0000DFD0AFFD1000000000000000
0000AFFCFFE30000000000000000
00007FFFFF500000000007900000
00003FFFF700000000007FD00000
0000AFFFA00000000009FFF00000
0008FFFFD000000005DFFFF00000
004FFFFFF5000027DFFFFFE00000
01DFFFEFFD004DD96214FFD00000
08FFFD3FFF7000000000AFB00000
0EFFF70AFFE2000000008F800000
5FFFF302FFFB000000008F500000
9FFFE0008FFF600000009F100000
BFFFD0001DFFF3000000DB000000
CFFFC00004FFFD100003F5000000
BFFFD000009FFFB00009D0000000
9FFFF100000CFFFA002F60000000
5FFFF4000002EFFFA1CB00000000
0DFFFA0000005FFFFED100000710
05FFFF40000008FFFFD200002C00
007FFFE3000000BFFFFE7000B600
0005EFFF93113AECFFFFFEADE000
0000059DEFEDA510AFFFFFFF6000
000000000000000009FFFFFD0000
0000000000000000006EFFF40000
00000000000000000002AE600000
ENDCHAR
STARTCHAR quotesingle
ENCODING 39
SWIDTH 174 0
DWIDTH 6 0
BBX 4 11 1 17
BITMAP
0BD2
2FF6
2FF7
0FF7
0DF6
0AF6
08F5
05F4
01F3
00D2
0070
ENDCHAR
STARTCHAR parenleft
ENCODING 40
SWIDTH 431 0
DWIDTH 16 0
BBX 16 51 0 -15
BITMAP
0000000080000000
0000000980000000
0000006E10000000
000002E800000000
00000AF200000000
00003FB000000000
0000BF5000000000
0003FF1000000000
000AFB0000000000
001FF70000000000
006FF40000000000
00BFF10000000000
01FFE00000000000
04FFB00000000000
08FF900000000000
0BFF800000000000
0EFF600000000000
2FFF500000000000
4FFF400000000000
6FFF400000000000
7FFF300000000000
8FFF300000000000
8FFF300000000000
9FFF400000000000
8FFF400000000000
8FFF500000000000
7FFF700000000000
5FFF900000000000
3FFFC00000000000
1FFFE00000000000
0DFFF30000000000
09FFF60000000000
05FFFA0000000000
01FFFE0000000000
00BFFF4000000000
005FFFA000000000
000EFFE100000000
0007FFF600000000
0001EFFD00000000
00007FFF50000000
00000DFFC0000000
000004FFF5000000
0000009FFD000000
0000001DFF700000
00000003FFE20000
000000006FFB0000
0000000008FF7000
00000000009FF400
000000000008FE20
0000000000005ED1
0000000000000295
ENDCHAR
STARTCHAR parenright
ENCODING 41
SWIDTH 443 0
DWIDTH 16 0
BBX 16 35 0 -8
BITMAP
00AC820000000000
001BFF9200000000
00007FFE60000000
000005FFF9000000
0000005FFFA00000
00000007FFF90000
00000000BFFF5000
000000002EFFE100
0000000009FFF900
0000000002FFFF20
0000000000AFFF70
00000000006FFFD0
00000000001FFFF1
00000000000DFFF5
00000000000BFFF7
000000000008FFF8
000000000007FFF9
000000000007FFF9
000000000007FFF8
000000000008FFF7
000000000009FFF4
00000000000CFFF1
00000000000EFFC0
00000000004FFF70
00000000009FFE10
0000000001EFF800
0000000007FFE100
000000002EFF5000
00000000BFF90000
00000009FFB00000
0000008FFB100000
000019FF90000000
0003DFE600000000
03AFF91000000000
6FD8200000000000
ENDCHAR
STARTCHAR asterisk
ENCODING 42
SWIDTH 490 0
DWIDTH 18 0
BBX 15 16 1 17
BITMAP
0000007F70000000
000000CFE0000000
000000AFF1000000
0000006FF3006E70
0000001FF405FF90
0000000AF51EFD20
1AB84004F68FD200
4FFFFD71D9E91000
08DFFFFEEF400000
00000006FF700000
000003CF78FB1000
00005FF901EFD300
0003FFA0008FFD10
0005F900001EFF70
000000000003EF50
0000000000001200
ENDCHAR
STARTCHAR plus
ENCODING 43
SWIDTH 440 0
DWIDTH 16 0
BBX 13 19 1 2
BITMAP
00000009400000
0000000C500000
0000000B500000
0000000B400000
0000000B400000
0000000B400000
0000000C400000
0000000D400000
0001125F735880
1EFEEDEFD86420
0000000E800000
0000000B900000
00000009A00000
00000007C00000
00000005E00000
00000004F10000
00000002F20000
00000000E30000
00000000300000
ENDCHAR
STARTCHAR comma
ENCODING 44
SWIDTH 251 0
DWIDTH 9 0
BBX 7 12 1 -6
BITMAP
04CFB200
0EFFFC00
2FFFFF20
1FFFFF40
07FFFF30
009FFE00
000CFA00
0008F400
000BC000
003F3000
00C70000
06800000
ENDCHAR
STARTCHAR hyphen
ENCODING 45
SWIDTH 436 0
DWIDTH 16 0
BBX 13 2 1 7
BITMAP
16532100123430
18BDEEFFFFEC80
ENDCHAR
STARTCHAR period
ENCODING 46
SWIDTH 238 0
DWIDTH 9 0
BBX 6 6 1 -1
BITMAP
03CEA1
0DFFF8
2FFFFB
2FFFFA
0DFFF6
03CE90
ENDCHAR
STARTCHAR slash
ENCODING 47
SWIDTH 690 0
DWIDTH 25 0
BBX 25 35 0 -1
BITMAP
00000000000000000000000130
00000000000000000000001C50
00000000000000000000009C00
0000000000000000000005F300
000000000000000000002E9000
00000000000000000000BD1000
00000000000000000007F40000
0000000000000000003F900000
000000000000000001DD100000
00000000000000000AF3000000
00000000000000006F70000000
0000000000000003FB00000000
000000000000001CE100000000
000000000000009F5000000000
00000000000005F90000000000
0000000000002EC00000000000
000000000000CE300000000000
000000000008F6000000000000
00000000004FA0000000000000
0000000001DD10000000000000
000000000AF400000000000000
000000006F7000000000000000
00000002EB0000000000000000
0000000BE20000000000000000
0000007F500000000000000000
000003F9000000000000000000
00001DC0000000000000000000
00009E20000000000000000000
0004F600000000000000000000
001EA000000000000000000000
00BD1000000000000000000000
06F40000000000000000000000
1E800000000000000000000000
7C000000000000000000000000
21000000000000000000000000
ENDCHAR
STARTCHAR zero
ENCODING 48
SWIDTH 723 0
DWIDTH 26 0
BBX 26 26 0 2
BITMAP
0000000048BEFEDB8300000000
0000005DF9420249EFC4000000
00001BFD300000001AFF900000
0001DFD20000000000AFFB1000
000CFF4000000000000CFFA000
008FFB00000000000005FFF600
02FFF500000000000000DFFE10
09FFE0000000000000008FFF70
0EFFB0000000000000003FFFD0
3FFF90000000000000001FFFF3
6FFF80000000000000000DFFF6
8FFF70000000000000000BFFF8
9FFF70000000000000000AFFF9
8FFF80000000000000000AFFFA
7FFF900000000000000009FFF9
5FFFC0000000000000000AFFF7
2FFFE0000000000000000BFFF5
0CFFF3000000000000000DFFF1
07FFF8000000000000001FFFB0
01EFFE100000000000005FFF40
006FFF80000000000000AFFB00
000AFFE3000000000002FFE200
0000AFFE20000000000CFE4000
000008FFE500000001AFD30000
0000003BFFC631127DE7100000
0000000027ADEFECA510000000
ENDCHAR
STARTCHAR one
ENCODING 49
SWIDTH 505 0
DWIDTH 18 0
BBX 18 33 0 -3
BITMAP
000000007300000000
00000000D700000000
00000004FA00000000
0000000BFC00000000
0000005FFF00000000
000002EFFF20000000
00001CFFFF50000000
0001CFFFFF70000000
003DB7CFFF90000000
07C3001EFFC0000000
A700000AFFE0000000
00000007FFF2000000
00000004FFF4000000
00000002FFF7000000
00000000FFF9000000
00000000DFFC000000
00000000BFFE000000
000000009FFF200000
000000008FFF400000
000000007FFF700000
000000005FFFA00000
000000004FFFD00000
000000003FFFF10000
000000002FFFF40000
000000001FFFF80000
000000001FFFFD0000
000000002FFFFF6000
000000005FFFFFF600
00000001CFFFFFFFD7
0000003CFFB7421011
000019FC6100000000
0006EB400000000000
000730000000000000
ENDCHAR
STARTCHAR two
ENCODING 50
SWIDTH 534 0
DWIDTH 19 0
BBX 20 32 0 -3
BITMAP
000005ADEED940000000
0002CFFFFFFFFB100000
003EFFFFFFFFFFD10000
01DF93114BFFFFF90000
08F50000009FFFFF1000
0E900000000DFFFF5000
4F1000000007FFFF7000
7B0000000004FFFF7000
A60000000003FFFF5000
B30000000004FFFF1000
C10000000006FFFB0000
900000000008FFF50000
00000000000DFFC00000
00000000003FFE200000
0000000000BFF6000000
0000000004FF90000000
000000001DFB00000000
00000000AFB100000000
00000008FA0000000000
0000008F800000000000
000008E5000000000000
0001BC20000000000000
003D9000000000000000
19FFD400000000000031
07EFFFC50000000001C1
0018EFFFD72000000970
000018FFFFFC7302AC00
0000002AFFFFFFFFF400
000000005EFFFFFFA000
0000000001AFFFFF2000
000000000006EFF80000
0000000000002BC10000
ENDCHAR
STARTCHAR three
ENCODING 51
SWIDTH 511 0
DWIDTH 18 0
BBX 19 30 0 -2
BITMAP
04FC9631000000000000
05FFFFFFEDCBAA800000
05FFFFFFFFFFFFD00000
04FFFFFFFFFFFF500000
03FFC5210124DA000000
03FC10000003D1000000
04F20000000C30000000
04A00000008700000000
0340000004A000000000
000000001B1000000000
00000000A20000000000
00000008FB6100000000
0000000AFFFE91000000
000000004DFFFE500000
00000000019FFFF70000
000000000007FFFF6000
0000000000008FFFF300
7000000000000DFFFA00
B0000000000006FFFE10
E0000000000001FFFF40
D4000000000000EFFF50
A9000000000000EFFF60
7E100000000000FFFF40
2F900000000004FFFF10
0BF5000000000BFFFB00
04FF600000007FFFF500
009FFC62014AFFFFB000
000BFFFFFFFFFFFD2000
00008FFFFFFFFFB10000
0000017BEFED94000000
ENDCHAR
STARTCHAR four
ENCODING 52
SWIDTH 712 0
DWIDTH 26 0
BBX 26 36 0 -5
BITMAP
00000000000000080000000000
000000000000009B0000000000
00000000000005F60000000000
0000000000002EF20000000000
000000000001DFE00000000000
00000000000BFFE00000000000
00000000009FFFF00000000000
0000000007CAFFF10000000000
000000006B13FFF30000000000
00000005B000FFF60000000000
0000005C1000CFF90000000000
000004D10000AFFC0000000000
00004E3000007FFF1000000000
0004E50000005FFF4000000000
005F800000002FFF7000000000
05FD000000000FFFA000000000
5FFD300000000CFFE000000000
8FFFF92000000AFFF300000000
039EFFFB400008FFF600000000
00005BFFFD7205FFFA00000000
00000028EFFFB8FFFE00000720
0000000006DFFFFFFF72006B00
000000000005BFFFFFFFEDF300
00000000000003CFFFFFFFB000
000000000000007FFFFFFF4000
000000000000004FFFC4AA0000
000000000000001FFFF0000000
000000000000000EFFF4000000
000000000000000BFFF7000000
0000000000000009FFFC000000
0000000000000008FFFF200000
000000000000002DFFFFA00000
0000000000017ACCDFFFF40000
00000000000000000026AE6000
00000000000000000000015971
00000000000000000000000011
ENDCHAR
STARTCHAR five
ENCODING 53
SWIDTH 757 0
DWIDTH 27 0
BBX 28 34 0 -4
BITMAP
0000000000000000000000000042
000000000000009D6000000001E2
00000000000004FFFD5000000AD0
0000000000000CFFFFFC40006F80
0000000000005E9FFFFFFC9AFF20
000000000000C603CFFFFFFFFB00
000000000005B00008FFFFFFF400
00000000000D3000004EFFFFC000
00000000006900000001BFFF4000
0000000001D10000000006E90000
0000000007700000000000000000
000000001D100000000000000000
000000007FECA851000000000000
00000000EFFFFFFFA30000000000
00000000159EFFFFFF8000000000
0000000000005CFFFFFA00000000
000000000000006FFFFF80000000
01B0000000000005FFFFF2000000
0A700000000000008FFFF8000000
1F100000000000002FFFFD000000
6C000000000000000CFFFF000000
990000000000000009FFFF100000
B70000000000000009FFFE000000
C6000000000000000AFFFD000000
C7000000000000000BFFFB000000
B8000000000000000EFFF6000000
9C000000000000003FFFF2000000
5F20000000000000AFFFA0000000
1EA0000000000003FFFF20000000
07F600000000001CFFF600000000
00BF8000000002CFFF9000000000
001BFE7310149FFFF70000000000
00007EFFFFFFFFFB300000000000
0000016ADEFDC830000000000000
ENDCHAR
STARTCHAR six
ENCODING 54
SWIDTH 598 0
DWIDTH 22 0
BBX 22 28 0 0
BITMAP
000000005ADEFEC7200000
0000005DFFFFFFFFF81000
00000AFFFC620137DFC100
0000BFFF8000000008FB00
0008FFF800000000007F60
004FFFD000000000000AC0
00CFFF70000000000001C0
03FFFF1000000000000000
09FFFC0039DFEDA6100000
0DFFF91AB51026CFD50000
1FFFFBD900000009FF7000
4FFFFFC000000000BFF500
5FFFFF30000000003FFE10
6FFFFD00000000000DFF60
7FFFF9000000000008FFB0
6FFFF6000000000006FFE0
6FFFF5000000000004FFF1
4FFFF4000000000003FFF2
1FFFF4000000000002FFF1
0CFFF5000000000003FFF0
07FFF8000000000004FFC0
01EFFB000000000007FF80
008FFF20000000000BFF20
000DFF80000000002FF900
0002EFF300000000AFD100
00002CFE30000006FD2000
0000008EF94113AFA10000
000000016ADFED93000000
ENDCHAR
STARTCHAR seven
ENCODING 55
SWIDTH 507 0
DWIDTH 18 0
BBX 19 30 0 -2
BITMAP
00000000000000001520
876421000012468CFD00
EFFFFFFFFFFFFFFFF400
BFFFFFFFFFFFFFFFA000
8FFFFFFFFFFFFFFF2000
6FF611258CFFFFF80000
4F9000000016BFE10000
3F40000000000B800000
2F00000000001E100000
1D000000000088000000
1A0000000002E2000000
06000000000AA0000000
00000000003F40000000
0000000000BD00000000
0000000004F700000000
000000000CF200000000
000000004FC000000000
00000000CF8000000000
00000004FF4000000000
0000000BFF0000000000
0000003FFC0000000000
0000009FF90000000000
000001EFF70000000000
000007FFF40000000000
00000DFFF30000000000
00003FFFF20000000000
00009FFFF10000000000
0000DFFFF00000000000
0003FFECB00000000000
00038300000000000000
ENDCHAR
STARTCHAR eight
ENCODING 56
SWIDTH 476 0
DWIDTH 17 0
BBX 17 30 0 -1
BITMAP
000005ADFEC7100000
0002BFFD5116D30000
001DFFE100003D1000
009FFF9000000B6000
01FFFF60000008A000
05FFFF60000007A000
06FFFF800000098000
06FFFFD000000D4000
04FFFFF600006C0000
00EFFFFF4002D30000
008FFFFFF86D400000
001DFFFFFFF3000000
0003EFFFFFFC300000
00003EFFFFFFE30000
00003DFFFFFFFE3000
0007FFA8BFFFFFD100
007FD30003BFFFF900
04FE20000009FFFF20
0DF700000000BFFF70
4FE1000000001EFFC0
9FA00000000009FFE0
AF800000000004FFE0
BF700000000001FFD0
AF800000000000FFB0
8FA00000000001FF60
3FE10000000005FE10
0BF8000000000BF600
02DF700000007F9000
001BFB52014AE70000
000039CEFEC7200000
ENDCHAR
STARTCHAR nine
ENCODING 57
SWIDTH 601 0
DWIDTH 22 0
BBX 22 27 0 -1
BITMAP
0000028BDFEDB620000000
0001AFD62026DFF9200000
003EFD1000001BFFE40000
01DFF300000001DFFF4000
09FFB0000000006FFFE200
1FFF70000000000EFFFA00
5FFF400000000009FFFF20
8FFF300000000005FFFF80
9FFF300000000002FFFFC0
9FFF300000000001FFFFF1
8FFF500000000000FFFFF2
5FFF800000000000FFFFF3
1EFFC00000000002FFFFF4
09FFF40000000004FFFFF3
01DFFD100000000AFFFFF2
003EFFC10000004FFFFFF0
0002BFFE831028EDFFFFC0
0000038CDFEDB617FFFF90
0000000000000008FFFF40
000000000000000CFFFC00
000000000000002FFFF500
000000000000009FFFC000
00000000000004FFFE2000
07B3000000005EFFE40000
01DFB621025BFFFD300000
001AFFFFFFFFFE81000000
000038CEFEDA6100000000
ENDCHAR
STARTCHAR colon
ENCODING 58
SWIDTH 246 0
DWIDTH 9 0
BBX 6 18 1 -1
BITMAP
04CEB2
1EFFFA
2FFFFC
1EFFF9
05DEA1
000000
000000
000000
000000
000000
000000
000000
000000
01AED4
08FFFD
0AFFFF
08FFFC
01BEC3
ENDCHAR
STARTCHAR semicolon
ENCODING 59
SWIDTH 266 0
DWIDTH 10 0
BBX 7 23 1 -7
BITMAP
006EE900
03FFFF70
08FFFFA0
07FFFFA0
03FFFF50
007DE800
00000000
00000000
00000000
00000000
00000000
00000000
00000000
02BEC500
0BFFFF20
0EFFFF60
0AFFFF50
01CFFF10
001EF800
000DD100
006E3000
03E40000
1B300000
ENDCHAR
STARTCHAR less
ENCODING 60
SWIDTH 522 0
DWIDTH 19 0
BBX 16 18 1 2
BITMAP
0000000000000042
0000000000001AE2
000000000004DD20
00000000008FA100
000000003DE50000
00000019FA200000
000006ED50000000
0003CF9100000000
019FC30000000000
1EFF300000000000
04CFE70000000000
0005DFD500000000
000006DFD5000000
00000017EFC40000
0000000019FFB300
00000000002AFF80
00000000000029EC
0000000000000002
ENDCHAR
STARTCHAR equal
ENCODING 61
SWIDTH 655 0
DWIDTH 24 0
BBX 21 7 1 7
BITMAP
000012346789ABCDDEFF90
18CEFFFFDCA97654321000
1776431000000000000000
0000000000000000000000
0000000000000000000000
1CFFFEEDDCCBAA98750000
1DFFFFEEEEEEEEFFFE4000
ENDCHAR
STARTCHAR greater
ENCODING 62
SWIDTH 533 0
DWIDTH 19 0
BBX 16 18 1 2
BITMAP
1B50000000000000
03DC300000000000
0019F91000000000
00004DE600000000
0000018FB3000000
00000003CF810000
0000000007EE6000
00000000002BFC30
0000000000005EF7
00000000000009FB
0000000000008FC1
00000000001AF900
0000000004DE5000
000000008FB10000
0000002CE6000000
000006EB20000000
0001AE6000000000
0008A20000000000
ENDCHAR
STARTCHAR question
ENCODING 63
SWIDTH 564 0
DWIDTH 20 0
BBX 20 33 0 -4
BITMAP
0000005ADEFEC9300000
00004DB41027EFFC3000
0006F90000002DFFE400
003FE100000003FFFE10
00CFA000000000CFFF80
06FFB0000000008FFFE0
0BFFE0000000007FFFF2
1FFFF6000000007FFFF3
3FFFFE200000009FFFF3
4FFFFFC0000000CFFFF1
3FFFFFF6000002FFFFC0
1FFFFFFA000009FFFF60
0CFFFFFA00004FFFFD00
05FFFFF60002EFFFE300
005CFD70001CFFFD3000
0000000001CFFFB10000
000000002DFFE5000000
00000003EFF910000000
0000003EFC3000000000
000003EF700000000000
00001DE4000000000000
00007F30000000000000
0000D900000000000000
0000F500000000000000
0000E600700000000000
0000AC13900000000000
00001BEC200000000000
00000000000000000000
00000000000000000000
000005EE700000000000
00000DFFF10000000000
00000BFFF20000000000
000002CE900000000000
ENDCHAR
STARTCHAR at
ENCODING 64
SWIDTH 898 0
DWIDTH 32 0
BBX 30 36 1 -11
BITMAP
00000000000159CDEFECA610000000
00000000029EB73201247CF8100000
000000007E9200000000003BE40000
0000001BC2000000000000007F5000
000001CA000000000000000006F300
00000CA00000000000000000009C00
00009C000000000000000000001E50
0004E20000000000000002000008B0
000C800000000000005FFF600002F2
005E10000028CEEC717FFF600000E5
00B8000008FE6114CD9FFF500000A9
01F20000AFE200001DFFFF4000008B
06D00007FF70000004FFFF3000007C
0A90001EFF10000000DFFF2000006D
0C60007FFC00000000AFFF1000005D
0F4000CFFA000000008FFF0000006C
1F2000FFFA000000007FFE0000007C
2F1002FFFA000000008FFD0000009A
3F1004FFFB000000009FFD000000C7
2F1003FFFE00000000BFFE000001F4
1F2002FFFF30000001EFFE000005F1
1F2000DFFFA0000006CEFF20000CA0
0E40009FFFF400001E8AFF60006F30
0C70002FFFFF7114DF23FFE316FA00
09A00007FFFFFFFFF8007FFFFFC100
05E000007FFFFFFFA00005CFD81000
01F30000029DFEB500000000000000
00A9000000000003CEB20000000000
004E10000000000DFFFB0000000000
000C80000000000FFFFF2000000000
0003F30000000009FFFF3000000000
00008E20000000008FFF1000000000
00000BD2000000000CFB0000000000
000000AE600000001EE20000000000
00000006EC720126DD300000000000
0000000016BEFFDA60000000000000
ENDCHAR
STARTCHAR A
ENCODING 65
SWIDTH 784 0
DWIDTH 28 0
BBX 29 32 0 -3
BITMAP
00000000000003C500000000000000
0000000000018FFB00000000000000
0000000136AFFFFF20000000000000
000000BEDBBFFFFF70000000000000
00000000000DFFFFC0000000000000
00000000000EBEFFF2000000000000
00000000003F49FFF7000000000000
00000000007D04FFFC000000000000
0000000000C900EFFF200000000000
0000000001F400AFFF700000000000
0000000006E0005FFFC00000000000
000000000B90001FFFF20000000000
000000001F40000CFFF80000000000
000000006E000007FFFD0000000000
00000000BC200004FFFF3000000000
00000001FBEC7301FFFF8000000000
00000006E1049EDCFFFFD000000000
0000000CA000004BFFFFF300000000
0000002F500000007FFFF800000000
0000008E100000000CFFFD00000000
000000DA0000000005FFFF40000000
000005F50000000001EFFF90000000
00000BF10000000000AFFFE0000000
00003FB000000000006FFFF5000000
0015DF8000000000001FFFFA000000
DFFFFFB000000000000CFFFF100000
0136AEFA300000000008FFFF700000
0000016BD00000000004FFFFD00000
00000000000000000000FFFFF80000
00000000000000000002FFFFFFA300
0000000000000000027EFFFFFFFFA0
00000000000000009DB85321000000
ENDCHAR
STARTCHAR B
ENCODING 66
SWIDTH 685 0
DWIDTH 25 0
BBX 25 36 0 -5
BITMAP
000000000259CEFEC820000000
5A87778ADFFFFFFFFFF6000000
026DFFFFC41014AFFFFF400000
0001CFFFB0000008FFFFB00000
00002FFFC0000000CFFFF10000
00000BFFD00000007FFFF20000
000007FFE00000004FFFF20000
000005FFF00000003FFFE00000
000003FFF10000004FFF900000
000002FFF20000007FFE100000
000001FFF3000000DFF4000000
000000FFF4000009FE40000000
000000EFF50001AFA200000000
000000EFF725AEC40000000000
000000EFFEB978BFEA40000000
000000DFF9000002AFFC300000
000000DFF900000008FFF60000
000000DFFA00000000BFFF5000
000000DFFB000000003FFFE100
000000EFFC000000000CFFF700
000000EFFD0000000008FFFC00
000000EFFF0000000006FFFF10
000000EFFF1000000004FFFF20
000000EFFF2000000004FFFF20
000000EFFF3000000004FFFF20
000000EFFF4000000005FFFE00
000000FFFF5000000008FFFB00
000001FFFF600000000CFFF500
000002FFFF900000002FFFD000
000005FFFFC0000000AFFE3000
000009FFFFF4000006FFE40000
00002EFFFFFE51139FFA200000
0003DFFFEEEFFFEDB820000000
007FE941000000000000000000
2CE71000000000000000000000
DA100000000000000000000000
ENDCHAR
STARTCHAR C
ENCODING 67
SWIDTH 742 0
DWIDTH 27 0
BBX 27 34 0 -4
BITMAP
0000000000000000000000190000
00000000000000000000004B0000
00000000000000000000006A0000
00000000000000000000009A0000
0000000000000000000001EA0000
00000000159CEFFEDB978DFB0000
00000029FFE8310136CFFFFC0000
000007FFF91000000004DFFE0000
0000AFFF7000000000001CFF2000
0009FFFB00000000000002EF5000
006FFFF2000000000000003FA000
01EFFFA00000000000000007E000
07FFFF4000000000000000009300
0CFFFF0000000000000000000000
2FFFFC0000000000000000000000
6FFFFA0000000000000000000000
9FFFF90000000000000000000000
AFFFF80000000000000000000000
BFFFF90000000000000000000000
CFFFF90000000000000000000000
CFFFFA0000000000000000000630
BFFFFD0000000000000000000850
9FFFFF1000000000000000000A50
6FFFFF4000000000000000000C30
3FFFFF9000000000000000001F10
0DFFFFE100000000000000005C00
07FFFFF70000000000000000B800
00DFFFFE2000000000000003F200
004FFFFFC00000000000000CA000
0007FFFFFB100000000000AE2000
00007FFFFFD4000000002BF40000
000004DFFFFFB6210249EE400000
00000007DFFFFFFFFFFFA2000000
00000000048BDEFEDA7200000000
ENDCHAR
STARTCHAR D
ENCODING 68
SWIDTH 726 0
DWIDTH 26 0
BBX 26 30 0 -6
BITMAP
043100123579BDEFEDA5000000
04AFFFFFFB410138EFFFD50000
0005FFFFC00000001BFFFF8000
00009FFF9000000000BFFFF600
00004FFF70000000001EFFFE20
00001FFF700000000007FFFF90
00000EFF700000000001FFFFE0
00000DFF700000000000BFFFF4
00000CFF8000000000008FFFF6
00000BFF8000000000006FFFF7
00000AFF9000000000005FFFF9
000009FFA000000000005FFFF8
000009FFB000000000006FFFF7
000009FFC000000000008FFFF5
000009FFD00000000000AFFFF1
000009FFF00000000000DFFFB0
000009FFF10000000003FFFF50
000009FFF40000000009FFFB00
00000AFFF7000000002EFFD200
00000AFFFC00000000BFFD2000
00000BFFFF50000008FF910000
00000DFFFFF72015CD82000000
00001FFFFFFFFEA62000000000
00006FFFFFC720000000000000
0000CFFE920000000000000000
0005FF91000000000000000000
002EC300000000000000000000
02D80000000000000000000000
3D500000000000000000000000
B3000000000000000000000000
ENDCHAR
STARTCHAR E
ENCODING 69
SWIDTH 557 0
DWIDTH 20 0
BBX 21 33 0 -4
BITMAP
000000000000257ACE1000
7DB987789BDFFFFFFF0000
07FFFFFFB6432101BE0000
007FFFFF200000004D0000
001EFFFF200000001D0000
000AFFFF200000000A0000
0007FFFF30000000000000
0004FFFF30000000000000
0002FFFF40000000000000
0000FFFF50000000000000
0000DFFF60000000000000
0000BFFF60000400000000
00009FFF70002900000000
00007FFF80009800000000
00006FFFFDDEF600000000
00004FFFFFFFF500000000
00003FFF9138F500000000
00001FFFA000B500000000
00000EFFB0009500000000
00000DFFC0008600000000
00000BFFD0003200000000
00000AFFE0000000000000
000009FFF0000000000000
000008FFF1000000000000
000006FFF2000000000000
000005FFF3000000000200
000004FFF4000000000910
000003FFF6000000000D00
000003FFF7000000004E00
000002FFF800000001DD00
000008FFFC0000005DFA00
2EEEFFFFFFECBBDFFFF700
0000011234578ABDEFC100
ENDCHAR
STARTCHAR F
ENCODING 70
SWIDTH 533 0
DWIDTH 19 0
BBX 20 33 0 -2
BITMAP
00000000000000026BEB
00000000000037CFFFFD
00000002585421017FFB
489ABCEFF90000000BF8
036DFFFFF600000009F4
0002EFFFF600000009F1
0000AFFFF70000000AC0
00007FFFF70000000B80
00004FFFF70000000C30
00001FFFF80000000900
00000EFFF80003000000
00000CFFF9000B200000
00000AFFF9001E000000
000008FFF9006C000000
000006FFFA26EB000000
000004FFFFFFFA000000
000002FFFB14DA000000
000001FFFB006B000000
000000EFFB002C000000
000000DFFC001D000000
000000BFFC000B000000
000000AFFD0001000000
0000009FFD0000000000
0000008FFE0000000000
0000007FFE0000000000
0000006FFF0000000000
0000006FFF0000000000
0000006FFF1000000000
0000007FFF2000000000
000000DFFF5000000000
00135CFFFFD200000000
0CFFEDCBCCEFC2000000
00000000000010000000
ENDCHAR
STARTCHAR G
ENCODING 71
SWIDTH 750 0
DWIDTH 27 0
BBX 28 27 0 -1
BITMAP
00000000000000000000000000A1
00000000000000000000000008B0
0000000000000000000000005E20
00000000159CEFFEB8400007F700
00000029EFD7310148EECBEFC000
000007FFF8000000001BFFFF3000
0001BFFF500000000001DFFB0000
000BFFF80000000000007FF40000
008FFFD00000000000004FD00000
02FFFF700000000000003F700000
0AFFFF100000000000004F200000
1FFFFC0000000000000049000000
5FFFF90000000000000000000000
9FFFF70000000000000000000000
BFFFF6000000000000000037B900
CFFFF600000000012468BEFF5000
CFFFF60000000CEDCBEFFFFA0000
BFFFF70000000000002EFFF70000
9FFFF900000000000008FFF70000
5FFFFD00000000000006FFF80000
1FFFFF20000000000006FFF90000
08FFFF80000000000007FFFB0000
01DFFFE100000000000BFFFD0000
003EFFFA00000000003FFFFF0000
0003DFFFA100000003D8205D1000
000019FFFE831024992000000000
00000026BDEFEDA6100000000000
ENDCHAR
STARTCHAR H
ENCODING 72
SWIDTH 743 0
DWIDTH 27 0
BBX 27 37 0 -5
BITMAP
0761000000000000000000000000
04CFB62000000000000000000000
0007FFFFFFFFED80000000000000
0000AFFFFB201110000000000000
00005FFFF2000000000000169B70
00003FFFF000000012469CFF4000
00002FFFE000006FEEFFFFFB0000
00001FFFE0000000007FFFF80000
00001FFFE0000000000EFFF70000
00001FFFE0000000000CFFF70000
00001FFFE0000000000AFFF60000
00001FFFE00000000008FFF50000
00001FFFE00000000006FFF50000
00001FFFE00000000006FFF50000
00000FFFE00000000005FFF40000
00001FFFE00000000006FFF40000
00001FFFE0000000000BFFF30000
00001FFFF200001357CFFFF30000
00001FFFFECCDECB98AFFFF30000
00001FFFFC631000000BFFF20000
00001FFFF20000000008FFF20000
00001FFFF00000000007FFF20000
00001FFFF00000000005FFF20000
00001FFFF10000000004FFF20000
00002FFFF10000000003FFF10000
00002FFFF10000000002FFF10000
00003FFFF10000000000FFF10000
00003FFFF10000000000EFF10000
00003FFFF20000000000EFF10000
00004FFFF20000000000DFF10000
00004FFFF20000000000DFF20000
00005FFFF20000000002FFF40000
00005FFFF2000000025DFFFB1000
00007FFFF300000BFFFFFFFFFB30
0003DFFFF7000003653100123420
49DFFFFFFF600000000000000000
AA74210136920000000000000000
ENDCHAR
STARTCHAR I
ENCODING 73
SWIDTH 438 0
DWIDTH 16 0
BBX 20 38 -2 -7
BITMAP
04987665545679ACEEF9
01358EFFFFFFFF941000
000002EFFFFFF6000000
0000006FFFFFB0000000
0000002FFFFF50000000
0000000FFFFF10000000
0000000FFFFD00000000
0000000EFFFB00000000
0000000EFFF900000000
0000000EFFF700000000
0000000EFFF500000000
0000000DFFF300000000
0000000DFFF200000000
0000000DFFF000000000
0000000DFFE000000000
0000000DFFC000000000
0000000DFFB000000000
0000000DFF9000000000
0000000DFF8000000000
0000000DFF7000000000
0000000DFF6000000000
0000000DFF5000000000
0000000DFF4000000000
0000000DFF3000000000
0000000DFF2000000000
0000000DFF1000000000
0000000EFF0000000000
0000000EFF0000000000
0000000EFE0000000000
0000000FFE0000000000
0000000FFE0000000000
0000001FFE0000000000
0000004FFF2000000000
000000AFFFC310000000
000008FFFFFFFF600000
0028DD96321000000000
5CD83000000000000000
43000000000000000000
ENDCHAR
STARTCHAR J
ENCODING 74
SWIDTH 628 0
DWIDTH 23 0
BBX 25 42 0 -9
BITMAP
00000000000000000000049C40
00000000000000000159EC6100
000000000012357ACFFE500000
00000000BFFFFFFFFFF4000000
000000000027EFFFFFC0000000
0000000000005FFFFF80000000
0000000000000CFFFF60000000
00000000000008FFFF50000000
00000000000005FFFF40000000
00000000000003FFFF40000000
00000000000001FFFF40000000
00000000000000EFFF40000000
00000000000000DFFF40000000
00000000000000CFFF40000000
00000000000000BFFF40000000
00000000000000AFFF30000000
000000000000009FFF20000000
000000000000009FFF10000000
000000000000009FFF10000000
000000000000009FFE00000000
000000000000009FFD00000000
000000000000009FFC00000000
00000000000000AFFA00000000
00000000000000AFF900000000
00000000000000BFF700000000
00000000000000DFF500000000
00000000000000EFF300000000
00000000000001FFF000000000
00000000000003FFC000000000
00000000000005FF9000000000
00000000000008FF5000000000
0000000000000BFF1000000000
007CED9100001FFB0000000000
0AFFFFFC00004FF50000000000
5FFFFFFF4000AFE00000000000
AFFFFFFF5001EF700000000000
CFFFFFFF2008FD000000000000
BFFFFFFA002EF4000000000000
8F71254000CF70000000000000
2F5000001BF800000000000000
05E61026DE5000000000000000
003AEFEB710000000000000000
ENDCHAR
STARTCHAR K
ENCODING 75
SWIDTH 866 0
DWIDTH 31 0
BBX 32 33 0 -3
BITMAP
00000000017800000000000000000000
00122358BE8100069200000000000000
8FFFFFFFF5000001BFB7421000000000
003CFFFFC00000001EFFFFFEFC000000
0003FFFFA00000000BFF930000000000
0000EFFF800000001EE4000000000000
0000CFFF800000008F40000000000000
0000BFFF90000005F500000000000000
0000AFFF9000003E8000000000000000
00009FFF900002DB0000000000000000
00008FFFA0001CE10000000000000000
00007FFFA000BF600000000000000000
00006FFFA00AFF700000000000000000
00005FFFB08FFFD00000000000000000
00004FFFB7FFFFF40000000000000000
00003FFFEF6FFFFB0000000000000000
00002FFFF709FFFF4000000000000000
00001FFFC002FFFFC000000000000000
00000FFFB000AFFFF70000000000BA10
00000EFFB0002FFFFE20000000002EB0
00000DFFC00007FFFFC00000000005F5
00000CFFC00000DFFFF90000000000DA
00000CFFC000003EFFFF7000000000AD
00000BFFD0000005FFFFF800000000BE
00000AFFD00000007FFFFFB2000002EC
00000AFFE000000007FFFFFF94114DF8
000009FFF0000000005EFFFFFFFFFFE1
00000AFFF10000000002AFFFFFFFFE30
00000BFFF40000000000027BEFEC8100
00005FFFFB0000000000000000000000
000BFEEFFF8000000000000000000000
0000000148DD50000000000000000000
00000000000250000000000000000000
ENDCHAR
STARTCHAR L
ENCODING 76
SWIDTH 660 0
DWIDTH 24 0
BBX 24 27 0 1
BITMAP
010000000000000000000000
2DFC96310000000000000000
00149FFFFDDCDEFE20000000
000008FFFFFFB31000000000
000001FFFFFE100000000000
000000DFFFFB000000000000
000000CFFFF8000000000000
000000BFFFF6000000000000
000000AFFFF5000000000000
000000AFFFF3000000000000
0000009FFFF2000000000000
0000009FFFF0000000000000
0000009FFFE0000000000000
0000008FFFD0000000000000
0000008FFFC0000000000000
0000008FFFB00000000B0000
0000008FFF900000000B4000
0000008FFF80000000089000
0000008FFF7000000005D000
0000008FFF7000000002F300
0000008FFF6000000001F800
0000009FFF5000000001FD00
000000AFFF5000000003FF40
000000DFFF700000000AFFA0
000003FFFFE5200025BFFFE0
00148EFFFFFFFFFFFFFFFFE1
04EDCA865332211100000000
ENDCHAR
STARTCHAR M
ENCODING 77
SWIDTH 1089 0
DWIDTH 39 0
BBX 41 28 0 -1
BITMAP
000000000000000000000000000000000013300000
000000000000000000000000000000AFFFFFD00000
000000000000000000000000000003FFFB73000000
00000000000000000000000000000AFF3000000000
00000032000000000000000000002FFC0000000000
000000CFEBA887100000000000009FFB0000000000
000000029FFFFFB0000000000001EFFC0000000000
0000000009FEFFFA000000000007FFFE0000000000
0000000002F5DFFF70000000001DFFFF1000000000
0000000000E65FFFF30000000077CFFF3000000000
0000000000C80BFFFD10000000C18FFF6000000000
0000000000A903FFFFA0000006605FFF8000000000
00000000009A00AFFFF600000C001FFFB000000000
00000000009B002FFFFE200066000DFFE000000000
00000000008B0008FFFFC101C00009FFF300000000
00000000008B0001EFFFFA08700006FFF700000000
00000000008B00006FFFFFAD100002FFFA00000000
00000000009A00000CFFFFF7000000EFFE00000000
0000000000B9000004FFFFE1000000BFFF40000000
0000000000D6000000AFFF800000008FFF80000000
0000000001F40000002FFE100000005FFFD0000000
0000000004F100000008F7000000002FFFF3000000
2CEB20000AB00000000080000000000FFFFA000000
CFFFC1002F600000000000000000000DFFFF600000
EFFFFB34DE100000000000000000000EFFFFFA4000
CFFFFFFFF5000000000000000000029FFFFFFFFE20
5FFFFFFF60000000000000000029DFC85210011100
04CFED820000000000000000002641000000000000
ENDCHAR
STARTCHAR N
ENCODING 78
SWIDTH 799 0
DWIDTH 29 0
BBX 29 35 0 -9
BITMAP
000012452000000000000000000000
CFFFFFFFF600000000000000147A80
0014DFFFFF60000001EEDDDEFEA620
00004FFFFFF5000000025CFFE20000
00001FFFFFFF4000000001DF700000
00000FA8FFFFE3000000009F300000
00000D90AFFFFE200000007F100000
00000C901CFFFFD10000006F000000
00000C9002EFFFFC1000006E000000
00000B80006FFFFFB000005D000000
00000A80000AFFFFFA00006D000000
00000A800001DFFFFF80007C000000
00000A8000003FFFFFF7008B000000
00000A80000007FFFFFF60AB000000
00000A80000000BFFFFFF9EA000000
000009800000001DFFFFFFFA000000
0000099000000004FFFFFFFA000000
00000990000000007FFFFFF9000000
00000990000000000AFFFFF9000000
000009900000000001DFFFF9000000
0000099000000000002EFFF8000000
00000990000000000004FFF8000000
000009900000000000007FF7000000
0000099000000000000009F6000000
000009900000000000000094000000
00000A900000000000000000000000
00000AA00000000000000000000000
00000CB00000000000000000000000
00000ED00000000000000000000000
00002FF00000000000000000000000
00009FF50000000000000000000000
003AFFFE2000000000000000000000
7FEDDEFFD500000000000000000000
00000026AEE3000000000000000000
000000000020000000000000000000
ENDCHAR
STARTCHAR O
ENCODING 79
SWIDTH 747 0
DWIDTH 27 0
BBX 27 27 0 1
BITMAP
0000000048CDFEDC841000000000
0000005DF931126BFFE710000000
00001BFD300000005EFFE5000000
0002DFE20000000003EFFF700000
001DFF6000000000005FFFF70000
00AFFD0000000000000BFFFF4000
03FFF700000000000003FFFFD000
0AFFF300000000000000CFFFF600
1FFFF0000000000000007FFFFC00
5FFFC0000000000000003FFFFF20
9FFFB0000000000000000FFFFF60
AFFFA0000000000000000CFFFF80
CFFFA0000000000000000AFFFF90
CFFFB00000000000000009FFFFA0
BFFFC00000000000000008FFFF90
AFFFE00000000000000008FFFF80
8FFFF20000000000000007FFFF60
4FFFF50000000000000008FFFF20
1FFFF8000000000000000AFFFD00
0AFFFD000000000000000DFFF700
03FFFF400000000000002FFFE100
00AFFFC00000000000007FFF6000
001DFFF6000000000001EFFA0000
0002DFFF40000000000AFFB10000
00001BFFF6000000009FF9000000
0000005DFFC621137DFC40000000
0000000048BDEFEDB73000000000
ENDCHAR
STARTCHAR P
ENCODING 80
SWIDTH 623 0
DWIDTH 22 0
BBX 23 31 0 -5
BITMAP
0000000000016ADFEC930000
0000000147BE7113BFFF8000
CFEDEEFFFFF800000CFFF600
00149FFFFFF2000004FFFE00
000004FFFFD0000000FFFF40
000000AFFFA0000000DFFF50
0000006FFF90000000CFFF60
0000004FFF90000000CFFF50
0000003FFF80000000DFFF30
0000002FFF80000001FFFE00
0000002FFF70000005FFF900
0000002FFF7000000BFFE100
0000002FFF7000006FFF4000
0000002FFF920029FFC30000
0000003FFFDCEFED94000000
0000004FFF70000000000000
0000004FFF80000000000000
0000005FFF80000000000000
0000006FFF80000000000000
0000007FFF80000000000000
0000008FFF80000000000000
0000009FFF90000000000000
000000AFFFA0000000000000
000000CFFFB0000000000000
000000DFFFD0000000000000
000000FFFFF1000000000000
000004FFFFF4000000000000
00000AFFFFFB000000000000
00005FFFFFFF800000000000
0039FFFFFFFFFC6200000000
1CC96321012469BED2000000
ENDCHAR
STARTCHAR Q
ENCODING 81
SWIDTH 804 0
DWIDTH 29 0
BBX 42 44 0 -16
BITMAP
00000000038BDEFECA620000000000000000000000
00000004CC620136CFFFA300000000000000000000
000001BF7000000004DFFF91000000000000000000
00002DF500000000001BFFFD200000000000000000
0002EF80000000000000BFFFD20000000000000000
001CFD100000000000001EFFFC0000000000000000
009FF70000000000000005FFFF7000000000000000
02FFF10000000000000000CFFFE100000000000000
09FFC000000000000000005FFFF700000000000000
0EFF9000000000000000001EFFFC00000000000000
4FFF7000000000000000000AFFFF10000000000000
7FFF60000000000000000007FFFF40000000000000
AFFF50000000000000000004FFFF50000000000000
CFFF50000000000000000002FFFF60000000000000
CFFF60000000000000000001FFFF60000000000000
CFFF80000000000000000000FFFF50000000000000
BFFFB0000000000000000000FFFF40000000000000
AFFFE0000000000000000001FFFF30000000000000
7FFFF3000000000000000002FFFE00000000000000
4FFFF700000000029DFD9304FFFB00000000000000
1EFFFD000000002EFFFFFF87FFF700000000000000
0AFFFF50000000CD4117EFFEFFF100000000000000
03FFFFC0000003F300004FFFFFA000000000000000
00AFFFF7000007C0000009FFFE2000000000000000
002EFFFF40000980000003FFF80000000000000000
0004FFFFE4000A6000000AFFFB0000000000000000
00005EFFFF810A5000019FFFFF2000000000000000
000003DFFFFE8B60137DFEBFFF9000000000000000
00000007DFFFFFFFFFFE914FFFE000000000000000
00000000049CEFEDC951001FFFF400000000000000
00000000000000000000000EFFF900000000000000
00000000000000000000000BFFFE00000000000000
000000000000000000000008FFFF40000000000000
000000000000000000000004FFFF90000000000000
000000000000000000000001FFFFE1000000000052
000000000000000000000000CFFFF6000000000093
0000000000000000000000007FFFFD0000000000D1
0000000000000000000000002FFFFF6000000003C0
0000000000000000000000000CFFFFE20000000A80
00000000000000000000000005FFFFFC1000006F20
00000000000000000000000000BFFFFFE62039F900
000000000000000000000000001DFFFFFFFFFFC100
0000000000000000000000000001BFFFFFFFFB1000
0000000000000000000000000000049DEFDA400000
ENDCHAR
STARTCHAR R
ENCODING 82
SWIDTH 869 0
DWIDTH 31 0
BBX 33 26 0 -1
BITMAP
000000000026ADFEC83000000000000000
000112469CFB202AFFF800000000000000
CFFFFFFFFFC00000AFFF70000000000000
015BFFFFFF4000002FFFF1000000000000
0000AFFFFE0000000DFFF6000000000000
00002FFFFC0000000BFFF9000000000000
00000CFFFB0000000BFFFA000000000000
000009FFFA0000000BFFF9000000000000
000006FFF90000000DFFF6000000000000
000004FFF80000002FFFF2000000000000
000002FFF80000009FFFA0000000000000
000000FFF8000004FFFE20000000000000
000000EFF800006FFFE400000000000000
000000CFF8137CFFF92000000000000000
000000BFFFFFFFFFF30000000000000000
000000AFF9001EFFF90000000000000000
0000009FFA000AFFFF2000000000000000
0000008FFA0003FFFFA000000000001800
0000007FFB0000BFFFF600000000000C10
0000007FFD00003FFFFF30000000000A50
0000006FFE000007FFFFE4000000000C50
0000007FFF100000BFFFFF800000004F30
000000AFFF4000001BFFFFFE841027ED00
000027FFFFB00000009FFFFFFFFFFFF500
0AFFEEDDFFFA10000004CFFFFFFFFF7000
000000000259B6000000038CEFED930000
ENDCHAR
STARTCHAR S
ENCODING 83
SWIDTH 517 0
DWIDTH 19 0
BBX 20 34 -1 -4
BITMAP
00000000000000000070
000000000000000001D0
0000000017BEFD9304B0
00000004EF93027ECD80
0000003EFA000004FF60
000000DFF30000009F40
000003FFF10000002F20
000007FFF20000000D10
000008FFF60000000A00
000007FFFD0000000200
000004FFFF8000000000
000001EFFFF400000000
0000008FFFFE20000000
0000001EFFFFD1000000
00000005FFFFFC100000
000000009FFFFFA00000
000000001CFFFFF80000
0000000002EFFFFF5000
00000000004FFFFFE200
000000000006FFFFFB00
000000000000AFFFFF50
1100000000001EFFFFD0
4A000000000005FFFFF4
1F200000000000CFFFF8
0C8000000000005FFFFB
08E100000000001FFFFC
05F600000000000CFFFC
02FD10000000000AFFFB
00FF700000000009FFF7
00EFF2000000000BFFF2
00DFFD100000001EFF80
00EFFFD20000009FFB00
00FA34AE94103AFF9100
029000027CEFEC820000
ENDCHAR
STARTCHAR T
ENCODING 84
SWIDTH 659 0
DWIDTH 24 0
BBX 25 37 0 -5
BITMAP
1DEDA8754321000001358BDF80
4FFFFFFEEEEEFFFFFFFFFFFFC0
3FFF931000003FFD00136DFFB0
1FFA000000003FFD000001DFA0
0DF5000000004FFD0000006F90
0AF4000000005FFD0000002F70
07F4000000006FFD0000000F40
03F6000000006FFD0000000E10
00E8000000007FFD0000000900
00AA000000008FFD0000000000
004E000000009FFD0000000000
000D300000009FFD0000000000
000660000000AFFD0000000000
000000000000BFFD0000000000
000000000000CFFD0000000000
000000000000CFFD0000000000
000000000000DFFD0000000000
000000000000EFFD0000000000
000000000000EFFD0000000000
000000000000FFFD0000000000
000000000001FFFD0000000000
000000000002FFFD0000000000
000000000002FFFD0000000000
000000000003FFFD0000000000
000000000004FFFD0000000000
000000000004FFFD0000000000
000000000005FFFE0000000000
000000000007FFFF0000000000
000000000008FFFF2000000000
00000000000CFFFF6000000000
00000000001FFFFFD100000000
00000000008FFFFFFC52100000
0000000003FFFFFFFEEFFE6000
000000002EFE96310000000000
00000005EB5000000000000000
0000009C400000000000000000
00000240000000000000000000
ENDCHAR
STARTCHAR U
ENCODING 85
SWIDTH 690 0
DWIDTH 25 0
BBX 27 28 0 2
BITMAP
0000000000000383000000000000
000000000016CF91000000000000
000000037BFFB200000000000000
02469BEFFFFA0000000000000000
CFFFFFFFFFE10000000000000000
015EFFFFFF700000000000000110
0003FFFFFF3001CEDCA999AA7640
0000DFFFFE00000138EFFFD10000
0000BFFFFC000000001CFF600000
00009FFFFA0000000002FF300000
00008FFFF80000000000DF100000
00007FFFF800000000009F000000
00007FFFF700000000008F000000
00007FFFF700000000006E000000
00006FFFF800000000005E000000
00005FFFF800000000005E000000
00004FFFF900000000005D000000
00002FFFFB00000000005C000000
00000FFFFD00000000006B000000
00000CFFFF100000000078000000
000009FFFF4000000000A6000000
000004FFFF8000000000E2000000
000000DFFFD000000005C0000000
0000006FFFF50000000D70000000
0000000BFFFE2000009E10000000
00000001CFFFD5114BF400000000
000000001AFFFFFFFE5000000000
000000000039DEED820000000000
ENDCHAR
STARTCHAR V
ENCODING 86
SWIDTH 798 0
DWIDTH 29 0
BBX 32 28 0 1
BITMAP
00000000000037630000000000000000
0000000147AE81000000000000000000
9FFEDEFFFFF800000000000000000000
00148EFFFFF800000000000000000077
000001CFFFFC00000000000000001AC1
0000001DFFFF2000000000000004DB10
00000004FFFF80000000000004BFB100
00000000AFFFE10000001369DFFC1000
000000002FFFF600002EFFFFFFE20000
0000000009FFFD000000002DFF500000
0000000002FFFF500000000AFA000000
0000000000AFFFD00000000CF2000000
00000000003FFFF60000001FA0000000
00000000000CFFFD0000004F30000000
000000000005FFFF6000009B00000000
000000000000EFFFE10000E400000000
0000000000008FFFF80005C000000000
0000000000002FFFFE200B6000000000
0000000000000AFFFFA03E0000000000
00000000000004FFFFF6B70000000000
00000000000000DFFFFFE10000000000
000000000000007FFFFF900000000000
000000000000001FFFFF300000000000
000000000000000AFFFC000000000000
0000000000000003FFF6000000000000
0000000000000000CFE0000000000000
00000000000000005F80000000000000
00000000000000000B20000000000000
ENDCHAR
STARTCHAR W
ENCODING 87
SWIDTH 1120 0
DWIDTH 40 0
BBX 46 31 -1 -3
BITMAP
000000000000000000000000000000001A610000000000
0000000000000000000000000000000004BFC864200000
000000000000000000000000000000000003BFFFFFFEFA
0000000000000000000000000000000000000CFFE62000
0000000000000000000000000000000000000AFE200000
0000000000560000000000000000000000000DF6000000
0000000008D10000000000000000000000002FC0000000
00000002CF400000000000000000000000007F50000000
0000029FFC00000000000000000000000000CD00000000
0014AFFFFA00000000000000000000000002F600000000
8CFFFFFFFC00000000000000000000000008E000000000
65338FFFFF1000000002D30000000000000D7000000000
000007FFFF500000000AFD1000000000005F1000000000
000000CFFFA00000003FFF900000000000B90000000000
0000006FFFE1000000CFFFF40000000002F30000000000
0000001EFFF6000005C5FFFD1000000008B00000000000
0000000AFFFC00000D40BFFF900000001E500000000000
00000005FFFF40007B005FFFF40000006D000000000000
00000001FFFFB001E3000DFFFD000000D6000000000000
00000000BFFFF309A00007FFFF800005E0000000000000
000000006FFFFC4F300001EFFFF3000D70000000000000
000000001FFFFFFA0000009FFFFD106E10000000000000
000000000AFFFFF30000002FFFFFA1E900000000000000
0000000005FFFFA00000000BFFFFFEF200000000000000
0000000001EFFF2000000004FFFFFFA000000000000000
00000000009FF90000000000CFFFFF3000000000000000
00000000003FE100000000005FFFFB0000000000000000
00000000000C8000000000000DFFF40000000000000000
00000000000100000000000006FFC00000000000000000
00000000000000000000000000DF400000000000000000
000000000000000000000000005A000000000000000000
ENDCHAR
STARTCHAR X
ENCODING 88
SWIDTH 868 0
DWIDTH 31 0
BBX 32 29 0 -1
BITMAP
00000000000001583000000000000000
00000012357ADFF91000000000000000
CFEEFFFFFFFFFF900000000000000000
01136AFFFFFFFF700000085000000000
0000001AFFFFFF900000018C50000000
000000006FFFFFE000000006FEB74200
0000000007FFFFF500000003FB302200
00000000009FFFFC00000007C1000000
00000000000CFFFF6000000D30000000
000000000002EFFFD100007700000000
0000000000006FFFF80002B000000000
0000000000000CFFFF300B3000000000
00000000000003FFFFD2990000000000
00000000000000AFFFFFF20000000000
000000000000004FFFFFB00000000000
000000000000003FFFFFE10000000000
000000000000009FDFFFF60000000000
00000000000004F61CFFFD0000000000
0000000000001D8003FFFF7000000000
000000000000BB00007FFFE100000000
000000000008E200000CFFF900000000
00000000005F60000003FFFF30000000
0000000004EC000000009FFFC0000000
000000007FF4000000001EFFF7000000
0001248DFFE00000000006FFFE300000
0AFFFFFFFFF00000000000DFFFD20000
00011358DFF90000000124DFFFFE5000
00000000039EB0000DFEEDDDEFFFFC61
00000000000030000000000000246896
ENDCHAR
STARTCHAR Y
ENCODING 89
SWIDTH 796 0
DWIDTH 29 0
BBX 32 36 0 -5
BITMAP
00000000004980000000000000000000
00012358BEC500000000005200000000
7FFFFFFFF90000000000009FC8531000
015BFFFFF600000000000002DFFFFFFB
00006FFFFD10000000000000AF820000
000005FFFF90000000000003F5000000
0000007FFFF600000000000C60000000
00000009FFFF40000000007900000000
00000000BFFFE200000004D100000000
000000001EFFFD1000002D3000000000
0000000004FFFFC10000C70000000000
00000000007FFFFC100AB00000000000
00000000000BFFFFD5AE200000000000
000000000002EFFFFFF6000000000000
0000000000006FFFFFC0000000000000
0000000000000CFFFF60000000000000
00000000000004FFFF20000000000000
00000000000000DFFF10000000000000
00000000000000AFFF10000000000000
000000000000008FFF10000000000000
000000000000008FFF10000000000000
000000000000008FFF20000000000000
000000000000008FFF20000000000000
000000000000009FFF30000000000000
000000000000009FFF30000000000000
00000000000000BFFF40000000000000
00000000000000CFFF50000000000000
00000000000000DFFF60000000000000
00000000000000FFFF70000000000000
00000000000002FFFF80000000000000
00000000000005FFFFA0000000000000
0000000000000BFFFFC0000000000000
000000000014BFFFFFF2000000000000
000000006EFFFFFFFFFB000000000000
000000000000001369CFC40000000000
00000000000000000001570000000000
ENDCHAR
STARTCHAR Z
ENCODING 90
SWIDTH 627 0
DWIDTH 23 0
BBX 23 31 1 -5
BITMAP
0B3000000000000000000000
0EFC8421001247AD20000000
0DFFFFFFFFFFFFFD00000000
0DFE720029FFFFF800000000
0DE2000009FFFFF300000000
0E8000000CFFFFD000000000
0F2000001FFFFF7000000000
1E0000005FFFFF2000000000
2B0000008FFFFB0000000000
3A000000CFFFF50000000000
27000001FFFFE10000000000
00000005FFFF900000000000
00000009FFFF300000000000
0000000DFFFD000000000000
0000002FFFF7000000000000
0000006FFFF2000000000000
000000AFFFB0000000070000
000000EFFF600000000C0000
000004FFFF100000000E1000
000008FFFA000000000D4000
00000CFFF5000000000C8000
00002FFFE1000000000DC000
00006FFFA0000000000EF100
0000BFFF50000000003FF500
0001FFFE00000000009FF900
0006FFFA0000000005FFFD00
000AFFF5000000018FFFFF20
000EFFF1000137BFFFFFFF60
004FFFF88ACB864210124630
007FFFC95200000000000000
004741000000000000000000
ENDCHAR
STARTCHAR bracketleft
ENCODING 91
SWIDTH 344 0
DWIDTH 12 0
BBX 12 36 0 -7
BITMAP
0004EEB84100
000BFFFFFFC6
000FFFC20244
002FFF600000
005FFF100000
007FFD000000
009FFB000000
00BFF9000000
00DFF8000000
00FFF6000000
01FFF5000000
03FFF4000000
05FFF3000000
06FFF2000000
08FFF1000000
0AFFF1000000
0BFFF0000000
0DFFE0000000
0EFFE0000000
0FFFD0000000
1FFFD0000000
2FFFC0000000
3FFFC0000000
4FFFB0000000
5FFFB0000000
6FFFB0000000
7FFFB0000000
8FFFB0000000
8FFFB0000000
9FFFB0000000
9FFFC0000000
9FFFD0000000
8FFFF0000000
7FFFF4000000
3FFFFD400000
028BDEFFEED4
ENDCHAR
STARTCHAR backslash
ENCODING 92
SWIDTH 347 0
DWIDTH 13 0
BBX 13 40 0 -5
BITMAP
10000000000000
86000000000000
7D000000000000
3F300000000000
0E700000000000
0AC00000000000
06F10000000000
01F50000000000
00C90000000000
008D0000000000
004F2000000000
000E6000000000
000AA000000000
0006E000000000
0002F400000000
0000D800000000
00009C00000000
00005F10000000
00001F50000000
00000CA0000000
000008E0000000
000004F4000000
000000E8000000
000000AC000000
0000006F200000
0000002F600000
0000000DB00000
00000008F10000
00000004F50000
00000000E90000
00000000AE0000
000000006F3000
000000001F7000
000000000CB000
0000000007F100
0000000003F400
0000000000D800
00000000008C00
00000000003F00
00000000000910
ENDCHAR
STARTCHAR bracketright
ENCODING 93
SWIDTH 334 0
DWIDTH 12 0
BBX 12 34 0 -9
BITMAP
00000159B200
028BDFFFF600
025207FFF800
000004FFFA00
000003FFFB00
000002FFFD00
000001FFFE00
000000FFFF10
000000FFFF20
000000EFFF40
000000DFFF50
000000DFFF60
000000CFFF80
000000BFFF90
000000BFFFB0
000000AFFFC0
000000AFFFD0
0000009FFFE0
0000009FFFF1
0000008FFFF2
0000008FFFF3
0000007FFFF5
0000007FFFF6
0000007FFFF7
0000008FFFF8
0000008FFFF9
0000009FFFFA
000000CFFFFA
000001FFFFE4
000009FFD710
0001AFC50000
006EC5000000
4DD500000000
440000000000
ENDCHAR
STARTCHAR asciicircum
ENCODING 94
SWIDTH 658 0
DWIDTH 24 0
BBX 21 9 1 19
BITMAP
0000000008A00000000000
000000005FF70000000000
00000004FFFF4000000000
0000004EFFFFE300000000
000007FFFFFFFE40000000
0002BFFB417EFFF6000000
018FF93000019FFFB20000
1DB710000000028EFF9200
000000000000000059DF80
ENDCHAR
STARTCHAR underscore
ENCODING 95
SWIDTH 678 0
DWIDTH 24 0
BBX 22 3 1 -11
BITMAP
0000000134678ABCDEEFE5
0269BDFFFFFFFFFFFFFFE5
1DEDCB9876543222111000
ENDCHAR
STARTCHAR grave
ENCODING 96
SWIDTH 278 0
DWIDTH 10 0
BBX 8 7 1 27
BITMAP
1DD30000
1FFE3000
07FFD100
008FF900
0008FF40
00007FD0
000004D2
ENDCHAR
STARTCHAR a
ENCODING 97
SWIDTH 527 0
DWIDTH 19 0
BBX 21 26 0 -4
BITMAP
000019DFEB500000000000
0002D7117FFA0000000000
000C800007FF9000000000
004F400001EFF300000000
008F700000BFF900000000
00AFF700009FFE00000000
009FFFB0007FFF30000000
007FFFF5005FFF60000000
001EFFF6003FFF90000000
0003CEA0001FFFC0000000
00000000000FFFE0000000
00000000000EFFF2000000
00005ADEFECEFFF4000000
003DFC52014CFFF7000000
03EFB0000008FFF9000000
0CFF30000006FFFC000000
3FFF00000005FFFE000000
6FFF00000003FFFF200000
6FFF5000001BFFFF400000
4FFFE61028EDDFFF600300
0EFFFFFFFFE2BFFF900B20
04EFFFFFFC207FFFE00B30
0029DFEB60002FFFF71E20
0000000000000BFFFFFD00
00000000000003EFFFF800
000000000000003BEE8000
ENDCHAR
STARTCHAR b
ENCODING 98
SWIDTH 582 0
DWIDTH 21 0
BBX 24 41 -3 0
BITMAP
000000046000000000000000
0000000A7000000000000000
0000002F8000000000000000
000000BF8000000000000000
00002BFF9000000000000000
025AFFFFA000000000000000
BFFFFFFFA000000000000000
11017FFFB000000000000000
00000CFFB000000000000000
000008FFB000000000000000
000007FFC000000000000000
000006FFD000000000000000
000005FFD000000000000000
000004FFE000000000000000
000003FFF000000000000000
000002FFF000000000000000
000002FFF100000000000000
000001FFF200000000000000
000000FFF300000000000000
000000FFF400000000000000
000000EFF400000000000000
000000EFF500000000000000
000000DFF600000000000000
000000DFF70016BEFEA50000
000000CFF804EFFFFFFFB100
000000BFF96E72128FFFFC00
000000BFFEC2000005FFFF70
000000AFFE10000000AFFFD0
000000AFFE000000004FFFF3
0000009FFF000000001FFFF5
0000009FFF200000000EFFF5
0000008FFF300000000DFFF5
0000008FFF500000000EFFF3
0000007FFF700000000FFFE0
0000007FFFA00000003FFF90
0000007FFFE00000009FFF20
0000007FFFF7000004FFF600
000000AFFFFF72027FFE4000
000003FFFFFFFFFFEB610000
00017EFEA754322100000000
002EC7300000000000000000
ENDCHAR
STARTCHAR c
ENCODING 99
SWIDTH 437 0
DWIDTH 16 0
BBX 16 20 0 2
BITMAP
0000016BEFEA3000
00004A317FFFF600
0005D1000EFFFF10
003F50000CFFFF50
00CE00000AFFFF50
05FB000006FFFE10
0BF80000009ED500
1FF7000000000000
4FF7000000000000
5FF8000000006900
7FFA000000000C60
6FFD0000000006D0
5FFF2000000003F2
2FFF8000000003F2
0DFFE200000007F1
07FFFD2000002ED0
01DFFFE72115EF70
004EFFFFFFFFFC10
0004DFFFFFFFC200
000017CEFEB50000
ENDCHAR
STARTCHAR d
ENCODING 100
SWIDTH 523 0
DWIDTH 19 0
BBX 20 34 0 2
BITMAP
00000000000000094000
00000000000002CF5000
0000000000018FFF4000
00000000028EFFFF4000
000000004D95FFFF4000
000000000000CFFF4000
000000000000CFFF3000
000000000000BFFF3000
000000000000AFFF3000
000000000000AFFF3000
0000000000009FFF2000
0000000000009FFF2000
0000000000008FFF1000
0000000000008FFF1000
0000000000008FFF1000
0000000000007FFF0000
0000000000007FFF0000
0000000000007FFF0000
0000000000006FFE0000
0000000000006FFE0000
000039DEFEC89FFE0000
001BFFE72024BFFD0000
01DFFE2000005FFD0000
09FFF60000005FFD0000
2FFFF10000005FFD0000
6FFFC00000004FFC0000
8FFFB00000004FFC0000
8FFFB00000004FFC0000
6FFFD00000004FFC0000
3FFFF10000004FFC0000
0CFFF70000006FFC0000
03EFFE200000BFFF2000
004DFFE62029FFFFC400
00016BDFFEDCA9899BB5
ENDCHAR
STARTCHAR e
ENCODING 101
SWIDTH 434 0
DWIDTH 16 0
BBX 16 20 0 1
BITMAP
0000006BEFDA4000
00003DF9217FF800
0005FF90000AFF50
003FFE100004FFC0
00DFF9000002FFF0
06FFF4000002FFF1
0CFFF1000004FFF0
1FFFE0000007FFB0
4FFFC000000DFF50
5FFFB000009FFA00
6FFFC3003AFF8000
5FFFECEFEC820940
4FFFD000000006B0
1FFFF100000003E0
0CFFF600000004F0
06FFFD00000006E0
00CFFF9000000DA0
003EFFFC4103CF30
0002CFFFFFFFF600
000005ADEFD92000
ENDCHAR
STARTCHAR f
ENCODING 102
SWIDTH 299 0
DWIDTH 11 0
BBX 19 46 -2 -6
BITMAP
000000000005CEEC6000
0000000000AB3029FA00
0000000008C00000BF50
000000003F3000009FB0
00000000AB000000DFE0
00000001F700002BFFF0
00000007F4002AFFFFE0
0000000BF100DFFFFFA0
0000000EE003FFFFFF40
0000003FC001EFFFFA00
0000006FB0004CFD7000
0000008FB00000000000
000000BFB00000000000
000000DFB00000000000
000001FFD00000000000
000006FFF60147800000
00004EFFFFEC97300000
6ACEFFFFF80000000000
23101BFFF10000000000
000007FFF00000000000
000007FFF10000000000
000006FFF10000000000
000006FFF20000000000
000006FFF20000000000
000006FFF20000000000
000005FFF30000000000
000005FFF30000000000
000005FFF40000000000
000005FFF40000000000
000005FFF50000000000
000005FFF50000000000
000005FFF60000000000
000005FFF60000000000
000005FFF70000000000
000005FFF70000000000
000005FFF80000000000
000004FFF80000000000
000004FFF90000000000
000004FFFA0000000000
000005FFFB0000000000
000005FFFC0000000000
000005FFFF1000000000
000008FFFFC520000000
00001DFFFFFFFE400000
0002BD95200000000000
008A4000000000000000
ENDCHAR
STARTCHAR g
ENCODING 103
SWIDTH 567 0
DWIDTH 20 0
BBX 23 35 -1 -14
BITMAP
0000000000000002ADED8100
000000000000005714FFFB00
000000000000039002FFFF40
0000017CEFECBE4004FFFF50
00005EFFC303BFD303FFFF20
0005FFFE10001DFE308ED600
001EFFF7000008FFC0000000
005FFFF3000004FFF3000000
009FFFF0000003FFF6000000
00AFFFE0000003FFF7000000
00AFFFE0000004FFF6000000
007FFFF1000007FFF2000000
002FFFF400000CFFC0000000
0007FFFB00004FFE30000000
00006FFFA216EFD300000000
0000019FFFEDA60000000000
00001BF92000000000000000
0000AFB00000000000000000
0000BFB00000000000000000
00003EFB5100000000000000
0000016DFFECA74000000000
000005DF7136AFFEA3000000
0002BFF5000002AFFF700000
002DFF7000000009FFF60000
01DFFD0000000001DFFE0000
08FFF600000000008FFF3000
1FFFF300000000004FFF5000
4FFFF100000000002FFF4000
6FFFF200000000003FFF1000
5FFFF400000000005FFA0000
2FFFF900000000009FE20000
0BFFFE2000000003FE400000
02EFFFD20000002DD3000000
002BFFFE720138D700000000
000049CEFEEB950000000000
ENDCHAR
STARTCHAR h
ENCODING 104
SWIDTH 566 0
DWIDTH 20 0
BBX 23 39 -2 0
BITMAP
000000000960000000000000
000000008F50000000000000
00000019FF30000000000000
000005DFFF10000000000000
0027DFFFFE00000000000000
06ECACFFFC00000000000000
000000AFFB00000000000000
0000005FF900000000000000
0000004FF800000000000000
0000004FF700000000000000
0000005FF600000000000000
0000005FF400000000000000
0000006FF400000000000000
0000007FF300000000000000
0000008FF200000000000000
0000009FF100000000000000
000000AFF000000000000000
000000BFE000000000000000
000000CFE000000000000000
000000DFD000000000000000
000000EFC000000000000000
000000FFB000000000000000
000001FFB003BEEC60000000
000003FFA06FFFFFFA000000
000004FFA4E513DFFF600000
000005FFAD50003FFFD00000
000006FFEC00000DFFF10000
000007FFF700000AFFF30000
000009FFF2000009FFF50000
00000AFFE0000008FFF50000
00000CFFB0000008FFF60000
00000DFF80000008FFF50000
00000FFF60000008FFF50000
00002FFF50000009FFF50000
00005FFF4000000AFFF50000
0000AFFF3000000BFFF60000
0016FFFF4000000EFFFC2000
3FFFFFFFC30002AFDBBCEE40
02210247BEA0175100000000
ENDCHAR
STARTCHAR i
ENCODING 105
SWIDTH 301 0
DWIDTH 11 0
BBX 11 25 0 3
BITMAP
0001AEC30000
0006FFFB0000
0006FFFB0000
0001BFC30000
000000000000
000000083000
000003BF2000
0136BFFF1000
5FFFFFFE0000
014EFFFC0000
0009FFFA0000
0007FFF90000
0006FFF70000
0006FFF60000
0006FFF50000
0006FFF30000
0006FFF20000
0006FFF10000
0006FFF00000
0007FFE00000
0007FFD00000
0008FFD00000
000AFFE00000
015FFFFA3000
3EECCCDEFE30
ENDCHAR
STARTCHAR j
ENCODING 106
SWIDTH 367 0
DWIDTH 13 0
BBX 17 41 -4 -18
BITMAP
0000000001BEB10000
0000000008FFF80000
0000000009FFF70000
0000000002CEB10000
000000000000000000
000000000000000000
0000032100147A7000
0000059DFFFFFFE000
000000005EFFFFF300
0000000003FFFFF600
00000000008FFFF800
00000000001EFFFB00
000000000009FFFD00
000000000005FFFE00
000000000001FFFF10
000000000000CFFF20
0000000000009FFF40
0000000000006FFF50
0000000000004FFF50
0000000000002FFF60
0000000000000FFF60
0000000000000DFF70
0000000000000CFF70
0000000000000BFF60
0000000000000AFF60
0000000000000AFF50
0000000000000AFF40
0000000000000AFF20
004BED7000000BFF10
06FFFFF600000BFD00
2FFFFFFA00000DFB00
9FFFFFF900000EF700
DFFFFFE200002FF300
FFFFB71000005FD000
FFB2000000009F8000
EF2000000000EF2000
BE0000000006F80000
5F200000001ED10000
0CB0000001CE200000
01CC51137EC2000000
0006BEFEA500000000
ENDCHAR
STARTCHAR k
ENCODING 107
SWIDTH 567 0
DWIDTH 20 0
BBX 24 41 -3 -5
BITMAP
000000007800000000000000
00000008F900000000000000
000004CFF900000000000000
0159DFFFF800000000000000
5FEDDFFFF800000000000000
000004FFF800000000000000
000000AFF800000000000000
0000007FF900000000000000
0000006FF900000000000000
0000005FFA00000000000000
0000004FFA00000000000000
0000004FFB00000000000000
0000003FFB00000000000000
0000003FFB00000000000000
0000003FFC00000000000000
0000002FFC00000000000000
0000002FFD00460000000000
0000002FFE003BE953100000
0000001FFE00005FFFFF9000
0000001FFF00002FD6200000
0000001FFF00009B10000000
0000001FFF1007B000000000
0000000FFF205D1000000000
0000000FFF35FB0000000000
0000000FFF8FFF1000000000
0000000EFFEEFF5000000000
0000000EFF79FFA000008200
0000000EFF74FFF200001C10
0000000EFF80EFF900000590
0000000EFF908FFF300002E0
0000000DFFA02FFFD20004F1
0000000DFFB007FFFD512CF0
0000000DFFC000BFFFFFFFB0
0000000DFFE0001BFFFFFF40
0000000DFFF000005BEEC400
0000000DFFF1000000000000
0000000FFFF4000000000000
0000004FFFF8000000000000
000000CFFFFE400000000000
00468CEDDDDDEEFE30000000
001210000000000000000000
ENDCHAR
STARTCHAR l
ENCODING 108
SWIDTH 354 0
DWIDTH 13 0
BBX 15 34 -2 0
BITMAP
0000000019000000
000000009C000000
00000006FC000000
0000004FFC000000
000004EFFC000000
00007FFFFC000000
002BFFFFFC000000
18FFCFFFFD000000
AC6108FFFD000000
000004FFFE000000
000002FFFE000000
000001FFFF000000
000000EFFF100000
000000CFFF100000
000000BFFF200000
0000009FFF300000
0000007FFF300000
0000006FFF400000
0000005FFF500000
0000003FFF600000
0000002FFF700000
0000000FFF700000
0000000EFF800000
0000000DFF900000
0000000BFFA00000
0000000AFFB00000
00000009FFC00000
00000008FFD00000
00000006FFE00000
00000005FFF10000
00000006FFF60000
0000013CFFFE7100
0000CFFFFFFFFF70
0000343210112310
ENDCHAR
STARTCHAR m
ENCODING 109
SWIDTH 708 0
DWIDTH 25 0
BBX 25 16 0 3
BITMAP
00000280000000000000000000
00017EE0000000000000000000
17BFFFF205CFD60018DFE70000
278EFFF38FFFFF71CFFFFF7000
0006FFFAB22DFFEA504FFFE000
0001FFFE1006FFF8000AFFF100
0000DFFB0003FFF30007FFF300
0000AFF80003FFF00007FFF200
00008FF70003FFE00007FFF100
00007FF60005FFE00009FFF000
00006FF7001CFFF3000CFFE000
00006FF803EFFFFD304FFFD000
0001CFFD0010125846FFFFD000
05CFFFFFC62000000049EFF100
0122101246300000000018FA00
00000000000000000000003BB0
ENDCHAR
STARTCHAR n
ENCODING 110
SWIDTH 584 0
DWIDTH 21 0
BBX 21 24 0 -1
BITMAP
0000011000000000000000
00000B7000000000000000
00007FA000000000000000
0005FFC000018DFD810000
005FFFE0002DFFFFFC1000
2AFFFFF100CFFFFFFF8000
651AFFF308B204EFFFE000
0004FFF51C00003FFFF300
0000FFF78400000BFFF600
0000CFF9C0000008FFF600
00008FFDA0000005FFF600
00004FFF80000004FFF500
00001FFF60000003FFF400
00000DFF50000003FFF200
00000AFF40000004FFF000
000008FF40000004FFD000
000005FF50000006FFC000
000003FF60000007FFA000
000002FF9000000AFF9000
000001FFC000015FFF8000
000004FFF404FFFFFF9000
002DEFFFFF800259DFE100
000321012451000005DD20
00000000000000000018D0
ENDCHAR
STARTCHAR o
ENCODING 111
SWIDTH 503 0
DWIDTH 18 0
BBX 18 17 0 3
BITMAP
0000039CEFDB600000
0001BFF7115EFD4000
002DFF600003FFF400
00CFFD0000008FFE20
05FFF80000001FFF90
0BFFF60000000CFFE0
1FFFF500000008FFF3
2FFFF400000006FFF5
3FFFF500000005FFF5
3FFFF600000004FFF4
1FFFF900000004FFF3
0CFFFC00000005FFD0
06FFFF20000007FF80
00CFFF9000000CFD10
001DFFF300003FE300
0001AFFE6115ED3000
0000039CEFDA500000
ENDCHAR
STARTCHAR p
ENCODING 112
SWIDTH 509 0
DWIDTH 18 0
BBX 18 33 0 -14
BITMAP
000000580000000000
000005F80000000000
00007FF8028DFD9200
016DFFF84EFFFFFE30
0C87FFFBE6129FFFD0
0000BFFF70000BFFF5
00009FFE100005FFF9
00008FFA000002FFFB
00008FF7000001FFFC
00008FF6000000FFFB
00008FF5000001FFF9
00009FF5000002FFF5
00009FF7000005FFE1
00009FFA00000AFF70
00009FFE20002FFC00
0000AFFFC304DFC100
0000AFFD6CFEC60000
0000BFFC0000000000
0000BFFC0000000000
0000BFFC0000000000
0000CFFC0000000000
0000CFFC0000000000
0000DFFC0000000000
0000DFFD0000000000
0000EFFD0000000000
0000EFFE0000000000
0000FFFF0000000000
0001FFFF2000000000
0002FFFF3000000000
0006FFFF7000000000
001DFFFFD100000000
29DEEFFFFD50000000
0000002479C7000000
ENDCHAR
STARTCHAR q
ENCODING 113
SWIDTH 505 0
DWIDTH 18 0
BBX 19 35 0 -16
BITMAP
00000000000011012200
000000000004FFFD8200
00029DFEC826FFE10000
006FFF8213BCFFB00000
05FFF700000CFFA00000
0DFFE0000008FFA00000
4FFFB0000007FF900000
6FFF90000007FF900000
6FFFA0000008FF900000
5FFFC0000008FF900000
1EFFF1000009FF900000
08FFF900000DFF900000
00AFFF93128DFF900000
0004BEFEB60BFF900000
00000000000BFF900000
00000000000BFF900000
00000000000BFF900000
00000000000CFF900000
00000000000CFF900000
00000000000CFF900000
00000000000CFF900000
00000000000DFF900000
00000000000DFF900000
00000000000DFF900000
00000000000DFF900000
00000000000EFF900000
00000000000EFF900000
00000000000FFF900000
00000000000FFF900000
00000000001FFFA00000
00000000007FFFB00000
0000008FFFFFFFE10000
000000001247BFFD4000
000000000000016BFD20
00000000000000001300
ENDCHAR
STARTCHAR r
ENCODING 114
SWIDTH 414 0
DWIDTH 15 0
BBX 18 25 0 0
BITMAP
000000000019EEC400
0000000002C6118F40
000003900C40002FC0
00002DA06A0002AFF0
0137EFA0C2007FFFF1
2FFFFFC3C000FFFFD0
001AFFF88000FFFF70
0004FFFF60006DE800
0002FFFF4000000000
0001FFFF2000000000
0000FFFF1000000000
0000DFFF1000000000
0000CFFF2000000000
0000BFFF2000000000
00009FFF4000000000
00008FFF5000000000
00007FFF7000000000
00006FFF9000000000
00005FFFB000000000
00004FFFD000000000
00003FFFF100000000
00002FFFF400000000
00005FFFFA10000000
0016EFFFFFFF600000
07EC96422110000000
ENDCHAR
STARTCHAR s
ENCODING 115
SWIDTH 482 0
DWIDTH 17 0
BBX 19 28 -1 -4
BITMAP
00000000000000001000
00000000000000077000
000000005BEFEA6D5000
0000000AFC3129FF2000
0000009FE10000BE0000
000001FFA000006C0000
000004FFB000005A0000
000005FFF10000590000
000003FFFA0000240000
000000CFFF7000000000
0000004FFFF700000000
00000008FFFF80000000
00000000BFFFF9000000
000000001CFFFFA00000
0000000001DFFFF90000
00000000002EFFFF6000
000000000004FFFFF200
000000A200006FFFFA00
000005E000000BFFFF10
00000D80000003FFFF40
00007F30000000CFFF50
0003FF100000009FFF50
001DFF000000008FFF30
01CFFF20000000AFFE00
1CA5AF70000001EFF700
550009E2000009FFC000
0000008E6103AFFB1000
000000038CEFEA500000
ENDCHAR
STARTCHAR t
ENCODING 116
SWIDTH 434 0
DWIDTH 16 0
BBX 16 28 0 -1
BITMAP
000000001C700000
000000006F900000
00000000CF600000
00000002FF200000
00000009FE000000
0000003FFB000000
000002DFFA000000
00027EFFFFCEF400
5BDFFFFFFC510000
0110BFFFC0000000
0000DFFF40000000
0001FFFE00000000
0005FFFA00000000
0009FFF600000000
000CFFF300000000
000EFFF000000000
002FFFD000000000
004FFFB000000000
005FFFA000000000
005FFF9000000000
005FFF900000AE80
003FFFA00003FFF2
001FFFC00001EFF4
000BFFF100004FF2
0005FFF600000AD0
0000AFFD10000C60
00001AFFD4128800
0000005ADFEA4000
ENDCHAR
STARTCHAR u
ENCODING 117
SWIDTH 744 0
DWIDTH 27 0
BBX 27 19 0 1
BITMAP
00000057000000000019A0000000
000003EB0000001259EFC0000000
00006FFD00000CEDEFFFD0000000
015CFFFF000000001CFFE0000000
4DA8DFFF3000000005FFF0000000
00004FFF5000000002FFF1000000
00000EFF8000000002FFF3000000
00000CFFB000000002FFF4000000
00000AFFD000000002FFF5000000
000008FFF100000004FFF7000000
000006FFF500000005EFF9000000
000004FFF9000000089FFB000000
000001FFFD0000000C4FFD000000
000000CFFF5000003C1FFF500000
0000008FFFD10000B70DFFFCCE90
0000002FFFFC312AE107DA864200
00000009FFFFFFFF700000000000
00000000BFFFFFF9000000000000
0000000007CFEB50000000000000
ENDCHAR
STARTCHAR v
ENCODING 118
SWIDTH 600 0
DWIDTH 22 0
BBX 22 22 0 -1
BITMAP
000000029C000000000000
0000028ED1000000000000
0004AFFF90000000000000
38DFFFFFB0000000000000
6403EFFFF1000000000231
00007FFFF50002EEDDEEA2
00001EFFFA000001BF8000
000007FFFE0000009E0000
000001EFFF500000B90000
0000009FFFB00000E40000
0000002FFFF10002E00000
0000000AFFF70006900000
00000003FFFD000A500000
00000000BFFF400E100000
000000004FFFA04A000000
000000000CFFF286000000
0000000005FFFBD1000000
0000000000DFFFB0000000
00000000006FFF50000000
00000000000DFE10000000
000000000005F900000000
000000000000A200000000
ENDCHAR
STARTCHAR w
ENCODING 119
SWIDTH 745 0
DWIDTH 27 0
BBX 27 20 0 -1
BITMAP
0000000013000000000000000000
00000007C4000000000000258DA0
000016DF200000000001ABFFA500
026AEFFE00000059000001FA0000
9DDFFFFF100000CF200003F30000
000AFFFF400003FF900005E00000
0004FFFF800008FFF20008A00000
0000EFFFC0000EFFF9000C600000
00009FFFF1005CFFFF200F200000
00004FFFF400A3BFFF903D000000
00000EFFF901C04FFFF279000000
00000AFFFD07700BFFFBC5000000
000005FFFF3D2003FFFFF1000000
000000EFFFCB0000AFFFB0000000
000000AFFFF600002EFF50000000
0000004FFFE1000006FE10000000
0000000EFF90000000A700000000
00000008FF300000000000000000
00000002FC000000000000000000
0000000094000000000000000000
ENDCHAR
STARTCHAR x
ENCODING 120
SWIDTH 548 0
DWIDTH 20 0
BBX 22 22 -1 0
BITMAP
00000000015AC000000000
00000247BEE50000000000
1EEFFFFFFF700000000000
0015CFFFFF700753100010
00000BFFFFA0059FFFFDB2
000001DFFFE1000BF71000
0000006FFFF6003F400000
0000000DFFFC02E7000000
00000005FFFF6CA0000000
00000000DFFFFE10000000
000000005FFFF700000000
000000000DFFF700000000
0000000006FFFB00000000
0000000001FFFF10000000
0000000006FFFF60000000
000000002EFFFFC0000000
00000001DB1DFFF3000000
0000002DB005FFFA000000
000038EF5000EFFF930000
001EC97771009FFFFFEA00
000000000026C831000000
0000000006D71000000000
ENDCHAR
STARTCHAR y
ENCODING 121
SWIDTH 659 0
DWIDTH 24 0
BBX 24 36 0 -16
BITMAP
000000002A90000000000000
00000019FA10000000000000
000029EF7000000000002594
026BFFFC000009EDDDEFFF80
5EEFFFF700000027EFFFFB00
002FFFF6000000006FFFF700
000EFFF6000000001FFFF600
000BFFF7000000000EFFF500
0008FFF8000000000DFFF400
0005FFFA000000000DFFF300
0002FFFC000000000EFFF200
0000EFFE000000000FFFF000
0000AFFF300000002FFFE000
00006FFF700000006FFFC000
00001FFFD0000000AFFFB000
00000AFFF5000001DBFF9000
000003FFFD1000097AFF7000
0000008FFFD5128C0BFF4000
00000009FFFFFFC20BFF2000
000000005BEEC7100CFE0000
00000000000000000DFB0000
00000000000000000FF80000
00000000000000001FF40000
00000000000000003FE00000
00000000000000005FB00000
00000000000000008F700000
0000018DEB300000BF200000
00000BFFFFE10000EC000000
00005FFFFFF50005F6000000
0000B73FFFF3000BE1000000
0000D105DE80002F70000000
0000D000000000AC00000000
0000C200000006E300000000
00007A0000005E5000000000
00000BB3014AD40000000000
0000007CFEC7100000000000
ENDCHAR
STARTCHAR z
ENCODING 122
SWIDTH 460 0
DWIDTH 17 0
BBX 17 20 0 0
BITMAP
0AEC96432100000000
0DFFDBABCDFFFF5000
0EF9000000BFFF2000
0FD0000003FFFA0000
0F7000000BFFF30000
1F2000004FFFB00000
3D000000CFFF400000
3A000005FFFB000000
4500000DFFF4000000
0000007FFFC0000000
000001EFFF50000000
000009FFFD00000000
00003FFFF600000070
0000CFFFE000000390
0006FFFF7000000690
001EFFFE1000000C80
009FFFF80000008F80
04FFFFF301358DFF70
0DFFFFFFFEEEEFFF40
2BB864210000000000
ENDCHAR
STARTCHAR braceleft
ENCODING 123
SWIDTH 460 0
DWIDTH 17 0
BBX 17 45 0 -11
BITMAP
0000000006CEEC7000
00000000BFA2138A00
00000008FE10000000
0000001EFB00000000
0000005FF900000000
0000008FFA00000000
0000009FFC00000000
0000009FFF10000000
0000009FFF40000000
0000007FFF70000000
0000005FFFA0000000
0000004FFFD0000000
0000002FFFF1000000
0000000FFFF3000000
0000000EFFF4000000
0000000FFFF3000000
0000002FFFF1000000
0000007FFFB0000000
000002EFFF30000000
00005EFFE400000000
048DFFFA2000000000
6FFFB7200000000000
028EB4000000000000
0002AFA10000000000
000009FD2000000000
000001EFC000000000
0000008FF600000000
0000004FFC00000000
0000002FFF20000000
0000001FFF40000000
0000002FFF70000000
0000002FFF80000000
0000003FFF90000000
0000004FFF90000000
0000005FFF90000000
0000006FFF90000000
0000007FFF90000000
0000007FFF90000000
0000007FFFA0000000
0000006FFFC0000610
0000004FFFE0000920
0000001FFFF5000D10
00000009FFFD318D00
00000001DFFFFFF500
0000000018CEFC5000
ENDCHAR
STARTCHAR bar
ENCODING 124
SWIDTH 368 0
DWIDTH 13 0
BBX 3 38 5 -7
BITMAP
6800
8A00
8A00
8B00
8B00
7B00
7C00
7C00
6C00
6D00
5D00
5E00
4E00
4E00
3F00
3F00
2F10
2F10
1F20
0F30
0F30
0E40
0D40
0D50
0C50
0C60
0B60
0A70
0A80
0980
0890
0890
07A0
06B0
06C0
05C0
04C0
01A0
ENDCHAR
STARTCHAR braceright
ENCODING 125
SWIDTH 476 0
DWIDTH 17 0
BBX 17 38 0 -9
BITMAP
0007CEED9200000000
02CFFFFFFE40000000
0CD414EFFFE1000000
6E20006FFFF8000000
8600001FFFFC000000
0000000DFFFF000000
0000000BFFFF100000
0000000AFFFF100000
00000008FFFF000000
00000006FFFF000000
00000003FFFE000000
00000001EFFF000000
000000009FFF100000
000000001DFF500000
0000000002CFE75650
0000000000049CFD30
0000000000002DC100
000000000001DF5000
000000000008FF3000
00000000000DFF3000
00000000000EFF6000
00000000000DFFA000
00000000000AFFE000
000000000007FFF400
000000000003FFF800
000000000000EFFC00
000000000000BFFF10
0000000000007FFF40
0000000000004FFF50
0000000000001FFF60
0000000000000FFF50
0000000000000EFF30
0000000000000EFD00
0000000000001FF700
0000000000005FC000
000000000003ED2000
0000000025AFA10000
0000000DEC83000000
ENDCHAR
STARTCHAR asciitilde
ENCODING 126
SWIDTH 733 0
DWIDTH 26 0
BBX 24 7 1 6
BITMAP
000000000000000000000068
000029DEDA500000000004F6
0006FFFFFFFD610000004EE1
005E5026CFFFFE942029FF60
02D2000005DFFFFFFFFFF900
0B4000000006DFFFFFFF9000
27000000000005AEFEA30000
ENDCHAR
STARTCHAR nonbreakingspace
ENCODING 160
SWIDTH 270 0
DWIDTH 10 0
BBX 1 1 0 0
BITMAP
00
ENDCHAR
STARTCHAR exclamdown
ENCODING 161
SWIDTH 247 0
DWIDTH 9 0
BBX 7 38 1 -4
BITMAP
05DE8000
1EFFF400
2FFFF700
0EFFF400
05DE7000
00000000
00000000
00000000
00000000
004C0000
006F2000
006F4000
007F7000
007F9000
007FB000
008FD000
009FE000
009FF100
00AFF200
00BFF400
00CFF500
00DFF600
00EFF800
01FFF900
02FFFA00
04FFFB00
06FFFC00
07FFFD00
09FFFE00
0AFFFF00
0CFFFF00
0DFFFF00
0EFFFF10
0FFFFF00
0EFFFE00
0DFFFB00
09FFF700
01BEA000
ENDCHAR
STARTCHAR cent
ENCODING 162
SWIDTH 799 0
DWIDTH 29 0
BBX 18 32 5 -8
BITMAP
000000A00000000000
000000A30000000000
000000760000000000
0000004A0000000000
0000001EAEFEB71000
000004DF93126ED300
00007FFB400004FE20
0006FF74800000DFB0
002EFD01C00001EFF2
00AFF700C10008FFF5
02FFF30094001EFFF6
08FFF00058004FFFF5
0CFFE0002C003FFFE1
0EFFD0000D1008ED40
1FFFE0000A40000000
2FFFF0000780000000
1FFFF30003C0000000
0EFFF70000E1000000
0AFFFD0000B4000029
05FFFF7000880000A7
00DFFFF5005C0008E1
004FFFFFA32F24BF70
0006FFFFFFFFFFFA00
00004DFFFFFFFF9000
0000005ADEFEE20000
000000000002F10000
000000000000E50000
0000000000009A0000
0000000000004E1000
0000000000000E5000
000000000000089000
000000000000013000
ENDCHAR
STARTCHAR sterling
ENCODING 163
SWIDTH 799 0
DWIDTH 29 0
BBX 20 33 5 -5
BITMAP
000000028CEEC8100000
0000008FA3116EE40000
00000AF8000007FE2000
00007FE0000007FFA000
0002FF9000001DFFE000
0008FF700000CFFFF200
000DFF700008FFFFF200
002FFF80000EFFFFF100
004FFFA0001FFFFFC000
005FFFE0000CFFFF4000
005FFFF20002BEC40000
004FFFF8000000000000
002FFFFD000000000000
000EFFFF500000000000
0009FFFFC58CC4000000
0004FFFFFB6200000000
269DFFFFFA0000000000
DC847FFFFF2000000000
00001EFFFF8000000000
000008FFFFD000000000
000002FFFFF200000000
0000009FFFF600000000
0000003FFFF700000000
0000000DFFF900000000
00000007FFF800000490
00000004FFF600000087
00000002FFF30000001D
006CEFDAFFD00000000E
0AA3124AFFE71000003D
3D000007FBDFE94114D9
5B00002EC11AFFFFFFD1
2E6116D9100039DFEA20
04CEEA30000000000000
ENDCHAR
STARTCHAR currency
ENCODING 164
SWIDTH 732 0
DWIDTH 26 0
BBX 23 26 2 0
BITMAP
000000000000000650000000
000000000000004F40000000
00000000000001DD00000000
8400000000001BF500000000
6F700049DEFFFFF300000000
08FA7DA5201259ED30000000
00AFE4000000002BE2000000
007F400000000001CC000000
01E90000000000004F400000
07F20000000000000E900000
0CD00000000000000CB00000
1FA00000000000000CA00000
2F800000000000000E800000
2F900000000000002F400000
0FB00000000000007D000000
0CE1000000000001E5000000
06F800000000001B80000000
00CF7000000002CF20000000
002DFC620125AD7ED3000000
0006FFFFFEDA5002DE500000
000AFC00000000001AF80000
002FF40000000000006FA100
008FC000000000000003CC00
00EF40000000000000000410
00F900000000000000000000
003000000000000000000000
ENDCHAR
STARTCHAR yen
ENCODING 165
SWIDTH 799 0
DWIDTH 29 0
BBX 27 39 1 -6
BITMAP
0000000000016500000000000000
1210000136AEE300000000000000
6BFFFFFFFFFD2000000000001750
0028FFFFFFF5000000000028C600
00003EFFFFF4000000247BF91000
000003EFFFF800004EEFFF700000
0000006FFFFD00000005FA000000
0000000BFFFF50000005E1000000
00000002FFFFC000000A70000000
000000008FFFF400001D10000000
000000001EFFFC00006800000000
0000000008FFFF5000C200000000
0000000001EFFFD004A000000000
00000000008FFFF70C5000000000
00000000002FFFFFAF1000000000
00000000000BFFFFFC0000000000
000000000005FFFFF90000000000
000000000000EFFFF60000000000
0000000000009FFFF40000000000
0000000000006FFFF50000000000
0000005CCCCCEFFFFEDDDEFFE900
0000000222116FFFF10000000000
0000000000002FFFF00000000000
0000000012248FFFFCDEFE400000
0000000CFFFFFFFFF63100000000
0000000354328FFFD00000000000
0000000000005FFFC00000000000
0000000000004FFFB00000000000
0000000000004FFFB00000000000
0000000000005FFFC00000000000
0000000000005FFFD00000000000
0000000000007FFFE00000000000
0000000000009FFFF10000000000
000000000000DFFFF60000000000
000000000005FFFFFF8300000000
00000000003EFFFFFFFFE3000000
0000000028FFC964321100000000
0000001BFC720000000000000000
0000001620000000000000000000
ENDCHAR
STARTCHAR brokenbar
ENCODING 166
SWIDTH 341 0
DWIDTH 12 0
BBX 2 42 5 -10
BITMAP
58
7A
7A
7A
7A
7A
7A
7B
7B
7B
7B
7B
8C
7C
7B
23
00
00
00
12
6A
6B
5C
5C
5D
5D
5D
5E
5E
5D
5D
6D
6D
6D
7D
7D
8D
8D
8D
9D
9C
68
ENDCHAR
STARTCHAR section
ENCODING 167
SWIDTH 546 0
DWIDTH 20 0
BBX 17 41 1 -11
BITMAP
00000028CEFD930000
000008FB4116EF9000
00009FA000005FF800
0006FF2000002FFF30
000DFD0000005FFF80
003FFD000000AFFFB0
006FFF100000DFFFB0
007FFF600000CFFF70
006FFFD100003CFA00
004FFFFB1000000000
000EFFFFB100000000
0007FFFFFC20000000
0000CFFFFFE4000000
0008FCFFFFFF800000
009F808FFFFFFA0000
05FF1003BFFFFFB100
0CFD000005DFFFFA00
1FFD00000019FFFF40
3FFF200000005EFF90
2FFFB000000005FFC0
0EFFF9000000009FD0
09FFFFB10000005FB0
01EFFFFE4000005F70
004EFFFFF900009E10
0002DFFFFFC202E500
000019FFFFFE5D7000
0000003CFFFFF80000
000000007EFFFE2000
0000000002BFFFA000
000000000007FFF300
0000000000005FF900
00000000000008FD00
00000000000001EE00
00000000000000AF00
000000000000007E00
00001AEC1000007C00
00007FFFC000009700
0000AFFFF60001E100
00006FFFFE503D6000
00000CFFFFFFF60000
0000018DFEC8200000
ENDCHAR
STARTCHAR dieresis
ENCODING 168
SWIDTH 393 0
DWIDTH 14 0
BBX 9 4 3 23
BITMAP
09EC11CE50
5FFF67FFB0
6FFF48FFA0
1BE902DD30
ENDCHAR
STARTCHAR copyright
ENCODING 169
SWIDTH 1023 0
DWIDTH 37 0
BBX 34 33 1 -5
BITMAP
00000000000148BDEFEDB9610000000000
00000000029EB641102358CFC600000000
000000018D710000000000028ED5000000
0000003DA10000000000000001AFA00000
000003E700000000000000000006FC1000
00003E60000000000003000000006FB000
0001D9000000000000090000000007F800
0009D10000000000001C0000000000DF30
002F5000000039DEFEFD00000000004FA0
009D0000001AFC4028FE00000000000DF1
01E7000000BFE100006F000000000007F6
05F2000006FF7000000B200000000004FA
09D000000DFF20000005500000000001FC
0CB000003FFF00000000500000000000FE
0E8000005FFF00000000000000000000EF
1F7000006FFF00000000040000000000FE
2F6000006FFF300000000C0000000000FE
2F5000004FFF700000001D0000000001FD
2F6000000EFFD10000005B0000000004FB
1F70000007FFFA000001D60000000007F8
0E90000000AFFFC5103CD1000000000BF5
0BD000000009FFFFFFFD20000000001FF1
08F30000000039DEEC8100000000006FA0
03FA00000000000000000000000001DF40
00BF30000000000000000000000007FC00
003FC000000000000000000000004FF300
000AFA0000000000000000000003EF8000
0001DF900000000000000000004EFB0000
00002EFC200000000000000018FFB10000
000002CFE920000000000017EFF8000000
00000019FFFB842101247BFFFC40000000
000000002AFFFFFFFFFFFFFB5000000000
0000000000169CEFFEDB95100000000000
ENDCHAR
STARTCHAR ordfeminine
ENCODING 170
SWIDTH 558 0
DWIDTH 20 0
BBX 18 18 1 11
BITMAP
0005BEFD8100000000
009E4129FE30000000
06FA0000BFC0000000
0DFC00004FF4000000
2FFF40001FF9000000
3FFFA0000EFC000000
1FFFC0000EFE000000
06ED40001FFF000000
00004ADFFFFF100000
001BFB411DFF200000
00BFC00009FF2000C0
05FF40000AFF4000D4
09FF20000CFF5000C5
0BFF40002DFFA000E4
0BFFC303D6DFF516F1
08FFFFFFC05FFFFF90
01DFFFFD2005CFE800
002AEE910000000000
ENDCHAR
STARTCHAR guillemotleft
ENCODING 171
SWIDTH 608 0
DWIDTH 22 0
BBX 20 32 1 -9
BITMAP
00000000000000000430
00000000000000000950
00000000000000000D30
00000000000020002F20
000000000003B0006E00
00000000000B7000BB00
00000000005F2001F800
0000000002EC0006F400
000000000BF5000BF100
000000009FC0003FB000
00000009FF4000BF7000
000001AFFA0005FF3000
00002CFFE1002EFD0000
0006EFFF5001CFF90000
01AFFFFA000BFFFC0000
1DFFFFF1002FFFFF5000
0CFFFFF50004FFFFD000
01BFFFFD10004FFFF500
000BFFFF900006FFFB00
0000AFFFF40000AFFF10
00000AFFFD00001EFF50
000000AFFF700007FF90
0000000CFFE10001EFB0
00000001DFF800008FD0
000000003FFE10001FF0
0000000006FF80000AF0
00000000009FE10004F1
00000000001DF80000D0
000000000003FE100030
0000000000007F600000
0000000000000AB00000
00000000000001600000
ENDCHAR
STARTCHAR logicalnot
ENCODING 172
SWIDTH 616 0
DWIDTH 22 0
BBX 20 9 1 8
BITMAP
00000011111111112200
1DFFFFFFFFFFFFFFFFE1
1DFEEDCCBBA99878AFF5
00000000000000000AF5
000000000000000007F5
000000000000000006F4
000000000000000007F2
000000000000000007F1
00000000000000000380
ENDCHAR
STARTCHAR uni00AD
ENCODING 173
SWIDTH 436 0
DWIDTH 16 0
BBX 13 2 1 7
BITMAP
16532100123430
18BDEEFFFFEC80
ENDCHAR
STARTCHAR registered
ENCODING 174
SWIDTH 1048 0
DWIDTH 38 0
BBX 35 33 1 -8
BITMAP
00000000000037ACEFFECA74000000000000
00000000017DD9531001247BD92000000000
000000007EA400000000000016C910000000
0000003CC3000000000000000005C4000000
000004E9000000000000000000001B600000
00004F7000000148BEFEB500000000B60000
0002E9007EDDEFD3017FFFA00000001C3000
000BD000026EFF800007FFF600000003C000
004F50000008FF700001FFFB00000000A500
00CC00000006FF700000EFFC000000003B00
03F700000004FF700000FFFB000000000C20
07F200000003FF700002FFF7000000000860
0BE000000003FF800008FFD1000000000590
0EB000000003FF80005FFD300000000002C0
1FA000000003FF925AFFA1000000000001D0
2F9000000003FFFEFFF500000000000000E0
3F8000000003FFA0BFF900000000000000E0
2F9000000004FFA07FFE100000A1000001D0
2FA000000004FFC01FFF70000067000002C0
0FC000000005FFD008FFE100003B000004A0
0DF000000006FFF101DFFB00005B00000870
09F400000009FFF4003EFFC303D900000B40
05F90000001EFFFB0004DFFFFFE200001D00
00EE100015DFFFFF900017CEEB2000006900
008F7006FDCA9ABDFC40000000000000D200
001EE2000000000015600000000000079000
0005FB0000000000000000000000003D1000
00008FA00000000000000000000002D30000
000008FA100000000000000000003D400000
0000006ED4000000000000000007D3000000
00000002AFA400000000000016D910000000
00000000039ED9531001247AE92000000000
00000000000148BDEFFEDB84000000000000
ENDCHAR
STARTCHAR macron
ENCODING 175
SWIDTH 382 0
DWIDTH 14 0
BBX 11 1 1 28
BITMAP
19BCDEEEFFA0
ENDCHAR
STARTCHAR degree
ENCODING 176
SWIDTH 346 0
DWIDTH 12 0
BBX 10 9 1 26
BITMAP
0029EFC600
02EFFFFFA0
0AF9216EF4
1FB00006F9
3F600001F9
2F600001F8
0CB00005F3
04F9215E80
003AEFC500
ENDCHAR
STARTCHAR plusminus
ENCODING 177
SWIDTH 580 0
DWIDTH 21 0
BBX 18 13 1 5
BITMAP
000000000B90000000
000000000DA0000000
000000000DA0000000
000000000E90000000
000000117FA1000000
03EFEDCBAED9AAABB9
000000000A50000000
000000000950000000
000000000950000000
000000000840000000
000000000100000000
1CFFEEDDCCBBA97200
1DFEDCBBBBBCCCC600
ENDCHAR
STARTCHAR twosuperior
ENCODING 178
SWIDTH 365 0
DWIDTH 13 0
BBX 13 20 0 12
BITMAP
000007CFD91000
0001BFFFFFD100
000A9118FFF800
00290000CFFD00
001000008FFE00
000000008FFD00
00000000AFFA00
00000001EFF400
00000007FF9000
0000003FFA0000
000003EE700000
00007E92000000
027DA100000000
1BFFC100000330
006EFD40005A00
0002DFFDBDC100
00001CFFFD2000
000002DFF30000
0000003E600000
00000002000000
ENDCHAR
STARTCHAR threesuperior
ENCODING 179
SWIDTH 371 0
DWIDTH 13 0
BBX 13 18 0 14
BITMAP
00321012410000
04FFFFFFF10000
03FFFFFF700000
01FFFFFC000000
00E300B2000000
00700460000000
00101DDB820000
00006FFFFF9000
0000026DFFF900
03000001CFFF20
190000002FFF70
390000000DFF90
4B0000000DFF90
2E1000001FFF60
0D9000007FFF20
06FA2028FFF700
009FFFFFFF8000
0005BEFD930000
ENDCHAR
STARTCHAR acute
ENCODING 180
SWIDTH 234 0
DWIDTH 8 0
BBX 6 7 1 27
BITMAP
0002D8
001DF7
008FE1
01FF50
08F900
0DC100
2C1000
ENDCHAR
STARTCHAR mu
ENCODING 181
SWIDTH 634 0
DWIDTH 23 0
BBX 22 31 1 -12
BITMAP
0023000000000000000000
6EFC000000000272000000
8FFB00000005CFF5000000
8FFA00000008FFF7000000
8FFA00000004FFF8000000
7FFA00000000FFFA000000
7FFA00000000BFFB000000
7FFC000000009FFC000000
6FFD000000007FFD000000
6FFF100000005FFF000C30
5FFF400000005FFF1005D1
5FFF800000006FFF3000C7
4FFFE00000008FFF50006B
3FFFE6000000CDFF90005C
3FFF7E200004A6FFE1006A
2FFF29E5116D20DFFB12D7
2FFF305CEEA2004FFFFFE1
1FFF400000000003BEFC30
1FFF500000000000000000
1FFF700000000000000000
0FFF800000000000000000
0FFFA00000000000000000
0EFFC00000000000000000
0EFFE00000000000000000
0DFFF10000000000000000
0CFFF30000000000000000
0CFFF50000000000000000
0BFFF70000000000000000
0AFFF90000000000000000
09FFE90000000000000000
0230000000000000000000
ENDCHAR
STARTCHAR paragraph
ENCODING 182
SWIDTH 707 0
DWIDTH 25 0
BBX 26 43 0 -13
BITMAP
00000000000000000000005C20
000000000000000000027DE500
000000000000001369CFFB1000
0000002579ACDEFFFFFFC10000
00018DFFFFFC41007FFF400000
005EFFFFFFF800004FFD000000
05FFFFFFFFF600004FFA000000
2EFFFFFFFFF500004FF8000000
8FFFFFFFFFF400004FF6000000
CFFFFFFFFFF400004FF5000000
EFFFFFFFFFF300004FF4000000
FFFFFFFFFFF300005FF3000000
DFFFFFFFFFF200005FF2000000
AFFFFFFFFFF200006FF1000000
4FFFFFFFFFF200006FF1000000
0AFFFFFFFFF100006FF1000000
009FFFFFFFF100007FF1000000
0005DFFFFFF100007FF1000000
000005BFFFF200008FF2000000
00000009FFF200008FF2000000
00000002FFF200009FF3000000
00000000FFF300009FF3000000
00000000EFF400009FF4000000
00000000CFF500009FF5000000
00000000BFF500009FF6000000
00000000AFF60000AFF6000000
000000009FF70000AFF8000000
000000008FF80000AFF9000000
000000007FF90000AFFA000000
000000007FFA0000AFFC000000
000000006FFB0000AFFE000000
000000006FFC0000AFFF100000
000000006FFD0000AFFF400000
000000005FFE0000AFFF800000
000000005FFF0000AFFFE20000
000000006FFF00009FFFFE7300
000000006FFF10008FFDCCDEE4
000000008FFF20001310000000
00000000BFFF30000000000000
00000003FFFF30000000000000
0000004EFFC810000000000000
00015BE9400000000000000000
008D9400000000000000000000
ENDCHAR
STARTCHAR periodcentered
ENCODING 183
SWIDTH 238 0
DWIDTH 9 0
BBX 6 6 1 11
BITMAP
03CEA1
0DFFF8
2FFFFB
2FFFFA
0DFFF6
03CE90
ENDCHAR
STARTCHAR cedilla
ENCODING 184
SWIDTH 332 0
DWIDTH 12 0
BBX 10 12 1 -9
BITMAP
0000450000
0000930000
0000D10000
0003F82000
0007FFF800
0003AFFF70
000006FFE0
000000EFF1
280000EFF0
0E8118FFB0
05FFFFFE20
004CFEA200
ENDCHAR
STARTCHAR onesuperior
ENCODING 185
SWIDTH 336 0
DWIDTH 12 0
BBX 12 16 0 16
BITMAP
000000009200
00000006F000
0000005FD000
000006FFB000
0002BFFFA000
007A41EF9000
002000DF9000
000000EF9000
000000EF9000
000000FFA000
000002FFA000
000006FFB000
00000BFFD000
2766BFFFF200
02579CEFFB10
000000037BC3
ENDCHAR
STARTCHAR ordmasculine
ENCODING 186
SWIDTH 503 0
DWIDTH 18 0
BBX 16 16 1 11
BITMAP
00005ADFEC830000
002CFFFFFFFFA100
02EC40138EFFFD10
0BD1000001AFFFB0
3F600000000AFFF4
8F2000000001EFFA
BF10000000007FFD
CF20000000001FFF
CF50000000000CFF
BF90000000000AFE
7FE10000000009FB
1EF8000000000AF6
08FF400000000CE1
00AFE50000004F40
0008FFB52016D400
000028CEFEB71000
ENDCHAR
STARTCHAR guillemotright
ENCODING 187
SWIDTH 778 0
DWIDTH 28 0
BBX 25 34 2 -10
BITMAP
00000000020000000000000000
000000000A1000000000000000
0000000007A000000000000000
0000000002F500000000000000
8000000000BE20000000000000
E2000000003FC1000000000000
BC0000000008FB100000000000
6F9000000000CFC10000000000
1DF9000000002EFC2000000000
06FFB100000003EFE400000000
00BFFE600000004EFF80000000
001CFFFC50000003EFFD400000
0001CFFFFE9400002CFFFA2000
000009FFFFFFEB7101AFFFF800
0000005EFFFFFFE300BFFFFE20
00000001AFFFFC201BFFFFD300
000000008FFF9000BFFFF91000
00000005FFF6000AFFFE500000
0000003FFE40007FFFD2000000
000001DFE30004FFFC10000000
00000BFE30001DFFC100000000
00006FF500008FFD1000000000
0002EF600002FFE20000000000
0009FA000009FF600000000000
002FD100001FFB000000000000
009F4000006FF3000000000000
00EA000000AFB0000000000000
04F2000000EF40000000000000
0880000002FD00000000000000
0710000004F800000000000000
0000000005F300000000000000
0000000005E000000000000000
0000000004A000000000000000
00000000014000000000000000
ENDCHAR
STARTCHAR onequarter
ENCODING 188
SWIDTH 876 0
DWIDTH 32 0
BBX 31 35 0 -1
BITMAP
00000000000000000000000000400000
0000000000000000000000000A800000
0000000092000000000000006E100000
00000006F000000000000003E6000000
0000005FD00000000000000CC0000000
000006FFB00000000000008F30000000
0002BFFFA0000000000004F700000000
007A41EF9000000000001EC000000000
002000DF900000000000BE2000000000
000000EF900000000007F60000000000
000000EF90000000003FA00000000000
000000FFA000000001DD100000000000
000002FFA00000000AF4000000000000
000006FFB00000006F80001800000000
00000BFFD0000002EC00008B00000000
2766BFFFF200000CE20001ED00000000
02579CEFFB10009F500008FE00000000
000000037BC305F900001EFF10000000
0000000000002ED100008FFF20000000
000000000000BF300001DCFF30000000
000000000007F600000958FF50000000
00000000003FB000002B05FF70000000
0000000001DD100000A303FF80006000
0000000009F4000003A001FFA0048000
000000004F8000000C2000FFC00B8000
00000001EB000000690000DFF3BF9000
0000000AE2000001E979BDFFFFFFB000
0000006F50000007FFFFFFFFFFFEA000
000002E9000000046654319FFA000000
00000CD1000000000000008FFE100000
00008F30000000000000009FFF800000
0003F70000000000000000CFFFFA3100
000CB0000000000000018DFFEDDEFFA0
004E1000000000000003975200000000
00120000000000000000000000000000
ENDCHAR
STARTCHAR onehalf
ENCODING 189
SWIDTH 762 0
DWIDTH 27 0
BBX 27 36 0 -2
BITMAP
0000000000000000000000000040
0000000000000000000000000A80
0000000092000000000000006E10
00000006F000000000000003E600
0000005FD00000000000000CC000
000006FFB00000000000008F3000
0002BFFFA0000000000004F70000
007A41EF9000000000001EC00000
002000DF900000000000BE200000
000000EF900000000007F6000000
000000EF90000000003FA0000000
000000FFA000000001DD10000000
000002FFA00000000AF400000000
000006FFB00000006F8000000000
00000BFFD0000002EC0000000000
2766BFFFF200000CE20000000000
02579CEFFB10009F5017CFD81000
000000037BC305F901CFFFFFC100
0000000000002ED10A9119FFF800
000000000000BF30380000DFFC00
000000000007F6001000009FFE00
00000000003FB0000000008FFD00
0000000001DD1000000000AFF900
0000000009F40000000001EFF300
000000004F800000000008FF8000
00000001EB00000000003FF90000
0000000AE20000000004EE600000
0000006F50000000007E92000000
000002E9000000028DA100000000
00000CD10000001BFFC100000330
00008F30000000006EFD40006A00
0003F7000000000002DFFDBDC100
000CB00000000000001DFFFD1000
004E1000000000000002EFF30000
001200000000000000003F600000
0000000000000000000002000000
ENDCHAR
STARTCHAR threequarters
ENCODING 190
SWIDTH 922 0
DWIDTH 33 0
BBX 33 35 0 -1
BITMAP
0000000000000000000000000000400000
000000000000000000000000000A800000
003210124100000000000000006E100000
04FFFFFFF10000000000000002E7000000
03FFFFFF70000000000000000CC0000000
01FFFFFC00000000000000008F30000000
00E300B20000000000000004F700000000
00700460000000000000001EC000000000
00101DDB82000000000000BE2000000000
00006FFFFF900000000007F60000000000
0000026DFFF9000000003FA00000000000
03000001CFFF20000001DD100000000000
190000002FFF7000000AF4000000000000
390000000DFF9000006F80005400000000
4B0000000DFF900002EC0000D600000000
2E1000001FFF60000CE20005F800000000
0D9000007FFF20009F50000CF900000000
06FA2028FFF70004F900005FFB00000000
009FFFFFFF80001ED10000DFFC00000000
0005BEFD930000BF300006AFFD00000000
00000000000007F700000C1DFF00000000
0000000000003FB00000770AFF20000000
000000000000CE100001C008FF30042000
000000000008F40000085006FF50093000
00000000004F8000002B0004FF702E3000
0000000001DC000000B40003FFA5DF4000
000000000AE2000005F789CEFFFFFF6000
000000005F5000000CFFFFFFFFFFFE5000
00000002E900000006655431EFF5000000
0000000CD100000000000000DFFA000000
0000008F3000000000000000EFFF400000
000003F70000000000000003FFFFE72000
00000CB000000000000004AEFFEDDEFF50
00004E2000000000000006974100000000
0000120000000000000000000000000000
ENDCHAR
STARTCHAR questiondown
ENCODING 191
SWIDTH 571 0
DWIDTH 21 0
BBX 20 32 0 -4
BITMAP
0000000007DE91000000
000000006FFFF8000000
00000000BFFFFD000000
00000000CFFFFD000000
000000008FFFF8000000
0000000019EE90000000
00000000000000000000
000000001C7000000000
0000000001B800000000
00000000001F10000000
00000000000E30000000
00000000002F10000000
0000000000AC00000000
0000000008F500000000
00000001AFC000000000
0000003DFE2000000000
000005EFF60000000000
00008FFFB0003BEEB400
0008FFFF2002EFFFFF70
006FFFFA0008FFFFFFF3
02EFFFF40009FFFFFFF9
08FFFFE00006FFFFFFFD
0DFFFFB00000AFFFFFFD
1FFFFFA0000004BFFFFC
2FFFFFA000000007FFFB
1FFFFFB000000000AFF6
0DFFFFE0000000005FF2
08FFFFF3000000005FA0
01EFFFFB000000009E20
003EFFFF70000003E400
0002AFFFFB41027C3000
0000027ADEFEDA500000
ENDCHAR
STARTCHAR Agrave
ENCODING 192
SWIDTH 784 0
DWIDTH 28 0
BBX 29 40 0 -3
BITMAP
000004EB1000000000000000000000
000005FFC100000000000000000000
000000BFFA00000000000000000000
0000001BFF60000000000000000000
00000001BFE1000000000000000000
000000000AF9000000000000000000
00000000006C000000000000000000
000000000000000000000000000000
00000000000003C500000000000000
0000000000018FFB00000000000000
0000000136AFFFFF20000000000000
000000BEDBBFFFFF70000000000000
00000000000DFFFFC0000000000000
00000000000EBEFFF2000000000000
00000000003F49FFF7000000000000
00000000007D04FFFC000000000000
0000000000C900EFFF200000000000
0000000001F400AFFF700000000000
0000000006E0005FFFC00000000000
000000000B90001FFFF20000000000
000000001F40000CFFF80000000000
000000006E000007FFFD0000000000
00000000BC200004FFFF3000000000
00000001FBEC7301FFFF8000000000
00000006E1049EDCFFFFD000000000
0000000CA000004BFFFFF300000000
0000002F500000007FFFF800000000
0000008E100000000CFFFD00000000
000000DA0000000005FFFF40000000
000005F50000000001EFFF90000000
00000BF10000000000AFFFE0000000
00003FB000000000006FFFF5000000
0015DF8000000000001FFFFA000000
DFFFFFB000000000000CFFFF100000
0136AEFA300000000008FFFF700000
0000016BD00000000004FFFFD00000
00000000000000000000FFFFF80000
00000000000000000002FFFFFFA300
0000000000000000027EFFFFFFFFA0
00000000000000009DB85321000000
ENDCHAR
STARTCHAR Aacute
ENCODING 193
SWIDTH 784 0
DWIDTH 28 0
BBX 29 41 0 -3
BITMAP
000000000000007E20000000000000
00000000000005FE10000000000000
0000000000001DF800000000000000
0000000000007FD100000000000000
000000000000EF3000000000000000
000000000005F60000000000000000
000000000008700000000000000000
000000000000000000000000000000
000000000000000000000000000000
00000000000003C500000000000000
0000000000018FFB00000000000000
0000000136AFFFFF20000000000000
000000BEDBBFFFFF70000000000000
00000000000DFFFFC0000000000000
00000000000EBEFFF2000000000000
00000000003F49FFF7000000000000
00000000007D04FFFC000000000000
0000000000C900EFFF200000000000
0000000001F400AFFF700000000000
0000000006E0005FFFC00000000000
000000000B90001FFFF20000000000
000000001F40000CFFF80000000000
000000006E000007FFFD0000000000
00000000BC200004FFFF3000000000
00000001FBEC7301FFFF8000000000
00000006E1049EDCFFFFD000000000
0000000CA000004BFFFFF300000000
0000002F500000007FFFF800000000
0000008E100000000CFFFD00000000
000000DA0000000005FFFF40000000
000005F50000000001EFFF90000000
00000BF10000000000AFFFE0000000
00003FB000000000006FFFF5000000
0015DF8000000000001FFFFA000000
DFFFFFB000000000000CFFFF100000
0136AEFA300000000008FFFF700000
0000016BD00000000004FFFFD00000
00000000000000000000FFFFF80000
00000000000000000002FFFFFFA300
0000000000000000027EFFFFFFFFA0
00000000000000009DB85321000000
ENDCHAR
STARTCHAR Acircumflex
ENCODING 194
SWIDTH 784 0
DWIDTH 28 0
BBX 29 40 0 -3
BITMAP
0000000000001C3000000000000000
000000000000AFD100000000000000
000000000006FFFB10000000000000
00000000003F94EFB1000000000000
0000000002D9002DFD200000000000
000000001D8000019FE60000000000
00000001C6000000039E6000000000
0000001A3000000000000000000000
00000000000003C500000000000000
0000000000018FFB00000000000000
0000000136AFFFFF20000000000000
000000BEDBBFFFFF70000000000000
00000000000DFFFFC0000000000000
00000000000EBEFFF2000000000000
00000000003F49FFF7000000000000
00000000007D04FFFC000000000000
0000000000C900EFFF200000000000
0000000001F400AFFF700000000000
0000000006E0005FFFC00000000000
000000000B90001FFFF20000000000
000000001F40000CFFF80000000000
000000006E000007FFFD0000000000
00000000BC200004FFFF3000000000
00000001FBEC7301FFFF8000000000
00000006E1049EDCFFFFD000000000
0000000CA000004BFFFFF300000000
0000002F500000007FFFF800000000
0000008E100000000CFFFD00000000
000000DA0000000005FFFF40000000
000005F50000000001EFFF90000000
00000BF10000000000AFFFE0000000
00003FB000000000006FFFF5000000
0015DF8000000000001FFFFA000000
DFFFFFB000000000000CFFFF100000
0136AEFA300000000008FFFF700000
0000016BD00000000004FFFFD00000
00000000000000000000FFFFF80000
00000000000000000002FFFFFFA300
0000000000000000027EFFFFFFFFA0
00000000000000009DB85321000000
ENDCHAR
STARTCHAR Atilde
ENCODING 195
SWIDTH 784 0
DWIDTH 28 0
BBX 29 40 0 -3
BITMAP
000000005DE9100000000000000000
00000004FFFFE50000000000000000
0000000B42CFFFA315900000000000
0000001A001BFFFFFF900000000000
000000250000AFFFFF300000000000
00000000000005CFD5000000000000
000000000000000000000000000000
000000000000000000000000000000
00000000000003C500000000000000
0000000000018FFB00000000000000
0000000136AFFFFF20000000000000
000000BEDBBFFFFF70000000000000
00000000000DFFFFC0000000000000
00000000000EBEFFF2000000000000
00000000003F49FFF7000000000000
00000000007D04FFFC000000000000
0000000000C900EFFF200000000000
0000000001F400AFFF700000000000
0000000006E0005FFFC00000000000
000000000B90001FFFF20000000000
000000001F40000CFFF80000000000
000000006E000007FFFD0000000000
00000000BC200004FFFF3000000000
00000001FBEC7301FFFF8000000000
00000006E1049EDCFFFFD000000000
0000000CA000004BFFFFF300000000
0000002F500000007FFFF800000000
0000008E100000000CFFFD00000000
000000DA0000000005FFFF40000000
000005F50000000001EFFF90000000
00000BF10000000000AFFFE0000000
00003FB000000000006FFFF5000000
0015DF8000000000001FFFFA000000
DFFFFFB000000000000CFFFF100000
0136AEFA300000000008FFFF700000
0000016BD00000000004FFFFD00000
00000000000000000000FFFFF80000
00000000000000000002FFFFFFA300
0000000000000000027EFFFFFFFFA0
00000000000000009DB85321000000
ENDCHAR
STARTCHAR Adieresis
ENCODING 196
SWIDTH 784 0
DWIDTH 28 0
BBX 29 39 0 -3
BITMAP
000000001BEC300000000000000000
00000000AFFFB008EC200000000000
00000000DFFFD02FFF900000000000
00000000AFFFA03FFF800000000000
000000002CEB200AEC200000000000
000000000000000000000000000000
000000000000000000000000000000
00000000000003C500000000000000
0000000000018FFB00000000000000
0000000136AFFFFF20000000000000
000000BEDBBFFFFF70000000000000
00000000000DFFFFC0000000000000
00000000000EBEFFF2000000000000
00000000003F49FFF7000000000000
00000000007D04FFFC000000000000
0000000000C900EFFF200000000000
0000000001F400AFFF700000000000
0000000006E0005FFFC00000000000
000000000B90001FFFF20000000000
000000001F40000CFFF80000000000
000000006E000007FFFD0000000000
00000000BC200004FFFF3000000000
00000001FBEC7301FFFF8000000000
00000006E1049EDCFFFFD000000000
0000000CA000004BFFFFF300000000
0000002F500000007FFFF800000000
0000008E100000000CFFFD00000000
000000DA0000000005FFFF40000000
000005F50000000001EFFF90000000
00000BF10000000000AFFFE0000000
00003FB000000000006FFFF5000000
0015DF8000000000001FFFFA000000
DFFFFFB000000000000CFFFF100000
0136AEFA300000000008FFFF700000
0000016BD00000000004FFFFD00000
00000000000000000000FFFFF80000
00000000000000000002FFFFFFA300
0000000000000000027EFFFFFFFFA0
00000000000000009DB85321000000
ENDCHAR
STARTCHAR Aring
ENCODING 197
SWIDTH 784 0
DWIDTH 28 0
BBX 29 42 0 -3
BITMAP
000000000006DFD810000000000000
00000000009D413CB0000000000000
0000000003F40002E5000000000000
0000000008F00000C8000000000000
0000000009E00000C9000000000000
0000000008F40002F8000000000000
0000000005FD412CF2000000000000
0000000000BFFFFF80000000000000
000000000018DFD700000000000000
000000000000000000000000000000
00000000000003C500000000000000
0000000000018FFB00000000000000
0000000136AFFFFF20000000000000
000000BEDBBFFFFF70000000000000
00000000000DFFFFC0000000000000
00000000000EBEFFF2000000000000
00000000003F49FFF7000000000000
00000000007D04FFFC000000000000
0000000000C900EFFF200000000000
0000000001F400AFFF700000000000
0000000006E0005FFFC00000000000
000000000B90001FFFF20000000000
000000001F40000CFFF80000000000
000000006E000007FFFD0000000000
00000000BC200004FFFF3000000000
00000001FBEC7301FFFF8000000000
00000006E1049EDCFFFFD000000000
0000000CA000004BFFFFF300000000
0000002F500000007FFFF800000000
0000008E100000000CFFFD00000000
000000DA0000000005FFFF40000000
000005F50000000001EFFF90000000
00000BF10000000000AFFFE0000000
00003FB000000000006FFFF5000000
0015DF8000000000001FFFFA000000
DFFFFFB000000000000CFFFF100000
0136AEFA300000000008FFFF700000
0000016BD00000000004FFFFD00000
00000000000000000000FFFFF80000
00000000000000000002FFFFFFA300
0000000000000000027EFFFFFFFFA0
00000000000000009DB85321000000
ENDCHAR
STARTCHAR AE
ENCODING 198
SWIDTH 1172 0
DWIDTH 42 0
BBX 43 38 0 -7
BITMAP
00000000000000000000000000000000001100000000
000000000000000000000000000000015BF800000000
000000000000000000000000000015AEFFF800000000
000000000000000000000000147BFEC99EF700000000
0000000000000000123468ACFFC7300004F500000000
00000000000002EFFFFFFFFFF900000000F300000000
0000000000000001358EFEFFF600000000E100000000
0000000000000000000BD7FFF700000000C000000000
0000000000000000000C85FFF8000000009000000000
0000000000000000001F23FFFA000000004000000000
0000000000000000005B01FFFC000000000000000000
000000000000000000A500FFFE000000010000000000
000000000000000001D000EFFF1000001A0000000000
0000000000000000068000DFFF3000005A0000000000
00000000000000000C2000CFFF500000A80000000000
00000000000000003A0000BFFF800004F80000000000
0000000000000000A40000AFFFB0249FF90000000000
0000000000000002C000009FFFFFFDCEFA0000000000
00000000000000087000009FFFF510009C0000000000
000000000000001E1000009FFFF300003E000000C000
000000000000007B000124DFFFF500000D200001F000
00000000000000DFEEFEDDFFFFF7000009400003F100
00000000000005F84200005FFFFA000001100005F200
0000000000000C700000002FFFFC00000000000AF300
0000000000004D000000000FFFFF10000000001EF500
000000000000B6000000000EFFFF40000000009FF800
000000000003E0000000000DFFFF8000000006FFFB00
00000000000B70000000000CFFFFC0000002AFFFFE00
00000000004F10000000000BFFFFF20004AFFFFEC910
0000000000C900000000000CFFFFFC8AEFEA74100000
0000000005F200000000000DFFFFFFFC730000000000
000000001EB000000000000EFFFFD720000000000000
00000000BF6000000000005FFFB40000000000000000
00000009FF100000000002DFB3000000000000000000
000002BFFD00000000006EC500000000000000000000
0025BFFFFE410000000CC50000000000000000000000
BEEDBA99ABCEE1000001000000000000000000000000
11000000000000000000000000000000000000000000
ENDCHAR
STARTCHAR Ccedilla
ENCODING 199
SWIDTH 742 0
DWIDTH 27 0
BBX 27 45 0 -15
BITMAP
0000000000000000000000190000
00000000000000000000004B0000
00000000000000000000006A0000
00000000000000000000009A0000
0000000000000000000001EA0000
00000000159CEFFEDB978DFB0000
00000029FFE8310136CFFFFC0000
000007FFF91000000004DFFE0000
0000AFFF7000000000001CFF2000
0009FFFB00000000000002EF5000
006FFFF2000000000000003FA000
01EFFFA00000000000000007E000
07FFFF4000000000000000009300
0CFFFF0000000000000000000000
2FFFFC0000000000000000000000
6FFFFA0000000000000000000000
9FFFF90000000000000000000000
AFFFF80000000000000000000000
BFFFF90000000000000000000000
CFFFF90000000000000000000000
CFFFFA0000000000000000000630
BFFFFD0000000000000000000850
9FFFFF1000000000000000000A50
7FFFFF4000000000000000000C30
3FFFFF9000000000000000001F10
0DFFFFE100000000000000005C00
07FFFFF70000000000000000B800
00DFFFFE2000000000000003F200
004FFFFFC00000000000000CA000
0007FFFFFB100000000000AE1000
00007FFFFFD4000000002BF40000
000004DFFFFFB6210249EE400000
00000007DFFFFFFFFFFFA2000000
00000000048BEFFFDB7200000000
0000000000000075000000000000
00000000000000B3000000000000
00000000000001F7200000000000
00000000000005FFF80000000000
00000000000003AFFF8000000000
0000000000000005FFF100000000
0000000000000000DFF300000000
00000000000A0000DFF200000000
00000000000C9217FFD000000000
000000000004FFFFFF4000000000
0000000000004CEEB30000000000
ENDCHAR
STARTCHAR Egrave
ENCODING 200
SWIDTH 557 0
DWIDTH 20 0
BBX 21 42 0 -4
BITMAP
000AE50000000000000000
000DFF5000000000000000
0004FFF300000000000000
00005FFC00000000000000
000005FF80000000000000
0000004EF2000000000000
00000002B5000000000000
0000000000000000000000
0000000000000000000000
000000000000257ACE1000
7DB987789BDFFFFFFF0000
07FFFFFFB6432101BE0000
007FFFFF200000004D0000
001EFFFF200000001D0000
000AFFFF200000000A0000
0007FFFF30000000000000
0004FFFF30000000000000
0002FFFF40000000000000
0000FFFF50000000000000
0000DFFF60000000000000
0000BFFF60000400000000
00009FFF70002900000000
00007FFF80009800000000
00006FFFFDDEF600000000
00004FFFFFFFF500000000
00003FFF9138F500000000
00001FFFA000B500000000
00000EFFB0009500000000
00000DFFC0008600000000
00000BFFD0003200000000
00000AFFE0000000000000
000009FFF0000000000000
000008FFF1000000000000
000006FFF2000000000000
000005FFF3000000000200
000004FFF4000000000910
000003FFF6000000000D00
000003FFF7000000004E00
000002FFF800000001DD00
000008FFFC0000005DFA00
2EEEFFFFFFECBBDFFFF700
0000011234578ABDEFC100
ENDCHAR
STARTCHAR Eacute
ENCODING 201
SWIDTH 557 0
DWIDTH 20 0
BBX 21 42 0 -4
BITMAP
0000000000006E20000000
000000000005FE10000000
00000000001DF800000000
00000000007FD100000000
0000000000DF3000000000
0000000004F60000000000
0000000008700000000000
0000000000000000000000
0000000000000000000000
000000000000257ACE1000
7DB987789BDFFFFFFF0000
07FFFFFFB6432101BE0000
007FFFFF200000004D0000
001EFFFF200000001D0000
000AFFFF200000000A0000
0007FFFF30000000000000
0004FFFF30000000000000
0002FFFF40000000000000
0000FFFF50000000000000
0000DFFF60000000000000
0000BFFF60000400000000
00009FFF70002900000000
00007FFF80009800000000
00006FFFFDDEF600000000
00004FFFFFFFF500000000
00003FFF9138F500000000
00001FFFA000B500000000
00000EFFB0009500000000
00000DFFC0008600000000
00000BFFD0003200000000
00000AFFE0000000000000
000009FFF0000000000000
000008FFF1000000000000
000006FFF2000000000000
000005FFF3000000000200
000004FFF4000000000910
000003FFF6000000000D00
000003FFF7000000004E00
000002FFF800000001DD00
000008FFFC0000005DFA00
2EEEFFFFFFECBBDFFFF700
0000011234578ABDEFC100
ENDCHAR
STARTCHAR Ecircumflex
ENCODING 202
SWIDTH 557 0
DWIDTH 20 0
BBX 21 42 0 -4
BITMAP
0000000007900000000000
000000003FF70000000000
00000001DFFF5000000000
0000000AE49FF500000000
0000007E3007FF70000000
000006D300004DFB200000
00006C200000016CD00000
0005800000000000000000
0000000000000000000000
000000000000257ACE1000
7DB987789BDFFFFFFF0000
07FFFFFFB6432101BE0000
007FFFFF200000004D0000
001EFFFF200000001D0000
000AFFFF200000000A0000
0007FFFF30000000000000
0004FFFF30000000000000
0002FFFF40000000000000
0000FFFF50000000000000
0000DFFF60000000000000
0000BFFF60000400000000
00009FFF70002900000000
00007FFF80009800000000
00006FFFFDDEF600000000
00004FFFFFFFF500000000
00003FFF9138F500000000
00001FFFA000B500000000
00000EFFB0009500000000
00000DFFC0008600000000
00000BFFD0003200000000
00000AFFE0000000000000
000009FFF0000000000000
000008FFF1000000000000
000006FFF2000000000000
000005FFF3000000000200
000004FFF4000000000910
000003FFF6000000000D00
000003FFF7000000004E00
000002FFF800000001DD00
000008FFFC0000005DFA00
2EEEFFFFFFECBBDFFFF700
0000011234578ABDEFC100
ENDCHAR
STARTCHAR Edieresis
ENCODING 203
SWIDTH 557 0
DWIDTH 20 0
BBX 21 39 0 -4
BITMAP
000007EE70000000000000
00004FFFF203DE60000000
00007FFFF40CFFF0000000
00005FFFE10CFFE0000000
000009ED5005EE50000000
0000000000000000000000
000000000000257ACE1000
7DB987789BDFFFFFFF0000
07FFFFFFB6432101BE0000
007FFFFF200000004D0000
001EFFFF200000001D0000
000AFFFF200000000A0000
0007FFFF30000000000000
0004FFFF30000000000000
0002FFFF40000000000000
0000FFFF50000000000000
0000DFFF60000000000000
0000BFFF60000400000000
00009FFF70002900000000
00007FFF80009800000000
00006FFFFDDEF600000000
00004FFFFFFFF500000000
00003FFF9138F500000000
00001FFFA000B500000000
00000EFFB0009500000000
00000DFFC0008600000000
00000BFFD0003200000000
00000AFFE0000000000000
000009FFF0000000000000
000008FFF1000000000000
000006FFF2000000000000
000005FFF3000000000200
000004FFF4000000000910
000003FFF6000000000D00
000003FFF7000000004E00
000002FFF800000001DD00
000008FFFC0000005DFA00
2EEEFFFFFFECBBDFFFF700
0000011234578ABDEFC100
ENDCHAR
STARTCHAR Igrave
ENCODING 204
SWIDTH 438 0
DWIDTH 16 0
BBX 20 46 -2 -7
BITMAP
000009E7000000000000
00000BFF700000000000
000003EFF40000000000
0000004EFD1000000000
00000003EF9000000000
000000003DF300000000
0000000001A700000000
00000000000000000000
04987665545679ACEEF9
01358EFFFFFFFF941000
000002EFFFFFF6000000
0000006FFFFFB0000000
0000002FFFFF50000000
0000000FFFFF10000000
0000000FFFFD00000000
0000000EFFFB00000000
0000000EFFF900000000
0000000EFFF700000000
0000000EFFF500000000
0000000DFFF300000000
0000000DFFF200000000
0000000DFFF000000000
0000000DFFE000000000
0000000DFFC000000000
0000000DFFB000000000
0000000DFF9000000000
0000000DFF8000000000
0000000DFF7000000000
0000000DFF6000000000
0000000DFF5000000000
0000000DFF4000000000
0000000DFF3000000000
0000000DFF2000000000
0000000DFF1000000000
0000000EFF0000000000
0000000EFF0000000000
0000000EFE0000000000
0000000FFE0000000000
0000000FFE0000000000
0000001FFE0000000000
0000004FFF2000000000
000000AFFFC310000000
000008FFFFFFFF600000
0028DD96321000000000
5CD83000000000000000
43000000000000000000
ENDCHAR
STARTCHAR Iacute
ENCODING 205
SWIDTH 438 0
DWIDTH 16 0
BBX 20 46 -2 -7
BITMAP
00000000000001C90000
0000000000000CF80000
0000000000007FE10000
000000000001EF600000
000000000006FA000000
00000000000CD1000000
00000000001C20000000
00000000000000000000
04987665545679ACEEF9
01358EFFFFFFFF941000
000002EFFFFFF6000000
0000006FFFFFB0000000
0000002FFFFF50000000
0000000FFFFF10000000
0000000FFFFD00000000
0000000EFFFB00000000
0000000EFFF900000000
0000000EFFF700000000
0000000EFFF500000000
0000000DFFF300000000
0000000DFFF200000000
0000000DFFF000000000
0000000DFFE000000000
0000000DFFC000000000
0000000DFFB000000000
0000000DFF9000000000
0000000DFF8000000000
0000000DFF7000000000
0000000DFF6000000000
0000000DFF5000000000
0000000DFF4000000000
0000000DFF3000000000
0000000DFF2000000000
0000000DFF1000000000
0000000EFF0000000000
0000000EFF0000000000
0000000EFE0000000000
0000000FFE0000000000
0000000FFE0000000000
0000001FFE0000000000
0000004FFF2000000000
000000AFFFC310000000
000008FFFFFFFF600000
0028DD96321000000000
5CD83000000000000000
43000000000000000000
ENDCHAR
STARTCHAR Icircumflex
ENCODING 206
SWIDTH 438 0
DWIDTH 16 0
BBX 20 46 -2 -7
BITMAP
00000000009700000000
0000000005FF40000000
000000002EFFE3000000
00000001CD3BFE300000
0000000AD2009FF50000
0000009C100006EFA100
000009A100000017DB00
00007600000000000000
04987665545679ACEEF9
01358EFFFFFFFF941000
000002EFFFFFF6000000
0000006FFFFFB0000000
0000002FFFFF50000000
0000000FFFFF10000000
0000000FFFFD00000000
0000000EFFFB00000000
0000000EFFF900000000
0000000EFFF700000000
0000000EFFF500000000
0000000DFFF300000000
0000000DFFF200000000
0000000DFFF000000000
0000000DFFE000000000
0000000DFFC000000000
0000000DFFB000000000
0000000DFF9000000000
0000000DFF8000000000
0000000DFF7000000000
0000000DFF6000000000
0000000DFF5000000000
0000000DFF4000000000
0000000DFF3000000000
0000000DFF2000000000
0000000DFF1000000000
0000000EFF0000000000
0000000EFF0000000000
0000000EFE0000000000
0000000FFE0000000000
0000000FFE0000000000
0000001FFE0000000000
0000004FFF2000000000
000000AFFFC310000000
000008FFFFFFFF600000
0028DD96321000000000
5CD83000000000000000
43000000000000000000
ENDCHAR
STARTCHAR Idieresis
ENCODING 207
SWIDTH 438 0
DWIDTH 16 0
BBX 20 44 -2 -7
BITMAP
000002BEC20000000000
00000BFFFA009EC20000
00000EFFFC04FFF80000
00000CFFF804FFF70000
000003CEA100BEB10000
00000000000000000000
04987665545679ACEEF9
01358EFFFFFFFF941000
000002EFFFFFF6000000
0000006FFFFFB0000000
0000002FFFFF50000000
0000000FFFFF10000000
0000000FFFFD00000000
0000000EFFFB00000000
0000000EFFF900000000
0000000EFFF700000000
0000000EFFF500000000
0000000DFFF300000000
0000000DFFF200000000
0000000DFFF000000000
0000000DFFE000000000
0000000DFFC000000000
0000000DFFB000000000
0000000DFF9000000000
0000000DFF8000000000
0000000DFF7000000000
0000000DFF6000000000
0000000DFF5000000000
0000000DFF4000000000
0000000DFF3000000000
0000000DFF2000000000
0000000DFF1000000000
0000000EFF0000000000
0000000EFF0000000000
0000000EFE0000000000
0000000FFE0000000000
0000000FFE0000000000
0000001FFE0000000000
0000004FFF2000000000
000000AFFFC310000000
000008FFFFFFFF600000
0028DD96321000000000
5CD83000000000000000
43000000000000000000
ENDCHAR
STARTCHAR Eth
ENCODING 208
SWIDTH 730 0
DWIDTH 26 0
BBX 27 29 0 -8
BITMAP
0143334568ACEFEDCA6200000000
04BCEFFFFE30137DFFFFB3000000
00000AFFFA0000007FFFFF800000
000006FFF900000006FFFFFA0000
000004FFF9000000009FFFFF8000
000004FFF9000000001EFFFFF300
000003FFF90000000008FFFFFB00
000003FFF90000000003FFFFFF10
000003FFF90000000000EFFFFF50
000003FFF90000000000CFFFFF80
000004FFF90000000000BFFFFF90
000004FFF92561000000BFFFFFA0
000004FFFFDB81000000BFFFFF90
28ABDFFFF90000000000CFFFFF80
287536FFF90000000000EFFFFF50
000005FFFA0000000002FFFFFF10
000006FFFA0000000005FFFFFA00
000006FFFB000000000AFFFFF300
000007FFFC000000002FFFFF8000
000008FFFD00000000BFFFFB0000
000009FFFF00000009FFFFA10000
00000CFFFF300001AFFFF7000000
00000EFFFFB2138EFFFA20000000
00004FFFFFFFFFFFC72000000000
0000CFFFFFFDB851000000000000
0009FFD963100000000000000000
00AFA30000000000000000000000
1BB3000000000000000000000000
B500000000000000000000000000
ENDCHAR
STARTCHAR Ntilde
ENCODING 209
SWIDTH 799 0
DWIDTH 29 0
BBX 29 44 0 -9
BITMAP
0000000000000AEC60000000000000
0000000000009FFFFB200000000000
000000000001C25EFFE72194000000
0000000000065003EFFFFFF3000000
00000000000600002DFFFFC0000000
0000000000000000018EFB20000000
000000000000000000000000000000
000000000000000000000000000000
000000000000000000000000000000
000012452000000000000000000000
CFFFFFFFF600000000000000147A80
0014DFFFFF60000001EEDDDEFEA620
00004FFFFFF5000000025CFFE20000
00001FFFFFFF4000000001DF700000
00000FA8FFFFE3000000009F300000
00000D90AFFFFE200000007F100000
00000C901CFFFFD10000006F000000
00000C9002EFFFFC1000006E000000
00000B80006FFFFFB000005D000000
00000A80000AFFFFFA00006D000000
00000A800001DFFFFF80007C000000
00000A8000003FFFFFF7008B000000
00000A80000007FFFFFF60AB000000
00000A80000000BFFFFFF9EA000000
000009800000001DFFFFFFFA000000
0000099000000004FFFFFFFA000000
00000990000000007FFFFFF9000000
00000990000000000AFFFFF9000000
000009900000000001DFFFF9000000
0000099000000000002EFFF8000000
00000990000000000004FFF8000000
000009900000000000007FF7000000
0000099000000000000009F6000000
000009900000000000000094000000
00000A900000000000000000000000
00000AA00000000000000000000000
00000CB00000000000000000000000
00000ED00000000000000000000000
00002FF00000000000000000000000
00009FF50000000000000000000000
003AFFFE2000000000000000000000
7FEDDEFFD500000000000000000000
00000026AEE3000000000000000000
000000000020000000000000000000
ENDCHAR
STARTCHAR Ograve
ENCODING 210
SWIDTH 747 0
DWIDTH 27 0
BBX 27 37 0 1
BITMAP
0000007E80000000000000000000
0000009FF9000000000000000000
0000001DFF600000000000000000
00000002EFE20000000000000000
000000002DFC0000000000000000
0000000002CF5000000000000000
0000000000199000000000000000
0000000000000000000000000000
0000000000000000000000000000
0000000000000000000000000000
0000000048CDFEDC841000000000
0000005DF931126BFFE710000000
00001BFD300000005EFFE5000000
0002DFE20000000003EFFF700000
001DFF6000000000005FFFF70000
00AFFD0000000000000BFFFF4000
03FFF700000000000003FFFFD000
0AFFF300000000000000CFFFF600
1FFFF0000000000000007FFFFC00
5FFFC0000000000000003FFFFF20
9FFFB0000000000000000FFFFF60
AFFFA0000000000000000CFFFF80
CFFFA0000000000000000AFFFF90
CFFFB00000000000000009FFFFA0
BFFFC00000000000000008FFFF90
AFFFE00000000000000008FFFF80
8FFFF20000000000000007FFFF60
4FFFF50000000000000008FFFF20
1FFFF8000000000000000AFFFD00
0AFFFD000000000000000DFFF700
03FFFF400000000000002FFFE100
00AFFFC00000000000007FFF6000
001DFFF6000000000001EFFA0000
0002DFFF40000000000AFFB10000
00001BFFF6000000009FF9000000
0000005DFFC621137DFC40000000
0000000048BDEFEDB73000000000
ENDCHAR
STARTCHAR Oacute
ENCODING 211
SWIDTH 747 0
DWIDTH 27 0
BBX 27 36 0 1
BITMAP
000000000000007E200000000000
00000000000005FE100000000000
0000000000001DF8000000000000
0000000000007FD1000000000000
000000000000EF30000000000000
000000000005F600000000000000
0000000000087000000000000000
0000000000000000000000000000
0000000000000000000000000000
0000000048CDFEDC841000000000
0000005DF931126BFFE710000000
00001BFD300000005EFFE5000000
0002DFE20000000003EFFF700000
001DFF6000000000005FFFF70000
00AFFD0000000000000BFFFF4000
03FFF700000000000003FFFFD000
0AFFF300000000000000CFFFF600
1FFFF0000000000000007FFFFC00
5FFFC0000000000000003FFFFF20
9FFFB0000000000000000FFFFF60
AFFFA0000000000000000CFFFF80
CFFFA0000000000000000AFFFF90
CFFFB00000000000000009FFFFA0
BFFFC00000000000000008FFFF90
AFFFE00000000000000008FFFF80
8FFFF20000000000000007FFFF60
4FFFF50000000000000008FFFF20
1FFFF8000000000000000AFFFD00
0AFFFD000000000000000DFFF700
03FFFF400000000000002FFFE100
00AFFFC00000000000007FFF6000
001DFFF6000000000001EFFA0000
0002DFFF40000000000AFFB10000
00001BFFF6000000009FF9000000
0000005DFFC621137DFC40000000
0000000048BDEFEDB73000000000
ENDCHAR
STARTCHAR Ocircumflex
ENCODING 212
SWIDTH 747 0
DWIDTH 27 0
BBX 27 36 0 1
BITMAP
000000000003C100000000000000
00000000000CFB00000000000000
00000000009FFF90000000000000
0000000005F75FFA000000000000
000000003E7003EFB10000000000
00000002E600001BFE5000000000
0000002D400000004AE400000000
000002A200000000000000000000
0000000000000000000000000000
0000000048CDFEDC841000000000
0000005DF931126BFFE710000000
00001BFD300000005EFFE5000000
0002DFE20000000003EFFF700000
001DFF6000000000005FFFF70000
00AFFD0000000000000BFFFF4000
03FFF700000000000003FFFFD000
0AFFF300000000000000CFFFF600
1FFFF0000000000000007FFFFC00
5FFFC0000000000000003FFFFF20
9FFFB0000000000000000FFFFF60
AFFFA0000000000000000CFFFF80
CFFFA0000000000000000AFFFF90
CFFFB00000000000000009FFFFA0
BFFFC00000000000000008FFFF90
AFFFE00000000000000008FFFF80
8FFFF20000000000000007FFFF60
4FFFF50000000000000008FFFF20
1FFFF8000000000000000AFFFD00
0AFFFD000000000000000DFFF700
03FFFF400000000000002FFFE100
00AFFFC00000000000007FFF6000
001DFFF6000000000001EFFA0000
0002DFFF40000000000AFFB10000
00001BFFF6000000009FF9000000
0000005DFFC621137DFC40000000
0000000048BDEFEDB73000000000
ENDCHAR
STARTCHAR Otilde
ENCODING 213
SWIDTH 747 0
DWIDTH 27 0
BBX 27 35 0 1
BITMAP
0000000009ED6000000000000000
000000008FFFFC20000000000000
00000001C25EFFE7218500000000
000000056003EFFFFFF400000000
0000000610002DFFFFD000000000
000000000000018DFB2000000000
0000000000000000000000000000
0000000000000000000000000000
0000000048CDFEDC841000000000
0000005DF931126BFFE710000000
00001BFD300000005EFFE5000000
0002DFE20000000003EFFF700000
001DFF6000000000005FFFF70000
00AFFD0000000000000BFFFF4000
03FFF700000000000003FFFFD000
0AFFF300000000000000CFFFF600
1FFFF0000000000000007FFFFC00
5FFFC0000000000000003FFFFF20
9FFFB0000000000000000FFFFF60
AFFFA0000000000000000CFFFF80
CFFFA0000000000000000AFFFF90
CFFFB00000000000000009FFFFA0
BFFFC00000000000000008FFFF90
AFFFE00000000000000008FFFF80
8FFFF20000000000000007FFFF60
4FFFF50000000000000008FFFF20
1FFFF8000000000000000AFFFD00
0AFFFD000000000000000DFFF700
03FFFF400000000000002FFFE100
00AFFFC00000000000007FFF6000
001DFFF6000000000001EFFA0000
0002DFFF40000000000AFFB10000
00001BFFF6000000009FF9000000
0000005DFFC621137DFC40000000
0000000048BDEFEDB73000000000
ENDCHAR
STARTCHAR Odieresis
ENCODING 214
SWIDTH 747 0
DWIDTH 27 0
BBX 27 35 0 1
BITMAP
000000004CEA1000000000000000
00000000EFFF701BEA0000000000
00000002FFFF807FFF4000000000
00000001EFFF507FFF4000000000
000000005DE8002CE90000000000
0000000000000000000000000000
0000000000000000000000000000
0000000000000000000000000000
0000000048CDFEDC841000000000
0000005DF931126BFFE710000000
00001BFD300000005EFFE5000000
0002DFE20000000003EFFF700000
001DFF6000000000005FFFF70000
00AFFD0000000000000BFFFF4000
03FFF700000000000003FFFFD000
0AFFF300000000000000CFFFF600
1FFFF0000000000000007FFFFC00
5FFFC0000000000000003FFFFF20
9FFFB0000000000000000FFFFF60
AFFFA0000000000000000CFFFF80
CFFFA0000000000000000AFFFF90
CFFFB00000000000000009FFFFA0
BFFFC00000000000000008FFFF90
AFFFE00000000000000008FFFF80
8FFFF20000000000000007FFFF60
4FFFF50000000000000008FFFF20
1FFFF8000000000000000AFFFD00
0AFFFD000000000000000DFFF700
03FFFF400000000000002FFFE100
00AFFFC00000000000007FFF6000
001DFFF6000000000001EFFA0000
0002DFFF40000000000AFFB10000
00001BFFF6000000009FF9000000
0000005DFFC621137DFC40000000
0000000048BDEFEDB73000000000
ENDCHAR
STARTCHAR multiply
ENCODING 215
SWIDTH 541 0
DWIDTH 19 0
BBX 17 22 1 0
BITMAP
000000000000000010
000000000000001C80
00000000000000BE20
00000000000009F400
0000000000005F7000
006700000002E90000
002EB100000CB00000
0003EC20009D100000
00003ED306E3000000
000003EF9F50000000
0000003FFD00000000
0000001EEFB1000000
0000009F33DD400000
000004F6001AF70000
00001EA000006E8000
0000BD100000013000
0008F4000000000000
005F90000000000000
02ED10000000000000
0AF400000000000000
2F8000000000000000
050000000000000000
ENDCHAR
STARTCHAR Oslash
ENCODING 216
SWIDTH 747 0
DWIDTH 27 0
BBX 27 35 0 -2
BITMAP
0000000000000000000000000100
0000000000000000000000005B00
000000000000000000000002E500
00000000000000000000000CB000
00000000000000000000007E2000
0000000048CDFEDC840003F70000
0000005DF931025CFFE82DC00000
00001BFD300000005EFFFF200000
0002DFE20000000003EFFF800000
001DFF6000000000006FFFF70000
00AFFD000000000000BFFFFF4000
03FFF8000000000007F9FFFFD000
0AFFF300000000003FA0DFFFF600
1FFFF00000000001DE108FFFFD00
5FFFC0000000000AF4004FFFFF20
9FFFB0000000005F80001FFFFF60
AFFFA000000002EC00000DFFFF80
CFFFA00000000CE200000BFFFFA0
CFFFB00000008F60000009FFFFA0
CFFFC0000004FA00000008FFFF90
AFFFE000001DD100000007FFFF80
8FFFF10000AF3000000007FFFF60
5FFFF40005F70000000008FFFF20
1FFFF8002EB0000000000AFFFD00
0BFFFD00BE10000000000DFFF700
04FFFF47F400000000002FFFE100
00AFFFCF9000000000007FFF6000
001DFFFD000000000001EFFA0000
0002DFFF40000000000AFFB10000
00005FFFF6000000009FF9000000
0001DB5DFFC621137DFC40000000
0009E20038BDEFEDB73000000000
004F500000000000000000000000
00D9000000000000000000000000
02B1000000000000000000000000
ENDCHAR
STARTCHAR Ugrave
ENCODING 217
SWIDTH 690 0
DWIDTH 25 0
BBX 27 37 0 2
BITMAP
0000000002EB2000000000000000
0000000003FFD100000000000000
0000000000AFFB00000000000000
00000000000AFF70000000000000
000000000000AFF2000000000000
00000000000009FA000000000000
000000000000005D000000000000
0000000000000000000000000000
0000000000000000000000000000
0000000000000383000000000000
000000000016CF91000000000000
000000037BFFB200000000000000
02469BEFFFFA0000000000000000
CFFFFFFFFFE10000000000000000
015EFFFFFF700000000000000110
0003FFFFFF3001CEDCA999AA7640
0000DFFFFE00000138EFFFD10000
0000BFFFFC000000001CFF600000
00009FFFFA0000000002FF300000
00008FFFF80000000000DF100000
00007FFFF800000000009F000000
00007FFFF700000000008F000000
00007FFFF700000000006E000000
00006FFFF800000000005E000000
00005FFFF800000000005E000000
00004FFFF900000000005D000000
00002FFFFB00000000005C000000
00000FFFFD00000000006B000000
00000CFFFF100000000078000000
000009FFFF4000000000A6000000
000004FFFF8000000000E2000000
000000DFFFD000000005C0000000
0000006FFFF50000000D70000000
0000000BFFFE2000009E10000000
00000001CFFFD5114BF400000000
000000001AFFFFFFFE5000000000
000000000039DEED820000000000
ENDCHAR
STARTCHAR Uacute
ENCODING 218
SWIDTH 690 0
DWIDTH 25 0
BBX 27 32 0 2
BITMAP
0000000000000000000008E10000
000000000000000000007FD00000
00000000000000000002EF600000
00000000000000000009FC000000
0000000000000383001FE2000000
000000000016CF91006F40000000
000000037BFFB200009500000000
02469BEFFFFA0000000000000000
CFFFFFFFFFE10000000000000000
015EFFFFFF700000000000000110
0003FFFFFF3001CEDCA999AA7640
0000DFFFFE00000138EFFFD10000
0000BFFFFC000000001CFF600000
00009FFFFA0000000002FF300000
00008FFFF80000000000DF100000
00007FFFF800000000009F000000
00007FFFF700000000008F000000
00007FFFF700000000006E000000
00006FFFF800000000005E000000
00005FFFF800000000005E000000
00004FFFF900000000005D000000
00002FFFFB00000000005C000000
00000FFFFD00000000006B000000
00000CFFFF100000000078000000
000009FFFF4000000000A6000000
000004FFFF8000000000E2000000
000000DFFFD000000005C0000000
0000006FFFF50000000D70000000
0000000BFFFE2000009E10000000
00000001CFFFD5114BF400000000
000000001AFFFFFFFE5000000000
000000000039DEED820000000000
ENDCHAR
STARTCHAR Ucircumflex
ENCODING 219
SWIDTH 690 0
DWIDTH 25 0
BBX 27 34 0 2
BITMAP
0000000000000079000000000000
00000000000003FF600000000000
0000000000001DFFF40000000000
000000000000BE4AFF5000000000
000000000008E3008FF700000000
00000000007D200004DFB2000000
0000000007C103830017CD000000
000000005816CF91000000000000
000000037BFFB200000000000000
02469BEFFFFA0000000000000000
CFFFFFFFFFE10000000000000000
015EFFFFFF700000000000000110
0003FFFFFF3001CEDCA999AA7640
0000DFFFFE00000138EFFFD10000
0000BFFFFC000000001CFF600000
00009FFFFA0000000002FF300000
00008FFFF80000000000DF100000
00007FFFF800000000009F000000
00007FFFF700000000008F000000
00007FFFF700000000006E000000
00006FFFF800000000005E000000
00005FFFF800000000005E000000
00004FFFF900000000005D000000
00002FFFFB00000000005C000000
00000FFFFD00000000006B000000
00000CFFFF100000000078000000
000009FFFF4000000000A6000000
000004FFFF8000000000E2000000
000000DFFFD000000005C0000000
0000006FFFF50000000D70000000
0000000BFFFE2000009E10000000
00000001CFFFD5114BF400000000
000000001AFFFFFFFE5000000000
000000000039DEED820000000000
ENDCHAR
STARTCHAR Udieresis
ENCODING 220
SWIDTH 690 0
DWIDTH 25 0
BBX 27 34 0 2
BITMAP
00000000004DEA00000000000000
0000000001EFFF601BEA00000000
0000000002FFFF807FFF40000000
0000000001EFFF508FFF30000000
00000000005DE8002CE900000000
0000000000000000000000000000
0000000000000383000000000000
000000000016CF91000000000000
000000037BFFB200000000000000
02469BEFFFFA0000000000000000
CFFFFFFFFFE10000000000000000
015EFFFFFF700000000000000110
0003FFFFFF3001CEDCA999AA7640
0000DFFFFE00000138EFFFD10000
0000BFFFFC000000001CFF600000
00009FFFFA0000000002FF300000
00008FFFF80000000000DF100000
00007FFFF800000000009F000000
00007FFFF700000000008F000000
00007FFFF700000000006E000000
00006FFFF800000000005E000000
00005FFFF800000000005E000000
00004FFFF900000000005D000000
00002FFFFB00000000005C000000
00000FFFFD00000000006B000000
00000CFFFF100000000078000000
000009FFFF4000000000A6000000
000004FFFF8000000000E2000000
000000DFFFD000000005C0000000
0000006FFFF50000000D70000000
0000000BFFFE2000009E10000000
00000001CFFFD5114BF400000000
000000001AFFFFFFFE5000000000
000000000039DEED820000000000
ENDCHAR
STARTCHAR Yacute
ENCODING 221
SWIDTH 796 0
DWIDTH 29 0
BBX 32 43 0 -5
BITMAP
0000000000000000000009D000000000
000000000000000000008FC000000000
00000000000000000002FF5000000000
0000000000000000000AFB0000000000
0000000000000000002FE10000000000
0000000000000000007F400000000000
000000000000000000A4000000000000
00000000004980000000000000000000
00012358BEC500000000005200000000
7FFFFFFFF90000000000009FC8531000
015BFFFFF600000000000002DFFFFFFB
00006FFFFD10000000000000AF820000
000005FFFF90000000000003F5000000
0000007FFFF600000000000C60000000
00000009FFFF40000000007900000000
00000000BFFFE200000004D100000000
000000001EFFFD1000002D3000000000
0000000004FFFFC10000C70000000000
00000000007FFFFC100AB00000000000
00000000000BFFFFD5AE200000000000
000000000002EFFFFFF6000000000000
0000000000006FFFFFC0000000000000
0000000000000CFFFF60000000000000
00000000000004FFFF20000000000000
00000000000000DFFF10000000000000
00000000000000AFFF10000000000000
000000000000008FFF10000000000000
000000000000008FFF10000000000000
000000000000008FFF20000000000000
000000000000008FFF20000000000000
000000000000009FFF30000000000000
000000000000009FFF30000000000000
00000000000000BFFF40000000000000
00000000000000CFFF50000000000000
00000000000000DFFF60000000000000
00000000000000FFFF70000000000000
00000000000002FFFF80000000000000
00000000000005FFFFA0000000000000
0000000000000BFFFFC0000000000000
000000000014BFFFFFF2000000000000
000000006EFFFFFFFFFB000000000000
000000000000001369CFC40000000000
00000000000000000001570000000000
ENDCHAR
STARTCHAR Thorn
ENCODING 222
SWIDTH 479 0
DWIDTH 17 0
BBX 17 37 1 -3
BITMAP
111000000000000000
AFFFFFFFFE10000000
15AFFFF81000000000
000DFFD00000000000
0009FF900000000000
0008FF700000000000
0008FF700000000000
0008FFC41000000000
0008FFFFFFEB720000
0008FFD302AFFF9000
0009FF40000BFFFB00
0009FF100003FFFF50
0009FE000000EFFFB0
000AFE000000BFFFE0
000AFE000000AFFFF0
000BFF000000AFFFE0
000BFF000000CFFFB0
000BFF100002FFFF50
000CFF100008FFFB00
000CFF51029FFFB100
000DFF8ADEFDA50000
000DFF300000000000
000EFF300000000000
000EFF300000000000
000FFF300000000000
001FFF300000000000
001FFF300000000000
002FFF300000000000
003FFF300000000000
003FFF300000000000
004FFF400000000000
005FFF400000000000
007FFF600000000000
00CFFF900000000000
08FFFFE30000000000
9FFFFFFF9300000000
542101257600000000
ENDCHAR
STARTCHAR germandbls
ENCODING 223
SWIDTH 591 0
DWIDTH 21 0
BBX 22 39 -1 -4
BITMAP
00005BEFD9300000000000
0009C4117FF70000000000
006E100006FF6000000000
00E8000000DFE000000000
04F50000009FF400000000
08F30000007FF700000000
0BF30000006FF800000000
0CF30000007FF800000000
0CF40000008FF500000000
0CF6000000BFE100000000
0CF8000001FF8000000000
0AFB000008FD1000000000
09FD00002FE20000000000
08FF1001DC200000000000
06FF402C80000000000000
04FF73EEEFEDB830000000
02FFB00136BFFFFD500000
00FFE0000003CFFFFB1000
00DFF300000009FFFFC100
00AFF6000000009FFFFA00
008FFA000000000CFFFF50
005FFE0000000002FFFFB0
003FFF30000000008FFFF2
000FFF70000000001FFFF6
000CFFB00000000009FFF9
0009FFF10000000004FFFA
0006FFF50000000000EFFB
0004FFF90000000000BFFB
0001FFFE00000000008FFA
0000DFFF40000000007FF8
0000BFFF80000000007FF4
00009FFFD01BE900008FE0
00008FFFF36FFF7000CF70
0000BFFFF76FFFE517FC00
0005FFFFE82EFFFFFFC100
004EFC730002ADFEB50000
04EC400000000000000000
6E60000000000000000000
6100000000000000000000
ENDCHAR
STARTCHAR agrave
ENCODING 224
SWIDTH 527 0
DWIDTH 19 0
BBX 21 35 0 -4
BITMAP
0AE6000000000000000000
0CFF600000000000000000
04FFF30000000000000000
005FFD1000000000000000
0004FF8000000000000000
00004EF200000000000000
000002B600000000000000
0000000000000000000000
0000000000000000000000
000019DFEB500000000000
0002D7117FFA0000000000
000C800007FF9000000000
004F400001EFF300000000
008F700000BFF900000000
00AFF700009FFE00000000
009FFFB0007FFF30000000
007FFFF5005FFF60000000
001EFFF6003FFF90000000
0003CEA0001FFFC0000000
00000000000FFFE0000000
00000000000EFFF2000000
00005ADEFECEFFF4000000
003DFC52014CFFF7000000
03EFB0000008FFF9000000
0CFF30000006FFFC000000
3FFF00000005FFFE000000
6FFF00000003FFFF200000
6FFF5000001BFFFF400000
4FFFE61028EDDFFF600300
0EFFFFFFFFE2BFFF900B20
04EFFFFFFC207FFFE00B30
0029DFEB60002FFFF71E20
0000000000000BFFFFFD00
00000000000003EFFFF800
000000000000003BEE8000
ENDCHAR
STARTCHAR aacute
ENCODING 225
SWIDTH 527 0
DWIDTH 19 0
BBX 21 35 0 -4
BITMAP
00000000001BA000000000
0000000000BF9000000000
0000000005FF2000000000
000000000DF80000000000
000000005FC00000000000
00000000AE200000000000
00000000C3000000000000
0000000000000000000000
0000000000000000000000
000019DFEB500000000000
0002D7117FFA0000000000
000C800007FF9000000000
004F400001EFF300000000
008F700000BFF900000000
00AFF700009FFE00000000
009FFFB0007FFF30000000
007FFFF5005FFF60000000
001EFFF6003FFF90000000
0003CEA0001FFFC0000000
00000000000FFFE0000000
00000000000EFFF2000000
00005ADEFECEFFF4000000
003DFC52014CFFF7000000
03EFB0000008FFF9000000
0CFF30000006FFFC000000
3FFF00000005FFFE000000
6FFF00000003FFFF200000
6FFF5000001BFFFF400000
4FFFE61028EDDFFF600300
0EFFFFFFFFE2BFFF900B20
04EFFFFFFC207FFFE00B30
0029DFEB60002FFFF71E20
0000000000000BFFFFFD00
00000000000003EFFFF800
000000000000003BEE8000
ENDCHAR
STARTCHAR acircumflex
ENCODING 226
SWIDTH 527 0
DWIDTH 19 0
BBX 21 34 0 -4
BITMAP
00000001C3000000000000
0000000AFD100000000000
0000006FFFC10000000000
000003FA4EFC1000000000
00001D9002DFD200000000
0001C9000019FE60000000
001C6000000039E6000000
01A3000000000000000000
000019DFEB500000000000
0002D7117FFA0000000000
000C800007FF9000000000
004F400001EFF300000000
008F700000BFF900000000
00AFF700009FFE00000000
009FFFB0007FFF30000000
007FFFF5005FFF60000000
001EFFF6003FFF90000000
0003CEA0001FFFC0000000
00000000000FFFE0000000
00000000000EFFF2000000
00005ADEFECEFFF4000000
003DFC52014CFFF7000000
03EFB0000008FFF9000000
0CFF30000006FFFC000000
3FFF00000005FFFE000000
6FFF00000003FFFF200000
6FFF5000001BFFFF400000
4FFFE61028EDDFFF600300
0EFFFFFFFFE2BFFF900B20
04EFFFFFFC207FFFE00B30
0029DFEB60002FFFF71E20
0000000000000BFFFFFD00
00000000000003EFFFF800
000000000000003BEE8000
ENDCHAR
STARTCHAR atilde
ENCODING 227
SWIDTH 527 0
DWIDTH 19 0
BBX 21 33 0 -4
BITMAP
000009ED70000000000000
00008FFFFC200000000000
0001D24EFFF82186000000
00056002DFFFFFF5000000
000610002CFFFFD0000000
00000000017DFC20000000
0000000000000000000000
000019DFEB500000000000
0002D7117FFA0000000000
000C800007FF9000000000
004F400001EFF300000000
008F700000BFF900000000
00AFF700009FFE00000000
009FFFB0007FFF30000000
007FFFF5005FFF60000000
001EFFF6003FFF90000000
0003CEA0001FFFC0000000
00000000000FFFE0000000
00000000000EFFF2000000
00005ADEFECEFFF4000000
003DFC52014CFFF7000000
03EFB0000008FFF9000000
0CFF30000006FFFC000000
3FFF00000005FFFE000000
6FFF00000003FFFF200000
6FFF5000001BFFFF400000
4FFFE61028EDDFFF600300
0EFFFFFFFFE2BFFF900B20
04EFFFFFFC207FFFE00B30
0029DFEB60002FFFF71E20
0000000000000BFFFFFD00
00000000000003EFFFF800
000000000000003BEE8000
ENDCHAR
STARTCHAR adieresis
ENCODING 228
SWIDTH 527 0
DWIDTH 19 0
BBX 21 31 0 -4
BITMAP
00009EC11CE50000000000
0005FFF67FFB0000000000
0006FFF48FFA0000000000
0001BE902DD30000000000
0000000000000000000000
000019DFEB500000000000
0002D7117FFA0000000000
000C800007FF9000000000
004F400001EFF300000000
008F700000BFF900000000
00AFF700009FFE00000000
009FFFB0007FFF30000000
007FFFF5005FFF60000000
001EFFF6003FFF90000000
0003CEA0001FFFC0000000
00000000000FFFE0000000
00000000000EFFF2000000
00005ADEFECEFFF4000000
003DFC52014CFFF7000000
03EFB0000008FFF9000000
0CFF30000006FFFC000000
3FFF00000005FFFE000000
6FFF00000003FFFF200000
6FFF5000001BFFFF400000
4FFFE61028EDDFFF600300
0EFFFFFFFFE2BFFF900B20
04EFFFFFFC207FFFE00B30
0029DFEB60002FFFF71E20
0000000000000BFFFFFD00
00000000000003EFFFF800
000000000000003BEE8000
ENDCHAR
STARTCHAR aring
ENCODING 229
SWIDTH 527 0
DWIDTH 19 0
BBX 21 37 0 -4
BITMAP
0000004CFEA20000000000
000005F612AE2000000000
00000E80000C8000000000
00004F400008C000000000
00006F300008D000000000
00005F70000CB000000000
00001FF6119F6000000000
000008FFFFFC0000000000
0000006CFE910000000000
0000000000000000000000
0000000000000000000000
000019DFEB500000000000
0002D7117FFA0000000000
000C800007FF9000000000
004F400001EFF300000000
008F700000BFF900000000
00AFF700009FFE00000000
009FFFB0007FFF30000000
007FFFF5005FFF60000000
001EFFF6003FFF90000000
0003CEA0001FFFC0000000
00000000000FFFE0000000
00000000000EFFF2000000
00005ADEFECEFFF4000000
003DFC52014CFFF7000000
03EFB0000008FFF9000000
0CFF30000006FFFC000000
3FFF00000005FFFE000000
6FFF00000003FFFF200000
6FFF5000001BFFFF400000
4FFFE61028EDDFFF600300
0EFFFFFFFFE2BFFF900B20
04EFFFFFFC207FFFE00B30
0029DFEB60002FFFF71E20
0000000000000BFFFFFD00
00000000000003EFFFF800
000000000000003BEE8000
ENDCHAR
STARTCHAR ae
ENCODING 230
SWIDTH 700 0
DWIDTH 25 0
BBX 25 24 0 -3
BITMAP
00000000000000029DFEA30000
000000000000005EFFFFFF5000
00000000000005D6115DFFE200
0006CFD700003D100003FFF700
007E415EB000D3000000CFFA00
02F80006F608A00000009FFA00
07F90001FD1E40000000AFF800
0AFF3000CFAF00000000DFF500
0AFFD000AFFC00000003FFE100
07FFF1009FFA0000000CFF6000
01BE8001CFF9000002BFF90000
0000039EFFF900249EFE700000
0001AE619FFEDEFEDA61000000
002EE2004FFC00000000000A00
01DF50002FFF10000000000A50
0AFC00000FFF70000000000980
1FF800000FFFE1000000000A90
5FF600001FFFFB000000001E80
6FF600005EFFFFB10000009F60
6FFA0000C8CFFFFE83113AFF10
4FFF712AF44FFFFFFFFFFFF900
0DFFFFFFC008FFFFFFFFFFD100
04FFFFFE30007FFFFFFFFD2000
003BEEA20000039DEFEC710000
ENDCHAR
STARTCHAR ccedilla
ENCODING 231
SWIDTH 437 0
DWIDTH 16 0
BBX 16 31 0 -9
BITMAP
0000016BEFEA3000
00004A317FFFF600
0005D1000EFFFF10
003F50000CFFFF50
00CE00000AFFFF50
05FB000006FFFE10
0BF80000009ED500
1FF7000000000000
4FF7000000000000
5FF8000000006900
7FFA000000000C60
6FFD0000000006D0
5FFF2000000003F2
2FFF8000000003F2
0DFFE200000007F1
07FFFD2000002ED0
01DFFFE72115EF70
004FFFFFFFFFFC10
0004EFFFFFFFC200
000017CEFEB50000
00000001C0000000
00000004B0000000
00000009FC600000
0000000DFFFA0000
000000028FFF6000
0000000008FFA000
0000100004FFC000
0000660004FFA000
00002E612CFF5000
000008FFFFFB0000
0000007DFD800000
ENDCHAR
STARTCHAR egrave
ENCODING 232
SWIDTH 434 0
DWIDTH 16 0
BBX 16 29 0 1
BITMAP
007E800000000000
009FF90000000000
002EFF6000000000
0003EFE200000000
00002DFB00000000
000002CF50000000
0000001990000000
0000000000000000
0000000000000000
0000006BEFDA4000
00003DF9217FF800
0005FF90000AFF50
003FFE100004FFC0
00DFF9000002FFF0
06FFF4000002FFF1
0CFFF1000004FFF0
1FFFE0000007FFB0
4FFFC000000DFF50
5FFFB000009FFA00
6FFFC3003AFF8000
5FFFECEFEC820940
4FFFD000000006B0
1FFFF100000003E0
0CFFF600000004F0
06FFFD00000006E0
00CFFF9000000DA0
003EFFFC4103CF30
0002CFFFFFFFF600
000005ADEFD92000
ENDCHAR
STARTCHAR eacute
ENCODING 233
SWIDTH 434 0
DWIDTH 16 0
BBX 16 28 0 1
BITMAP
00000000002D8000
0000000001DF7000
0000000008FE1000
000000001EF50000
000000007FA00000
00000000DC100000
00000002C1000000
0000000000000000
0000006BEFDA4000
00003DF9217FF800
0005FF90000AFF50
003FFE100004FFC0
00DFF9000002FFF0
06FFF4000002FFF1
0CFFF1000004FFF0
1FFFE0000007FFB0
4FFFC000000DFF50
5FFFB000009FFA00
6FFFC3003AFF8000
5FFFECEFEC820940
4FFFD000000006B0
1FFFF100000003E0
0CFFF600000004F0
06FFFD00000006E0
00CFFF9000000DA0
003EFFFC4103CF30
0002CFFFFFFFF600
000005ADEFD92000
ENDCHAR
STARTCHAR ecircumflex
ENCODING 234
SWIDTH 434 0
DWIDTH 16 0
BBX 16 30 0 1
BITMAP
00000004C1000000
0000001DFA000000
000000AFFF800000
000007F66FF90000
00004F6004EFA100
0003E500002BFD40
003D400000005BE3
02A2000000000000
0000000000000000
0000000000000000
0000006BEFDA4000
00003DF9217FF800
0005FF90000AFF50
003FFE100004FFC0
00DFF9000002FFF0
06FFF4000002FFF1
0CFFF1000004FFF0
1FFFE0000007FFB0
4FFFC000000DFF50
5FFFB000009FFA00
6FFFC3003AFF8000
5FFFECEFEC820940
4FFFD000000006B0
1FFFF100000003E0
0CFFF600000004F0
06FFFD00000006E0
00CFFF9000000DA0
003EFFFC4103CF30
0002CFFFFFFFF600
000005ADEFD92000
ENDCHAR
STARTCHAR edieresis
ENCODING 235
SWIDTH 434 0
DWIDTH 16 0
BBX 16 26 0 1
BITMAP
000009EC11CE5000
00005FFF67FFB000
00006FFF48FFA000
00001BE902DD3000
0000000000000000
0000000000000000
0000006BEFDA4000
00003DF9217FF800
0005FF90000AFF50
003FFE100004FFC0
00DFF9000002FFF0
06FFF4000002FFF1
0CFFF1000004FFF0
1FFFE0000007FFB0
4FFFC000000DFF50
5FFFB000009FFA00
6FFFC3003AFF8000
5FFFECEFEC820940
4FFFD000000006B0
1FFFF100000003E0
0CFFF600000004F0
06FFFD00000006E0
00CFFF9000000DA0
003EFFFC4103CF30
0002CFFFFFFFF600
000005ADEFD92000
ENDCHAR
STARTCHAR igrave
ENCODING 236
SWIDTH 301 0
DWIDTH 11 0
BBX 13 29 -2 3
BITMAP
3EB20000000000
4FFD1000000000
0AFFB000000000
00BFF600000000
000AFE20000000
00009FA0000000
000006D0000000
00000000000000
00000000000000
00000000000000
00000000083000
00000003BF2000
000136BFFF0000
005FFFFFFD0000
00014EFFFC0000
000008FFFA0000
000007FFF80000
000006FFF70000
000006FFF50000
000006FFF40000
000006FFF30000
000006FFF10000
000006FFF00000
000007FFE00000
000007FFD00000
000008FFD00000
000009FFE00000
00005EFFFA3000
003EECCCDEFE30
ENDCHAR
STARTCHAR iacute
ENCODING 237
SWIDTH 301 0
DWIDTH 11 0
BBX 11 28 0 3
BITMAP
00000009D000
0000008FC000
000003FF4000
00000BFA0000
00002FD10000
00008E300000
0000B4000000
000000000000
000000000000
000000083000
000003BF2000
0136BFFF0000
5FFFFFFD0000
014EFFFC0000
0008FFFA0000
0007FFF80000
0006FFF70000
0006FFF50000
0006FFF40000
0006FFF30000
0006FFF10000
0006FFF00000
0007FFE00000
0007FFD00000
0008FFD00000
0009FFE00000
005EFFFA3000
3EECCCDEFE30
ENDCHAR
STARTCHAR icircumflex
ENCODING 238
SWIDTH 301 0
DWIDTH 11 0
BBX 15 28 -2 3
BITMAP
0000003C10000000
000001DFA0000000
000009FFF9000000
00006F66FF900000
0004F6004EFB1000
003E500002BFD400
03D400000004BE30
2A20000000000000
0000000000000000
0000000008300000
00000003BF200000
000136BFFF000000
005FFFFFFD000000
00014EFFFC000000
000008FFFA000000
000007FFF8000000
000006FFF7000000
000006FFF5000000
000006FFF4000000
000006FFF3000000
000006FFF1000000
000006FFF0000000
000007FFE0000000
000007FFD0000000
000008FFD0000000
000009FFE0000000
00005EFFFA300000
003EECCCDEFE3000
ENDCHAR
STARTCHAR idieresis
ENCODING 239
SWIDTH 301 0
DWIDTH 11 0
BBX 11 25 0 3
BITMAP
008EC11BE500
04FFF67FFC00
05FFF57FFB00
01BE902DD300
000000000000
000000000000
000000083000
000003BF2000
0136BFFF0000
5FFFFFFD0000
014EFFFC0000
0008FFFA0000
0007FFF80000
0006FFF70000
0006FFF50000
0006FFF40000
0006FFF30000
0006FFF10000
0006FFF00000
0007FFE00000
0007FFD00000
0008FFD00000
0009FFE00000
005EFFFA3000
3EECCCDEFE30
ENDCHAR
STARTCHAR eth
ENCODING 240
SWIDTH 476 0
DWIDTH 17 0
BBX 20 33 -3 -4
BITMAP
00000000000000100000
00000000000002800000
0000000000000B100000
00000000000077000000
000028CEEDA6C0000000
0019D72014BFD3000000
03E8100000A7FF600000
3E50000004904FF60000
B40000000C1008FF2000
00000000760001EFC000
00000001B000009FF400
000000012000003FFB00
000000000000000EFF10
000000000000000BFF60
0000000000000009FFA0
0000000000000008FFD0
0000000000000007FFF1
000000004AEFDA48FFF3
00000009FE5117EEFFF5
0000009FF500003FFFF7
000003FFD0000008FFF7
00000AFF90000001FFF8
00000EFF70000000BFF8
00002FFF700000008FF8
00003FFF800000006FF7
00002FFFB00000005FF5
00000FFFE00000004FF2
00000BFFF50000005FE0
000005FFFC0000008F80
000000CFFF900001EF20
0000002EFFFA303CF900
00000002CFFFFFFFA000
0000000005ADEEB50000
ENDCHAR
STARTCHAR ntilde
ENCODING 241
SWIDTH 584 0
DWIDTH 21 0
BBX 21 31 0 -1
BITMAP
0000000009ED7000000000
000000007FFFFC20000000
00000001D24EFFF8218600
000000056002DFFFFFF500
0000000610002CFFFFD000
000000000000007DFC2000
0000000000000000000000
0000011000000000000000
00000B7000000000000000
00007FA000000000000000
0005FFC000018DFD810000
005FFFE0002DFFFFFC1000
2AFFFFF100CFFFFFFF8000
651AFFF308B204EFFFE000
0004FFF51C00003FFFF300
0000FFF78400000BFFF600
0000CFF9C0000008FFF600
00008FFDA0000005FFF600
00004FFF80000004FFF500
00001FFF60000003FFF400
00000DFF50000003FFF200
00000AFF40000004FFF000
000008FF40000004FFD000
000005FF50000006FFC000
000003FF60000007FFA000
000002FF9000000AFF9000
000001FFC000015FFF8000
000004FFF404FFFFFF9000
002DEFFFFF800259DFE100
000321012451000005DD20
00000000000000000018D0
ENDCHAR
STARTCHAR ograve
ENCODING 242
SWIDTH 400 0
DWIDTH 14 0
BBX 25 29 0 6
BITMAP
00000000000000000002BEB200
00000000000000000009FFFB00
0000000000000000000AFFFF10
00000000000000000003EFFF20
000000000000000000002DFF10
07E8000000000000000002FD00
09FF900000000000000000D900
02EFF60000000000000000E400
003EFE2000000000000003C000
0002DFB00000000000000A4000
00002CF5000000000000390000
00000199000000000001B10000
0000000000000000001A200000
000000000000000002A3000000
00000000000000018A10000000
00000000000026AB4000000000
00017DC5FEEDB7200000000000
003DFE21CFF900000000000000
02EFF5002FFFA0000000000000
0BFFC0000AFFF5000000000000
3FFF600005FFFB000000000000
7FFF200003FFFE000000000000
8FFF100002FFFF000000000000
8FFF000004FFFD000000000000
5FFF100005FFFA000000000000
1EFF400009FFF3000000000000
07FF90001EFF80000000000000
008FF612BFF700000000000000
00039DFEC82000000000000000
ENDCHAR
STARTCHAR oacute
ENCODING 243
SWIDTH 400 0
DWIDTH 14 0
BBX 25 29 0 6
BITMAP
00000000000000000002BEB200
00000000000000000009FFFB00
0000000000000000000AFFFF10
00000000000000000003EFFF20
000000000000000000002DFF10
0000000000000000000002FD00
00000000002D7000000000D900
0000000001DF6000000000E400
0000000008FD1000000003C000
000000001FF5000000000A4000
000000008F9000000000390000
00000000DC0000000001B10000
00000002B1000000001A200000
000000000000000002A3000000
00000000000000018A10000000
00000000000026AB4000000000
00017DC5FEEDB7200000000000
003DFE21CFF900000000000000
02EFF5002FFFA0000000000000
0BFFC0000AFFF5000000000000
3FFF600005FFFB000000000000
7FFF200003FFFE000000000000
8FFF100002FFFF000000000000
8FFF000004FFFD000000000000
5FFF100005FFFA000000000000
1EFF400009FFF3000000000000
07FF90001EFF80000000000000
008FF612BFF700000000000000
00039DFEC82000000000000000
ENDCHAR
STARTCHAR ocircumflex
ENCODING 244
SWIDTH 400 0
DWIDTH 14 0
BBX 25 29 0 6
BITMAP
00000000000000000002BEB200
00000000000000000009FFFB00
0000000000000000000AFFFF10
00000000000000000003EFFF20
000000000000000000002DFF10
0000000000000000000002FD00
0000000970000000000000D900
0000005FF4000000000000E400
000002EFFE300000000003C000
00000CD3BFE4000000000A4000
0000AD2009FF60000000390000
0008C100006EFA100001B10000
008A100000017DB0001A200000
077000000000000002A3000000
00000000000000018A10000000
00000000000026AB4000000000
00017DC5FEEDB7200000000000
003DFE21CFF900000000000000
02EFF5002FFFA0000000000000
0BFFC0000AFFF5000000000000
3FFF600005FFFB000000000000
7FFF200003FFFE000000000000
8FFF100002FFFF000000000000
8FFF000004FFFD000000000000
5FFF100005FFFA000000000000
1EFF400009FFF3000000000000
07FF90001EFF80000000000000
008FF612BFF700000000000000
00039DFEC82000000000000000
ENDCHAR
STARTCHAR otilde
ENCODING 245
SWIDTH 400 0
DWIDTH 14 0
BBX 25 29 0 6
BITMAP
00000000000000000002BEB200
00000000000000000009FFFB00
0000000000000000000AFFFF10
00000000000000000003EFFF20
000000000000000000002DFF10
0000000000000000000002FD00
0000000000000000000000D900
0000000000000000000000E400
00001AEC50000000000003C000
0000AFFFFA10000000000A4000
0003B16FFFE612A30000390000
00074004EFFFFFF20001B10000
000700003EFFFFB0001A200000
00000000019EEA1002A3000000
00000000000000018A10000000
00000000000026AB4000000000
00017DC5FEEDB7200000000000
003DFE21CFF900000000000000
02EFF5002FFFA0000000000000
0BFFC0000AFFF5000000000000
3FFF600005FFFB000000000000
7FFF200003FFFE000000000000
8FFF100002FFFF000000000000
8FFF000004FFFD000000000000
5FFF100005FFFA000000000000
1EFF400009FFF3000000000000
07FF90001EFF80000000000000
008FF612BFF700000000000000
00039DFEC82000000000000000
ENDCHAR
STARTCHAR odieresis
ENCODING 246
SWIDTH 400 0
DWIDTH 14 0
BBX 25 29 0 6
BITMAP
00000000000000000002BEB200
00000000000000000009FFFB00
0000000000000000000AFFFF10
00000000000000000003EFFF20
000000000000000000002DFF10
0000000000000000000002FD00
0000000000000000000000D900
0000000000000000000000E400
0000000000000000000003C000
00003CE605EB100000000A4000
0000CFFE0EFF40000000390000
0000DFFD0EFF30000001B10000
00005ED407EA0000001A200000
000000000000000002A3000000
00000000000000018A10000000
00000000000026AB4000000000
00017DC5FEEDB7200000000000
003DFE21CFF900000000000000
02EFF5002FFFA0000000000000
0BFFC0000AFFF5000000000000
3FFF600005FFFB000000000000
7FFF200003FFFE000000000000
8FFF100002FFFF000000000000
8FFF000004FFFD000000000000
5FFF100005FFFA000000000000
1EFF400009FFF3000000000000
07FF90001EFF80000000000000
008FF612BFF700000000000000
00039DFEC82000000000000000
ENDCHAR
STARTCHAR divide
ENCODING 247
SWIDTH 592 0
DWIDTH 21 0
BBX 19 14 1 4
BITMAP
00000005DE5000000000
0000000EFFC000000000
0000000FFFC000000000
00000006ED4000000000
00000000000000000000
00000000000000000000
00000000000011222200
2DFFFEEDDDDDDCDDDC60
00000000000000000000
00000000000000000000
00000004DE7000000000
0000000DFFF000000000
0000000EFFE000000000
00000006ED4000000000
ENDCHAR
STARTCHAR oslash
ENCODING 248
SWIDTH 396 0
DWIDTH 14 0
BBX 14 22 0 0
BITMAP
00000000A40000
00000000F30000
00000004E00000
00017CEFFA4000
004EF71BDFFA00
03FF800E4CFF90
0CFF104E05FFF2
3FFB008A02FFF7
7FF900C600FFF9
8FF802F201FFFA
8FF907D002FFF8
5FFB0C8005FFF4
1EFE2F4009FFD0
07FFBE002EFF30
008FFB03CFE400
0003FFFEC71000
0003F400000000
0007E000000000
000BB000000000
000F7000000000
003F2000000000
00030000000000
ENDCHAR
STARTCHAR ugrave
ENCODING 249
SWIDTH 744 0
DWIDTH 27 0
BBX 27 27 0 1
BITMAP
00000003EB200000000000000000
00000004FFD10000000000000000
00000000AFFB0000000000000000
000000000BFF6000000000000000
0000000000AFE200000000000000
000000000009FA00000000000000
0000000000006D00000000000000
0000000000000000000000000000
00000057000000000019A0000000
000003EB0000001259EFC0000000
00006FFD00000CEDEFFFD0000000
015CFFFF000000001CFFE0000000
4DA8DFFF3000000005FFF0000000
00004FFF5000000002FFF1000000
00000EFF8000000002FFF3000000
00000CFFB000000002FFF4000000
00000AFFD000000002FFF5000000
000008FFF100000004FFF7000000
000006FFF500000005EFF9000000
000004FFF9000000089FFB000000
000001FFFD0000000C4FFD000000
000000CFFF5000003C1FFF500000
0000008FFFD10000B70DFFFCCE90
0000002FFFFC312AE107DA864200
00000009FFFFFFFF700000000000
00000000BFFFFFF9000000000000
0000000007CFEB50000000000000
ENDCHAR
STARTCHAR uacute
ENCODING 250
SWIDTH 744 0
DWIDTH 27 0
BBX 27 27 0 1
BITMAP
000000000000009D000000000000
00000000000007FD000000000000
0000000000002FF5000000000000
000000000000AFB0000000000000
000000000002FE20000000000000
000000000007F400000000000000
00000000000A5000000000000000
0000000000000000000000000000
00000057000000000019A0000000
000003EB0000001259EFC0000000
00006FFD00000CEDEFFFD0000000
015CFFFF000000001CFFE0000000
4DA8DFFF3000000005FFF0000000
00004FFF5000000002FFF1000000
00000EFF8000000002FFF3000000
00000CFFB000000002FFF4000000
00000AFFD000000002FFF5000000
000008FFF100000004FFF7000000
000006FFF500000005EFF9000000
000004FFF9000000089FFB000000
000001FFFD0000000C4FFD000000
000000CFFF5000003C1FFF500000
0000008FFFD10000B70DFFFCCE90
0000002FFFFC312AE107DA864200
00000009FFFFFFFF700000000000
00000000BFFFFFF9000000000000
0000000007CFEB50000000000000
ENDCHAR
STARTCHAR ucircumflex
ENCODING 251
SWIDTH 744 0
DWIDTH 27 0
BBX 27 27 0 1
BITMAP
00000000003C1000000000000000
0000000001DFB000000000000000
0000000009FFF900000000000000
000000006F76FF90000000000000
00000003F7004EFB100000000000
0000003E600002BFD40000000000
000003D400000004AE3000000000
00002A2000000000000000000000
00000057000000000019A0000000
000003EB0000001259EFC0000000
00006FFD00000CEDEFFFD0000000
015CFFFF000000001CFFE0000000
4DA8DFFF3000000005FFF0000000
00004FFF5000000002FFF1000000
00000EFF8000000002FFF3000000
00000CFFB000000002FFF4000000
00000AFFD000000002FFF5000000
000008FFF100000004FFF7000000
000006FFF500000005EFF9000000
000004FFF9000000089FFB000000
000001FFFD0000000C4FFD000000
000000CFFF5000003C1FFF500000
0000008FFFD10000B70DFFFCCE90
0000002FFFFC312AE107DA864200
00000009FFFFFFFF700000000000
00000000BFFFFFF9000000000000
0000000007CFEB50000000000000
ENDCHAR
STARTCHAR udieresis
ENCODING 252
SWIDTH 744 0
DWIDTH 27 0
BBX 27 25 0 1
BITMAP
0000000006ED20AE700000000000
000000002FFF94FFE00000000000
000000003FFF75FFD00000000000
000000000AEB11CE500000000000
0000000000000000000000000000
0000000000000000000000000000
00000057000000000019A0000000
000003EB0000001259EFC0000000
00006FFD00000CEDEFFFD0000000
015CFFFF000000001CFFE0000000
4DA8DFFF3000000005FFF0000000
00004FFF5000000002FFF1000000
00000EFF8000000002FFF3000000
00000CFFB000000002FFF4000000
00000AFFD000000002FFF5000000
000008FFF100000004FFF7000000
000006FFF500000005EFF9000000
000004FFF9000000089FFB000000
000001FFFD0000000C4FFD000000
000000CFFF5000003C1FFF500000
0000008FFFD10000B70DFFFCCE90
0000002FFFFC312AE107DA864200
00000009FFFFFFFF700000000000
00000000BFFFFFF9000000000000
0000000007CFEB50000000000000
ENDCHAR
STARTCHAR yacute
ENCODING 253
SWIDTH 659 0
DWIDTH 24 0
BBX 24 41 0 -16
BITMAP
0000000000000000AC000000
0000000000000009FB000000
000000000000003FF4000000
00000000000000BF90000000
00000000000003FD10000000
000000002A9009E300000000
00000019FA100B4000000000
000029EF7000000000002594
026BFFFC000009EDDDEFFF80
5EEFFFF700000027EFFFFB00
002FFFF6000000006FFFF700
000EFFF6000000001FFFF600
000BFFF7000000000EFFF500
0008FFF8000000000DFFF400
0005FFFA000000000DFFF300
0002FFFC000000000EFFF200
0000EFFE000000000FFFF000
0000AFFF300000002FFFE000
00006FFF700000006FFFC000
00001FFFD0000000AFFFB000
00000AFFF5000001DBFF9000
000003FFFD1000097AFF7000
0000008FFFD5128C0BFF4000
00000009FFFFFFC20BFF2000
000000005BEEC7100CFE0000
00000000000000000DFB0000
00000000000000000FF80000
00000000000000001FF40000
00000000000000003FE00000
00000000000000005FB00000
00000000000000008F700000
0000018DEB300000BF200000
00000BFFFFE10000EC000000
00005FFFFFF50005F6000000
0000B73FFFF3000BE1000000
0000D105DE80002F70000000
0000D000000000AC00000000
0000C200000006E300000000
00007A0000005E5000000000
00000BB3014AD40000000000
0000007CFEC7100000000000
ENDCHAR
STARTCHAR thorn
ENCODING 254
SWIDTH 514 0
DWIDTH 19 0
BBX 20 53 -2 -22
BITMAP
00000018900000000000
000006DC200000000000
036AEFF2000000000000
ADCFFFC0000000000000
000BFFB0000000000000
0007FFB0000000000000
0005FFC0000000000000
0003FFC0000000000000
0001FFD0000000000000
0000FFE0000000000000
0000EFF0000000000000
0000DFF1000000000000
0000BFF1000000000000
0000AFF239DFDA500000
0000AFF9FFFFFFFC2000
00009FFFB214CFFFD200
00008FFE10001CFFFC00
00007FFB000003FFFF60
00007FF9000000CFFFD0
00006FF90000007FFFF3
00005FFA0000004FFFF6
00005FFA0000002FFFF9
00005FFB0000001FFFFB
00004FFC0000001FFFFC
00004FFD0000001FFFFB
00004FFF0000003FFFFA
00003FFF2000006FFFF8
00003FFF600000AFFFF4
00003FFFC00003FFFFD0
00003FFFF9215EFFFF50
00003FFF7CFFFFFFF600
00002FFF706BEFD92000
00002FFF700000000000
00002FFF800000000000
00002FFF900000000000
00002FFFA00000000000
00002FFFB00000000000
00002FFFC00000000000
00002FFFD00000000000
00002FFFE00000000000
00002FFFF00000000000
00002FFFF00000000000
00002FFFF10000000000
00003FFFF20000000000
00003FFFF30000000000
00003FFFF40000000000
00004FFFF50000000000
00004FFFF60000000000
00006FFFF70000000000
00009FFFF90000000000
0016FFFFFE2000000000
07FEEEFFFFE841000000
00000001357ADE200000
ENDCHAR
STARTCHAR ydieresis
ENCODING 255
SWIDTH 659 0
DWIDTH 24 0
BBX 24 42 0 -16
BITMAP
00000000003CE506EB000000
0000000000DFFD0FFF400000
0000000000EFFC0FFF200000
00000000006ED308E9000000
000000000000000000000000
000000000000000000000000
000000002A90000000000000
00000019FA10000000000000
000029EF7000000000002594
026BFFFC000009EDDDEFFF80
5EEFFFF700000027EFFFFB00
002FFFF6000000006FFFF700
000EFFF6000000001FFFF600
000BFFF7000000000EFFF500
0008FFF8000000000DFFF400
0005FFFA000000000DFFF300
0002FFFC000000000EFFF200
0000EFFE000000000FFFF000
0000AFFF300000002FFFE000
00006FFF700000006FFFC000
00001FFFD0000000AFFFB000
00000AFFF5000001DBFF9000
000003FFFD1000097AFF7000
0000008FFFD5128C0BFF4000
00000009FFFFFFC20BFF2000
000000005BEEC7100CFE0000
00000000000000000DFB0000
00000000000000000FF80000
00000000000000001FF40000
00000000000000003FE00000
00000000000000005FB00000
00000000000000008F700000
0000018DEB300000BF200000
00000BFFFFE10000EC000000
00005FFFFFF50005F6000000
0000B73FFFF3000BE1000000
0000D105DE80002F70000000
0000D000000000AC00000000
0000C200000006E300000000
00007A0000005E5000000000
00000BB3014AD40000000000
0000007CFEC7100000000000
ENDCHAR
STARTCHAR dotlessi
ENCODING 305
SWIDTH 301 0
DWIDTH 11 0
BBX 11 19 0 3
BITMAP
000000083000
000003BF2000
0136BFFF0000
5FFFFFFD0000
014EFFFC0000
0008FFFA0000
0007FFF80000
0006FFF70000
0006FFF50000
0006FFF40000
0006FFF30000
0006FFF10000
0006FFF00000
0007FFE00000
0007FFD00000
0008FFD00000
0009FFE00000
005EFFFA3000
3EECCCDEFE30
ENDCHAR
STARTCHAR OE
ENCODING 338
SWIDTH 1132 0
DWIDTH 41 0
BBX 41 37 0 -7
BITMAP
000000000000000000000000000000000017500000
0000000000000000000000000000000017EF700000
0000000000000000000000000000015AEFFF600000
0000000000000000000000001358CFDA758F700000
0000000038BDEFEC83002EFFFFFC7200000A800000
0000005CFFFFFFFFFFC402DFFFE000000005A00000
00001AFFFC621126CFFF905FFFE000000001C00000
0002DFFF6000000004DFFB1FFFF000000000800000
001DFFF400000000001CFFBDFFF000000000000000
00AFFF80000000000001DFFFFFF100000000000000
04FFFE100000000000003FFFFFF200000000000000
0BFFF90000000000000009FFFFF300000000000000
2FFFF50000000000000002FFFFF400000050000000
6FFFF30000000000000000BFFFF5000000A0000000
9FFFF200000000000000006FFFF6000002B0000000
BFFFF200000000000000003FFFF700000A90000000
CFFFF300000000000000000FFFFA0247DF80000000
BFFFF600000000000000000DFFFFFCAACF80000000
AFFFF900000000000000000CFFFD10000B90000000
8FFFFD00000000000000000CFFFB000004A0000000
4FFFFF40000000000000000CFFFC000000B0000000
1EFFFFB0000000000000000EFFFD00000050000000
09FFFFF4000000000000003FFFFE00000000000000
01EFFFFD100000000000009FFFFF00000000000000
007FFFFFA0000000000002EFFFFF10000000000070
000AFFFFFA00000000001CDDFFFF200000000001B0
0001BFFFFFC300000002BE2AFFFF30000000000490
000007FFFFFFA510149EC209FFFF40000000000880
00000029FFFFFFFFFFE70009FFFF50000000000E70
0000000015ACDFFDA6100009FFFF60000000006F70
000000000000000000000009FFFF8000000002EF70
000000000000000000000009FFFF900000005DFF80
00000000000000000000000CFFFFB01246AEFFFF90
00000000000000000000004FFFFFFFFFFFFFFFFF80
0000000000000000000006EFEA8542100001123310
00000000000000000018DA62000000000000000000
000000000000000000130000000000000000000000
ENDCHAR
STARTCHAR oe
ENCODING 339
SWIDTH 798 0
DWIDTH 29 0
BBX 29 17 0 3
BITMAP
00003ADFEB7100000029DFDB400000
0009F7117EFE500006FD414DF60000
009FA00003FFF6007FE20005FE1000
05FF4000007FFF34FF800002FF4000
0CFF2000000DFFCCFF300002FF4000
2FFF10000006FFFFFF000005FF1000
5FFF20000001FFFFFD00001DFA0000
6FFF40000000BFFFFE3114CFC10000
6FFF700000007FFFFFCEFEB6009600
4FFFB00000005FFFFF100000004E00
1FFFF10000004FFFFF400000000F20
09FFF70000005FFFFF900000000E30
02EFFE1000007F7FFFF20000002F10
005FFFB00000DB0AFFFC100000AA00
0004DFFB302BB101DFFFD5113AE200
000016BEFDB500001BFFFFFFFE4000
0000000000000000004ADFEC710000
ENDCHAR
STARTCHAR circumflex
ENCODING 710
SWIDTH 483 0
DWIDTH 17 0
BBX 14 8 2 23
BITMAP
000001C3000000
00000AFD100000
00006FFFC10000
0003FA4EFC1000
001DA002CFD200
01C9000019FE70
1C6000000039E7
A3000000000000
ENDCHAR
STARTCHAR caron
ENCODING 711
SWIDTH 428 0
DWIDTH 15 0
BBX 13 10 1 25
BITMAP
00000000000340
14000000004C10
1EA1000004D100
04FC10003E3000
005FC202E60000
0008FE9EA00000
0000DFFE200000
00005FF8000000
00000DF1000000
00000680000000
ENDCHAR
STARTCHAR ring
ENCODING 730
SWIDTH 330 0
DWIDTH 12 0
BBX 10 9 1 30
BITMAP
003AEEB300
03E8128F30
0BB0000AB0
1F700005F0
3F600005F1
2FA0000AE0
0DF8117F90
05FFFFFE10
004BEEA200
ENDCHAR
STARTCHAR tilde
ENCODING 732
SWIDTH 433 0
DWIDTH 16 0
BBX 13 6 1 26
BITMAP
005DE910000000
03FFFFE5000000
0A52CFFFA31590
1A000AFFFFFF90
2500009FFFFF30
00000005CFD500
ENDCHAR
STARTCHAR mu.dup1
ENCODING 956
SWIDTH 634 0
DWIDTH 23 0
BBX 22 31 1 -12
BITMAP
0023000000000000000000
6EFC000000000272000000
8FFB00000005CFF5000000
8FFA00000008FFF7000000
8FFA00000004FFF8000000
7FFA00000000FFFA000000
7FFA00000000BFFB000000
7FFC000000009FFC000000
6FFD000000007FFD000000
6FFF100000005FFF000C30
5FFF400000005FFF1005D1
5FFF800000006FFF3000C7
4FFFE00000008FFF50006B
3FFFE6000000CDFF90005C
3FFF7E200004A6FFE1006A
2FFF29E5116D20DFFB12D7
2FFF305CEEA2004FFFFFE1
1FFF400000000003BEFC30
1FFF500000000000000000
1FFF700000000000000000
0FFF800000000000000000
0FFFA00000000000000000
0EFFC00000000000000000
0EFFE00000000000000000
0DFFF10000000000000000
0CFFF30000000000000000
0CFFF50000000000000000
0BFFF70000000000000000
0AFFF90000000000000000
09FFE90000000000000000
0230000000000000000000
ENDCHAR
STARTCHAR endash
ENCODING 8211
SWIDTH 436 0
DWIDTH 16 0
BBX 13 2 1 7
BITMAP
16532100123430
18BDEEFFFFEC80
ENDCHAR
STARTCHAR emdash
ENCODING 8212
SWIDTH 651 0
DWIDTH 23 0
BBX 21 4 1 7
BITMAP
00000000024679ACDEFE60
002579BDFFFFFFFFFFFE60
1DFFEDCBA9876543321000
0010000000000000000000
ENDCHAR
STARTCHAR quoteleft
ENCODING 8216
SWIDTH 287 0
DWIDTH 10 0
BBX 8 12 1 18
BITMAP
000018C4
0002D900
002EE000
00BFB000
04FFD000
0BFFF500
0FFFFE10
2FFFFF80
3FFFFFC0
1FFFFFB0
09FFFF70
019EE800
ENDCHAR
STARTCHAR quoteright
ENCODING 8217
SWIDTH 291 0
DWIDTH 11 0
BBX 8 12 1 17
BITMAP
03CEE810
0DFFFFB0
2FFFFFF4
1FFFFFF9
07FFFFFA
007FFFFA
0003EFF8
00002FF4
00000DD0
00004F40
0004E700
003C5000
ENDCHAR
STARTCHAR quotesinglbase
ENCODING 8218
SWIDTH 272 0
DWIDTH 10 0
BBX 6 12 2 -6
BITMAP
2AED80
BFFFF8
FFFFFD
EFFFFF
6FFFFD
04DFFB
001EF7
000AF2
000D90
005E20
00D600
067000
ENDCHAR
STARTCHAR quotedblleft
ENCODING 8220
SWIDTH 445 0
DWIDTH 16 0
BBX 14 13 1 16
BITMAP
0000008B000000
00002CA1001A50
0002DB0001B900
001DF20008F100
00AFB0002FD000
03FF90008FF200
0BFFD000BFFD10
1FFFF700DFFFC0
2FFFFE20CFFFF3
3FFFFF807FFFF1
1FFFFF9008ED50
0AFFFF60000000
01AEE800000000
ENDCHAR
STARTCHAR quotedblright
ENCODING 8221
SWIDTH 444 0
DWIDTH 16 0
BBX 14 13 1 17
BITMAP
04CFC300000000
0EFFFE104CEB20
2FFFFF71EFFFB0
0EFFFFA4FFFFF1
06FFFFA3FFFFF3
006FFF80BFFFF2
0007FF502EFFD0
0001FE0005FF80
0003F80002FE10
0009D10007F400
003F40004F6000
00A50007E40000
00000099100000
ENDCHAR
STARTCHAR quotedblbase
ENCODING 8222
SWIDTH 482 0
DWIDTH 17 0
BBX 15 13 1 -9
BITMAP
01AEEA1000000000
0BFFFFB002BED500
1FFFFFF30DFFFF30
1FFFFFF62FFFFF80
09FFFFF81FFFFF80
00AFFFF709FFFF60
0007FFF400BFFF20
00007FF1001EFB00
00003FA0000DF400
00007F20003FA000
0001E70000CD1000
0007800008E20000
000000003C200000
ENDCHAR
STARTCHAR bullet
ENCODING 8226
SWIDTH 351 0
DWIDTH 13 0
BBX 10 9 1 10
BITMAP
0019DFD810
02EFFFFFC0
0BFFFFFFF6
1FFFFFFFFB
3FFFFFFFFC
2FFFFFFFFB
0DFFFFFFF7
05FFFFFFC0
004BEFC710
ENDCHAR
STARTCHAR guilsinglleft
ENCODING 8249
SWIDTH 465 0
DWIDTH 17 0
BBX 14 23 1 -3
BITMAP
00000000000400
00000000008500
0000000002E100
000000000B9000
000000007F2000
00000003F90000
0000002DF20000
000001DF900000
00002DFE100000
0004EFF6000000
008FFFD0000000
1CFFFFE1000000
09FFFFF9000000
004DFFFF500000
00019FFFE20000
000005EFFB0000
0000003EFF6000
00000002DFE200
000000002DFC00
0000000002DF70
00000000002DE2
000000000002DA
00000000000019
ENDCHAR
STARTCHAR guilsinglright
ENCODING 8250
SWIDTH 449 0
DWIDTH 16 0
BBX 14 24 1 -4
BITMAP
00200000000000
00E30000000000
00AC0000000000
003F9000000000
000BF600000000
0003FF60000000
00009FF7000000
00001DFF910000
000005FFFD4000
000000AFFFFB30
0000006FFFFFE2
000000CFFFFB20
000006FFFF7000
00001EFFE40000
00009FFE300000
0003FFE3000000
000BFF40000000
004FF600000000
00BFA000000000
02FE1000000000
08F50000000000
0DB00000000000
1F200000000000
15000000000000
ENDCHAR
STARTCHAR fraction
ENCODING 8260
SWIDTH 406 0
DWIDTH 15 0
BBX 25 35 -6 -1
BITMAP
00000000000000000000000040
000000000000000000000008A0
00000000000000000000004F30
0000000000000000000001D900
000000000000000000000AE100
000000000000000000006F5000
00000000000000000002E90000
0000000000000000000CD10000
0000000000000000009F400000
000000000000000005F8000000
00000000000000002EC0000000
0000000000000000CE20000000
0000000000000008F600000000
000000000000004FA000000000
00000000000001DD1000000000
0000000000000AF30000000000
0000000000006F700000000000
000000000003FB000000000000
00000000001DE2000000000000
00000000009F50000000000000
0000000005F900000000000000
000000001EC000000000000000
00000000BE3000000000000000
00000006F60000000000000000
0000002EA00000000000000000
000000CD100000000000000000
000008F3000000000000000000
00003F70000000000000000000
0001DB00000000000000000000
000AE200000000000000000000
005F5000000000000000000000
02E90000000000000000000000
0AD10000000000000000000000
2E300000000000000000000000
12000000000000000000000000
ENDCHAR
STARTCHAR foursuperior
ENCODING 8308
SWIDTH 473 0
DWIDTH 17 0
BBX 17 21 0 13
BITMAP
000000008100000000
00000001F300000000
00000008F500000000
0000001EF600000000
0000008FF800000000
000001EFF900000000
000009AFFA00000000
00002C1FFC00000000
0000A40DFE00000000
0003A00BFF00060000
000B2009FF200B0000
00580008FF404F0000
01D10006FF76EF1000
08D78ACEFFFFFF3000
1EFFFFFFFFFFFD3000
16654323FFF2000000
00000001FFF7000000
00000002FFFE200000
00000006FFFFD62000
000005AFFFEDEEFE30
000008863000000000
ENDCHAR
STARTCHAR Euro
ENCODING 8364
SWIDTH 799 0
DWIDTH 29 0
BBX 32 31 -1 -2
BITMAP
00000000000000000000000000000053
000000000000000000000000000002E1
0000000000000016ADEFEC9400000AA0
00000000000018FFE941026DD5007F30
000000000005EFFB20000001BFECFB00
00000000007FFF90000000001EFFF600
0000000007FFFB000000000005FFF100
000000005FFFE2000000000000EFB000
00000001EFFF800000000000008F8000
00000008FFFF100000000000005F4000
0000001FFFFB000000000000002F2000
0000007FFFF6000017C70000000E0000
000000CFFFF3016BE930000000090000
000001FFFFF7BEA50000000000000000
000004FFFFFB51000310000000000000
000019FFFFC00049E900000000000000
006BFFFFFFB38DF92000000000000000
02CA6BFFFFFFD7100000000000000000
00000AFFFFE400000000000000000000
00159EFFFFD000000000000000000000
0AFFFFFFFFF00000000000000A000000
1EEA44FFFFF30000000000000D000000
000000EFFFF70000000000002C000000
0000009FFFFC0000000000006A000000
0000003FFFFF400000000000C6000000
0000000AFFFFD10000000005F1000000
00000002EFFFFC200000004E90000000
000000004FFFFFF941014AFE10000000
0000000004EFFFFFFFFFFFF400000000
00000000002AFFFFFFFFFD3000000000
00000000000038CDFEDA500000000000
ENDCHAR
STARTCHAR minus
ENCODING 8722
SWIDTH 436 0
DWIDTH 16 0
BBX 13 2 1 7
BITMAP
16532100123430
18BDEEFFFFEC80
ENDCHAR
STARTCHAR f_f
ENCODING 64256
SWIDTH 467 0
DWIDTH 17 0
BBX 21 53 1 -13
BITMAP
000000029DEC5000000000
0000005EFFFFF600000000
000003C33FFFFC00000000
00000D300EFFFD00000000
00005B000CFFF900000000
0000C70004DEA100000000
0002F30000004AEFD92000
0006F1000009D414FFD200
0009E000008E2000DFFA00
000DC00003F70002FFFF00
001FA0000BF1001CFFFF20
003F90001FB000AFFFFF20
005F80006F8001FFFFFF00
006F8000AF6003FFFFFB00
008F8000DF4001EFFFF400
009F8001FF30004CFD5000
00AF8002FF200000000000
00AF8003FF200000000000
00BF9004FF200000000000
00BF9004FF200000000000
00BFA003FF434551000000
00BFD8BEFFFDCCB3000000
4BFFE743FF700000000000
43BFD000FF800000000000
00AFE000EFA00000000000
00AFF100DFC00000000000
00AFF200BFF00000000000
009FF3009FF20000000000
008FF5007FF50000000000
008FF7005FF80000000000
007FF9003FFB0000000000
006FFB000FFE0000000000
005FFD000CFF3000000000
004FFF000AFF8000000000
003FFF2007FFC000000000
002FFF4004FFF200000000
000FFF7001FFF700000000
000EFF9000DFFD00000000
000DFFC000BFFF60000000
000BFFE0008FFFE5000000
000AFFF1006FFFFFD80000
0009FFF4006FFD84100000
0007FFF601CD5000000000
0006FFF80B810000000000
0004FFFB01000000000000
0003FFFE00000000000000
0002FFFF30000000000000
0002FFFF60000000000000
0002FFFFB0000000000000
0003FFFFF3000000000000
0007FFFFFC000000000000
028FFFFFFFB20000000000
DEDCBBCEFFFFC300000000
ENDCHAR
STARTCHAR .notdef
ENCODING -1
SWIDTH 270 0
DWIDTH 10 0
BBX 8 22 1 0
BITMAP
AFFFFFF6
20000002
20000002
20000002
20000002
20000002
20000002
20000002
20000002
20000002
20000002
20000002
20000002
20000002
20000002
20000002
20000002
20000002
20000002
20000002
20000002
AFFFFFF6
ENDCHAR
STARTCHAR .null
ENCODING -1
SWIDTH 0 0
DWIDTH 0 0
BBX 1 1 0 0
BITMAP
00
ENDCHAR
STARTCHAR nonmarkingreturn
ENCODING -1
SWIDTH 270 0
DWIDTH 10 0
BBX 1 1 0 0
BITMAP
00
ENDCHAR
STARTCHAR dieresis.case
ENCODING -1
SWIDTH 393 0
DWIDTH 14 0
BBX 12 5 1 27
BITMAP
04DEA0000000
1EFFF601BEA0
2FFFF807FFF4
1EFFF508FFF3
05DE8002CE90
ENDCHAR
STARTCHAR o.cmp
ENCODING -1
SWIDTH 400 0
DWIDTH 14 0
BBX 25 29 0 6
BITMAP
00000000000000000002BEB200
00000000000000000009FFFB00
0000000000000000000AFFFF10
00000000000000000003EFFF20
000000000000000000002DFF10
0000000000000000000002FD00
0000000000000000000000D900
0000000000000000000000E400
0000000000000000000003C000
000000000000000000000A4000
00000000000000000000390000
00000000000000000001B10000
0000000000000000001A200000
000000000000000002A3000000
00000000000000018A10000000
00000000000026AB4000000000
00017DC5FEEDB7200000000000
003DFE21CFF900000000000000
02EFF5002FFFA0000000000000
0BFFC0000AFFF5000000000000
3FFF600005FFFB000000000000
7FFF200003FFFE000000000000
8FFF100002FFFF000000000000
8FFF000004FFFD000000000000
5FFF100005FFFA000000000000
1EFF400009FFF3000000000000
07FF90001EFF80000000000000
008FF612BFF700000000000000
00039DFEC82000000000000000
ENDCHAR
STARTCHAR n_n
ENCODING -1
SWIDTH 1024 0
DWIDTH 37 0
BBX 37 24 0 -1
BITMAP
00000740000000000000000000000000000000
00006F80000000000000000000000000000000
0007FFA0000000000000000000000000000000
05CFFFC00002AEFD8100000000000000000000
AA7DFFF0004EFFFFFD1000007A000000000000
0006FFF203EFFFFFFFA0027DFD000000000000
0002FFF40CA204DFFFF19FFFFC000000000000
0000EFF65C00002FFFF401EFFC006CEEA20000
0000BFF8B400000AFFF600AFFB0BFFFFFE3000
00008FFBD0000007FFF6009FFA9B217FFFC000
00004FFFA0000004FFF5009FFCD1000AFFF400
00002FFF70000003FFF400AFFF600006FFF700
00000EFF60000003FFF300AFFF200004FFF900
00000BFF50000003FFF100BFFD000004FFFA00
000009FF40000004FFE000BFFC000005FFF900
000006FF40000005FFC000CFFA000006FFF700
000004FF50000007FFA000CFFB000009FFF400
000002FF6000000AFF8000DFFD00000CFFF100
000001FF9000015FFF8001FFFF50002FFFE000
000001FFC004FFFFFFA02AFFEDCB11BFFFB000
000005FFF500137DFFE399520007FFFFFFE300
002DEFFFFF8000004AFE40000000001248CE50
0003210124510000004DD00000000000000000
00000000000000000000400000000000000000
ENDCHAR
STARTCHAR a_a
ENCODING -1
SWIDTH 911 0
DWIDTH 33 0
BBX 35 25 0 -2
BITMAP
00000000000000000029DFEC710000000000
000000000000000005FB313AFD3000000000
00000000000000003FF20000AFE200000000
0000000000000000BFF500002FFA00000000
0000000000000001FFFE10000BFF20000000
0003AEFD70000001FFFF600009FF70000000
005E5129FA000000DFFF500007FFA0000000
02EA0000AF5000004DE9000006FFC0000000
09FA00003FC000000000000006FFD0000000
0DFF30000FF100000000000006FFE0000000
0EFFB0000DF4000028CEFDB617FFF0000000
0CFFD0000CF60007FFA30137CCFFF0000000
04DE50000CF8007FF90000000BFFF1000000
000000001EF901EFF10000000AFFF2000000
00005ADEFFF906FFD0CE70000BFFF2000000
002CFFB41CFA09FFC0EFF1000CFFF2000000
02EFF8000BFB0AFFE018F2000DFFF3000000
0BFFD0000CFC08FFF700F1005FFFF3000000
3FFF80000DFE03FFFF83C25BFFFFF4000000
5FFF80001FFF30AFFFFFFFFF8DFFF5000000
4FFFA0006BFF801AFFFFFFF70BFFF7000710
1FFFF514D1BFE2005BFFD92007FFFA000B10
08FFFFFF601BFE5118C1000001EFFF515C00
006CEEC600005ADFD8100000004EFFFFF500
0000000000000000000000000002AEFC5000
ENDCHAR
STARTCHAR t_h
ENCODING -1
SWIDTH 854 0
DWIDTH 31 0
BBX 32 47 -1 -8
BITMAP
00000000000000001B60000000000000
0000000000000002CF80000000000000
000000000000006EFF80000000000000
0000000000258EFFFF70000000000000
000000003EFFFFFFFF60000000000000
00000000000002CFFF60000000000000
000000000000003FFF50000000000000
000000000000000FFF40000000000000
000000000000000DFF30000000000000
000000000000000DFF20000000000000
00000000002A000DFF10000000000000
0000000000C9000EFF00000000000000
0000000009F4000FFE00000000000000
000000007FE0001FFD00000000000000
0000002AFFD0002FFC00000000000000
000149EFFFF3003FFB11000000000000
6BDFFFFFFFFFEFFFFFFF400000000000
253201EFFF50005FFA21000000000000
000000DFFD00006FF800000000000000
000000EFFA00007FF700000000000000
000001FFF900008FF7003AEFEC710000
000003FFF700009FF609A3027FFE4000
000004FFF60000AFF6A7000005FFE300
000005FFF50000BFFAB0000000CFFC00
000006FFF40000CFFF400000007FFF30
000007FFF40000CFFD000000005FFF80
000007FFF40000DFF9000000003FFFB0
000006FFF50000EFF7002CEA102FFFD0
000004FFF50000FFF5009FFF701FFFD0
000002FFF70001FFF3009FFF902FFFE0
000000EFF90002FFF2003FFF802FFFD0
0000009FFD0003FFF10006FF403FFFC0
0000002FFF3005FFF00002FD003FFFA0
00000007FFC006FFF00005F6005FFF80
000000009FFA07FFF0002DA0006FFF50
0000000006DFECFFF138E700008FFF30
000000000005AEFFFEB7100000AFFF10
0000000000000DFFF300000000CFFD00
0000000000004FFFF900000000FFFA00
000000000003EFFFFF50000003FFF700
00000000029FFFFFFFF8100007FFF500
000000003EB75211259DE2000DFFF400
0000000000000000000000008FFFF400
00000000000000000000004AFFFFF600
000000000000000000005EFFFFFFFC00
0000000000000000000000000027DFA0
000000000000000000000000000006C9
ENDCHAR
STARTCHAR s_s
ENCODING -1
SWIDTH 654 0
DWIDTH 24 0
BBX 24 32 -1 -5
BITMAP
000000000000000500000013
000000000000006300000075
00000003AEEDAD80000001D2
0000004FF613DE118CEFDFE0
000000DFA000783EFA217FD0
000002FF700072CFE1000AC0
000004FF800042FFB00004D0
000003FFD00004FFA00000C0
000000EFF60004FFD0000050
0000009FFE3001FFF2000000
0000001EFFE200CFFA000000
00000006FFFE205FFF300000
000000009FFFD20EFFD10000
000000000CFFFD16FFF90000
0000000001DFFFC0CFFF4000
00000000003FFFF74FFFD100
000000000006FFFE1BFFF900
000200000000BFFF53FFFF30
001C000000004FFF90BFFFB0
005D00003CE80DFFA05FFFF3
008E0001EFFF1AFFA00EFFF8
00CF0007FFFE09FF800AFFFC
03FF400AFFE40BFF4008FFFE
0AFFA00BF9101EFC0007FFFF
4C25E60BB0008FE30007FFFE
61003DAC703AFD300009FFFC
0000016CFFEB6100000DFFF8
00000001D2000000004FFFF3
000000008D30000002DFFF90
000000001CF941026EFFFC00
0000000001BFFFFFFFFF9000
0000000000049DEFEC820000
ENDCHAR
STARTCHAR t_t
ENCODING -1
SWIDTH 569 0
DWIDTH 21 0
BBX 21 32 0 -3
BITMAP
00000000004EFA00000000
0000000000AFFC00000000
0000000380CFFB00000000
0000000980DFF900000000
0000001E60FFF800000000
000000AF41FFF700035000
000007FF22FFF726BA2000
00019FFF05FFFFE8200000
016DFFFFDFFFF900000000
9FFFFFFFBDFFE100000000
0018FFFA09FFB000000000
0006FFF609FF9000000000
0007FFF409FF8000000000
0008FFF209FF6000000000
0009FFF008FF6000000000
000AFFE008FF6000000000
000BFFD006FF7000000000
000CFFC005FF8000000000
000CFFC003FFA000AED400
000CFFC000EFD003FFFF20
000BFFC000AFF201EFFF70
000AFFD0004FF80016CF60
0008FFE00008FF30001F30
0005FFF00000AFE6118A00
0002FFF3000005BEFD7000
0000CFF600000000000000
00006FFA0000004DE80000
00000DFE100000DFFF2000
000004FF700002FFFF3000
0000006FE20006FFFC0000
00000004DE612DFFD20000
0000000016BEFEC8100000
ENDCHAR
STARTCHAR e_e
ENCODING -1
SWIDTH 782 0
DWIDTH 28 0
BBX 28 20 0 0
BITMAP
000039DFEA20000039DFEB500000
0009FE513DE20009FE5129F90000
00BFF30006FA00AFE20000CF5000
07FF900003FD07FF8000006FB000
1EFF400003FC1EFF2000004FE000
6FFF100006FA6FFE0000003FF000
AFFF00000AF5AFFB0000004FE000
CFFE00004FC0DFFA0000006FC000
DFFE0004EC10EFFA0000009F8000
CFFF35AF9100FFFA000000DF3000
AFFFFC720000EFFB000003FC0000
6FFF90000000DFFE00000BF40760
1EFFE1000000AFFF30004F9001E2
06FFFA0000006FFF8001DB0000B7
00AFFF7000001EFFE11CB1000099
0009FFF8100008FFFBD7000000C8
00004CFFE83102DFFFD2000003F4
00000038BDEFECAAFFFE72016EC0
00000000000000006EFFFFFFFD20
0000000000000000016BDEEC7100
ENDCHAR
STARTCHAR o_o
ENCODING -1
SWIDTH 751 0
DWIDTH 27 0
BBX 37 31 0 2
BITMAP
000000000000000000000000000000006EE800
00000000000000000000000000000001FFFF60
00000000000000000000000000000001FFFFA0
000000000000000000000000000000008FFFC0
0000000000000000000000000000000006FFA0
00000000000000000000000000000000008F80
00000000000000000000000000000000004F40
00000000000000000000000000000000005D00
00000000000000000000000000000000009700
0000000000000000000000000000000001D100
00000000000000000000000000000000097000
000000000000000000000000000000005B0000
00000000000000000000000000000004C10000
0000000000000000000000000000007C200000
0000049DEFC600000000000000005C91000000
0001BFF8213BD20000001100249DB300000000
002DFF400000BE218DA0BFFFEB720000000000
00CFF80000003FDEF7003EFE30000000000000
06FFF10000000EFF600006FFE2000000000000
0CFFB00000002FFD000000EFFA000000000000
1FFF700000009FFF2000009FFF100000000000
4FFF50000000DFFF4000006FFF500000000000
6FFF30000000FFFF5000004FFF500000000000
6FFF30000000EFFF5000004FFF400000000000
5FFF30000000BFFF3000006FFF100000000000
2FFF400000006FFE000000CFF9000000000000
0CFF70000000AFFC000005FFD1000000000000
05FFC0000002EFFFB3117FFB20000000000000
009FF600000BFF64ACEFDA4000000000000000
0008FF7103CFE5000000000000000000000000
000028CEFDB710000000000000000000000000
ENDCHAR
STARTCHAR l_l
ENCODING -1
SWIDTH 573 0
DWIDTH 21 0
BBX 23 36 -2 -5
BITMAP
0000000A600000002B200000
0000009F70000018EF300000
000009FF70025AFFFF300000
0001BFFF708EDFFFFF300000
005CEFFF60000BFFFF300000
09606FFF600006FFFF300000
00005FFF600003FFFF300000
00005FFF600002FFFF300000
00004FFF700000FFFF300000
00004FFF700000EFFF300000
00003FFF700000DFFF300000
00003FFF700000DFFF300000
00003FFF800000CFFF300000
00003FFF800000BFFF300000
00003FFF800000AFFF300000
00002FFF900000AFFF300000
00002FFF9000009FFF400000
00002FFF9000009FFF500000
00002FFFA000008FFF500000
00003FFFA000008FFF600000
00003FFFA000008FFF700000
00003FFFB000007FFF800000
00003FFFB000007FFFA00000
00003FFFC000007FFFB00000
00004FFFC000007FFFD00000
00004FFFC000006FFFE00000
00004FFFD000006FFFF10000
00005FFFE000007FFFF40000
00006FFFE000009FFFF90000
00006FFFF10004EFFFFF6100
00007FFFF206EFDCBBCDEF90
0000CFFFF501100000000000
9EDEFFFFFA00000000000000
01369CFFFF50000000000000
00000016BFF7000000000000
00000000028D600000000000
ENDCHAR
STARTCHAR z_z
ENCODING -1
SWIDTH 875 0
DWIDTH 32 0
BBX 33 24 -1 -2
BITMAP
0000000000BB731001248CB00000000000
0000000000BFEEFFFFFFFF800000000000
0000000000B30000138FFF200000000000
0000000000700000006FFC000000000000
0009EB85210136AB00BFF6000000000000
000A91015EFFFFF303FFE1000000000000
000910000EFFFF7009FF90000000000000
000700005FFFFC001EFF30000000000000
00050000DFFFE2008FFC00000000000000
00000006FFFF6001EFF600000000000000
0000001EFFFB0007FFF100000000000000
0000007FFFE2001EFFB000000000000000
000001EFFF60007FFF5000000000000000
000009FFFB0001EFFE1000009000000000
00002FFFE20007FFF9000000E0004CEA10
0000AFFF60000DFFF4000005F000DFFF80
0003FFFC00005FFFE100026EF001FFFFC0
000BFFF30000BFFFFFFFFFFFF100EFFFC0
005FFF800000EEB74211258CE1008FFFA0
00DFFC00000000000000000000002FFF60
08FFF89CEFFEDB740000000000000EFD10
2FFFFFFFFFFFFFFFEA61000000002FE300
9DA74210112468BDFFFFB8521014CC3000
00000000000000001368ACEFFEC9400000
ENDCHAR
STARTCHAR j_j
ENCODING -1
SWIDTH 577 0
DWIDTH 21 0
BBX 25 49 -4 -23
BITMAP
000000000000003CEC30000000
00000000000000CFFFD0000000
00000000000000FFFFF0000000
0000000001BEB1CFFFC0000000
0000000008FFF83CEC20000000
0000000009FFF7000012000000
0000000002CEB1026BEF300000
00000000000009EFFFFFA00000
00000000000006BFFFFFF10000
0000032100147A76FFFFF50000
0000059DFFFFFFE07FFFFA0000
000000005EFFFFF30CFFFE0000
0000000003FFFFF605FFFF2000
00000000008FFFF800DFFF6000
00000000001EFFFB008FFF9000
000000000009FFFD003FFFC000
000000000005FFFE000DFFE000
000000000001FFFF100AFFF200
000000000000CFFF2006FFF400
0000000000009FFF4002FFF600
0000000000006FFF5000EFF800
0000000000004FFF5000CFF900
0000000000002FFF60009FFB00
0000000000000FFF60007FFC00
0000000000000DFF70005FFD00
0000000000000CFF70003FFE00
0000000000000BFF60001FFF00
0000000000000AFF60000EFF00
0000000000000AFF50000DFF00
0000000000000AFF40000CFF10
0000000000000AFF20000BFF10
004BED7000000BFF10000AFF00
06FFFFF600000BFD000009FF00
2FFFFFFA00000DFB000009FE00
9FFFFFF900000EF700000AFD00
DFFFFFE200002FF300000AFC00
FFFFB71000005FD000000AFA00
FFB2000000009F8000000BF800
EF2000000000EF2000000CF600
BE0000000006F80000000EF300
5F200000001ED10000000FE000
0CB0000001CE200000003FA000
01CC51137EC3671000005F5000
0006BEFEA50CFFC000008E0000
00000000003FFFF50000D70000
00000000004FFFFC0005D00000
00000000001FFFFF814D200000
000000000007FFFFFFD3000000
0000000000005CEEC710000000
ENDCHAR
STARTCHAR f_b
ENCODING -1
SWIDTH 731 0
DWIDTH 26 0
BBX 29 47 -2 -6
BITMAP
000000000006CEEB50000000000000
0000000000AB3029F9000000000000
0000000009C00000CF400000000000
000000004F3000009FA00000000000
00000000BB000000CFE00000000000
00000002F7000008FFF00000000000
00000007F30005DFFFE00000000000
0000000CF000AFFFFFC00000000000
0000001FE002FFFFFF700000000000
0000004FC003FFFFFE100000000000
0000006FB000CFFFE4410000000000
0000009FB000169728F40000000000
000000BFB0000017DFF50000000000
000000EFB0008CFFFFF50000000000
000002FFD00067BFFFF60000000000
000008FFF7125887FFF60000000000
00138FFFFFDA8621FFF60000000000
7DDBCFFFF6000000EFF60000000000
000009FFF1000000CFF60000000000
000007FFF0000000BFF60000000000
000007FFF1000000AFF50000000000
000006FFF10000009FF50000000000
000006FFF20000009FF50000000000
000006FFF20000008FF50000000000
000006FFF20000008FF50000000000
000005FFF30000008FF40000000000
000005FFF30000008FF40000000000
000005FFF40000008FF40000000000
000005FFF40000008FF57CEFC70000
000005FFF50000008FFE613EFFC100
000005FFF50000008FFA0006FFF900
000005FFF60000008FF50002FFFE10
000005FFF60000008FF20000FFFF40
000004FFF70000008FF10000EFFF50
000004FFF70000008FF10000FFFF40
000004FFF80000008FF10001FFFF30
000004FFF80000008FF20005FFFD00
000004FFF9000000AFF5000AFFF700
000004FFFA000003FFFD217FFFA000
000004FFFA00005EFFFFFFFFD60000
000004FFFC000BE942012321000000
000005FFFE00020000000000000000
000006FFFF91000000000000000000
000009FFFFFFCA2000000000000000
00003EFFFFFFFE4000000000000000
0006ED952000000000000000000000
00BA40000000000000000000000000
ENDCHAR
STARTCHAR f_k
ENCODING -1
SWIDTH 708 0
DWIDTH 26 0
BBX 25 42 1 -5
BITMAP
00000000025000000000000000
000000002DA000000000000000
00000004EFA000000000000000
000015BFFF9000000000000000
02ACFFFFFFEDFEA40000000000
0022116FFFA119FF7000000000
000000AFFF9005FFF300000000
000005FCFF902DFFF700000000
00000DC5FFA0CFFFF800000000
00006F64FFA2FFFFF600000000
0000CF23FFA1EFFFE100000000
0002FD03FFB04CFC3000000000
0007FA02FFB000000000000000
000AF802FFC000000000000000
000EF602FFC000000000000000
001FF501FFD000000000000000
003FF401FFD000000000000000
4BEFF301FFE003500000000000
547FF200FFE002BD7310000000
007FF200FFF00005FFFDB70000
008FF200FFF10000FB30000000
008FF100FFF100079000000000
009FF100EFF200490000000000
009FF100EFF303C00000000000
009FF100EFF32ED00000000000
00AFF100DFF6DFF20000000000
00AFF100DFFEDFF70000030000
00AFF100DFF77FFC0000067000
00BFF100DFF82FFF300000A500
00BFF100DFF90CFFB000003C00
00BFF100CFFA07FFF500001F10
00BFF100CFFB01EFFE20003F20
00BFF100CFFC006FFFE612BF10
00CFF200CFFE000AFFFFFFFB00
00DFF300CFFF0000AFFFFFF300
00FFF400CFFF200005BEEC3000
07FFF800DFFF30000000000000
CFFFFE41FFFF70000000000000
01025887FFFFC0000000000000
0000004EFFFFFB665100000000
00048CFFFFFFFFFFF500000000
00047542100012343000000000
ENDCHAR
STARTCHAR f_h
ENCODING -1
SWIDTH 873 0
DWIDTH 31 0
BBX 34 46 -2 -5
BITMAP
000000000006CEEB500000000000000000
0000000000AB3029F90000000000000000
0000000009B00000CF5000000000000000
000000004F2000009FB000000000000000
00000000BB000000CFE000000000000000
00000002F6000008FFF000000000000000
00000008F30006DFFFE000000000000000
0000000CF000AFFFFFC000000000000000
0000001FD002FFFFFF7010000000000000
0000004FC002FFFFFE13E2000000000000
0000007FB000BFFFE33EF0000000000000
0000009FB000057528FFD0000000000000
000000CFB0000028EFFFB0000000000000
000000EFB0006DFEFFFF90000000000000
000002FFE10033103EFF70000000000000
000009FFFB67ADA00AFF60000000000000
0235AFFFFE95310008FF50000000000000
7CA9AEFFF300000008FF40000000000000
000008FFF000000008FF20000000000000
000007FFF000000009FF10000000000000
000006FFF10000000AFF00000000000000
000006FFF10000000AFF00000000000000
000006FFF20000000BFE00000000000000
000006FFF20000000CFD00000000000000
000005FFF30000000DFD00000000000000
000005FFF30000000EFC00000000000000
000005FFF40000000FFC002AEED7100000
000005FFF40000001FFC04EFFFFFD10000
000005FFF50000002FFC2E712BFFFA0000
000005FFF50000003FFBB70001EFFF1000
000005FFF60000004FFEE00000AFFF4000
000005FFF60000005FFF8000007FFF6000
000005FFF70000007FFF4000006FFF7000
000005FFF70000008FFF1000006FFF8000
000005FFF80000009FFC0000006FFF8000
000004FFF8000000BFFA0000006FFF8000
000004FFF9000000CFF80000006FFF8000
000004FFF9000000EFF70000007FFF7000
000004FFFA000002FFF60000008FFF8000
000005FFFB000007FFF6000000AFFFC100
000005FFFE00015EFFFB000005FFFFFEC5
000007FFFF81FFFFFFFFB200AA73102351
00000BFFFFFEDA301358A9000000000000
00005FFFFFFFFF50000000000000000000
0006FE9521000000000000000000000000
00BB500000000000000000000000000000
ENDCHAR
ENDFONT
